<!-- Generated by IcoMoon.io -->
<svg version="1.1" xmlns="http://www.w3.org/2000/svg" width="27" height="32" viewBox="0 0 27 32">
<path fill="#f17228" d="M21.967 16.922c0.032-2.445 1.345-4.759 3.428-6.039-1.314-1.877-3.515-3.067-5.805-3.138-2.443-0.256-4.81 1.462-6.055 1.462-1.269 0-3.185-1.436-5.249-1.394-2.69 0.087-5.197 1.616-6.506 3.968-2.813 4.87-0.715 12.028 1.98 15.965 1.348 1.928 2.924 4.081 4.986 4.005 2.018-0.084 2.771-1.287 5.206-1.287 2.413 0 3.12 1.287 5.223 1.238 2.165-0.035 3.529-1.936 4.83-3.882 0.969-1.374 1.714-2.892 2.209-4.498-2.544-1.076-4.243-3.636-4.246-6.399z"></path>
<path fill="#f17228" d="M17.994 5.155c1.18-1.417 1.762-3.238 1.621-5.077-1.803 0.189-3.469 1.051-4.666 2.414-1.17 1.331-1.779 3.121-1.664 4.889 1.804 0.019 3.578-0.82 4.708-2.226z"></path>
</svg>
