<!-- Generated by IcoMoon.io -->
<svg version="1.1" xmlns="http://www.w3.org/2000/svg" width="28" height="32" viewBox="0 0 28 32">
<path fill="#000" stroke="#000" stroke-linejoin="miter" stroke-linecap="butt" stroke-miterlimit="4" stroke-width="0.3333" d="M13.917 21.833c-0.127 0-0.245-0.061-0.316-0.164-1.335-1.909-2.489-3.372-3.414-4.546l-0-0c-2.137-2.709-3.269-4.153-3.269-6.681 0-3.827 3.139-6.943 7-6.943s7 3.116 7 6.943c0 2.525-1.14 3.981-3.292 6.71l-0 0c-0.921 1.169-2.071 2.627-3.392 4.516-0.072 0.102-0.19 0.164-0.316 0.164z"></path>
<path fill="#fff" d="M13.917 14.333c-2.114 0-3.833-1.72-3.833-3.833s1.72-3.833 3.833-3.833c2.114 0 3.833 1.72 3.833 3.833s-1.72 3.833-3.833 3.833z"></path>
</svg>
