<!-- Generated by IcoMoon.io -->
<svg version="1.1" xmlns="http://www.w3.org/2000/svg" width="26" height="32" viewBox="0 0 26 32">
<path fill="#000" stroke="#000" stroke-linejoin="miter" stroke-linecap="butt" stroke-miterlimit="4" stroke-width="0.3333" d="M7.136 21.804l-0.001-0c-0.142-0.059-0.235-0.198-0.235-0.351v-17.573c0-0.21 0.17-0.38 0.38-0.38h10.937c0.21 0 0.38 0.17 0.38 0.38 0 0 0 0 0 0v17.573c0 0.154-0.093 0.293-0.235 0.351l-0.001 0c-0.137 0.058-0.303 0.028-0.413-0.083-0.456-0.456-1.194-0.456-1.65 0-0.149 0.149-0.389 0.149-0.538 0-0.456-0.456-1.194-0.456-1.65 0-0.149 0.149-0.389 0.149-0.538 0-0.456-0.456-1.194-0.456-1.65 0-0.149 0.149-0.389 0.149-0.538 0-0.456-0.456-1.194-0.456-1.65 0-0.149 0.149-0.389 0.149-0.538 0-0.456-0.456-1.194-0.456-1.65 0-0.109 0.11-0.274 0.141-0.414 0.083z"></path>
<path fill="#fff" d="M12.75 9.217c-0.301 0-0.547-0.245-0.547-0.547s0.246-0.547 0.547-0.547c0.301 0 0.547 0.245 0.547 0.547s0.245 0.547 0.547 0.547 0.547-0.245 0.547-0.547c0-0.712-0.459-1.313-1.094-1.54v-0.648c0-0.302-0.245-0.547-0.547-0.547s-0.547 0.245-0.547 0.547v0.648c-0.635 0.227-1.094 0.828-1.094 1.54 0 0.905 0.736 1.641 1.641 1.641 0.301 0 0.547 0.245 0.547 0.547s-0.246 0.547-0.547 0.547c-0.301 0-0.547-0.245-0.547-0.547s-0.245-0.547-0.547-0.547-0.547 0.245-0.547 0.547c0 0.712 0.459 1.313 1.094 1.54v0.648c0 0.302 0.245 0.547 0.547 0.547s0.547-0.245 0.547-0.547v-0.648c0.635-0.226 1.094-0.828 1.094-1.54 0-0.905-0.736-1.641-1.641-1.641zM12.75 14.686h-3.281c-0.302 0-0.547 0.245-0.547 0.547s0.245 0.547 0.547 0.547h3.281c0.302 0 0.547-0.245 0.547-0.547s-0.245-0.547-0.547-0.547zM12.75 16.873h-3.281c-0.302 0-0.547 0.245-0.547 0.547s0.245 0.547 0.547 0.547h3.281c0.302 0 0.547-0.245 0.547-0.547s-0.245-0.547-0.547-0.547zM14.938 15.78h1.094c0.302 0 0.547-0.245 0.547-0.547s-0.245-0.547-0.547-0.547h-1.094c-0.302 0-0.547 0.245-0.547 0.547s0.245 0.547 0.547 0.547zM16.031 16.873h-1.094c-0.302 0-0.547 0.245-0.547 0.547s0.245 0.547 0.547 0.547h1.094c0.302 0 0.547-0.245 0.547-0.547s-0.245-0.547-0.547-0.547z"></path>
</svg>
