<!-- Generated by IcoMoon.io -->
<svg version="1.1" xmlns="http://www.w3.org/2000/svg" width="28" height="32" viewBox="0 0 28 32">
<path fill="#000" stroke="#000" stroke-linejoin="miter" stroke-linecap="butt" stroke-miterlimit="4" stroke-width="0.3333" d="M9.5 3.5h8.833c1.473 0 2.667 1.194 2.667 2.667v13c0 1.473-1.194 2.667-2.667 2.667h-8.833c-1.473 0-2.667-1.194-2.667-2.667v-13c0-1.473 1.194-2.667 2.667-2.667z"></path>
<path fill="#fff" d="M18.152 12.685c0-0.327-0.266-0.592-0.595-0.592h-0.595v-0.592c0-1.43-1.023-2.626-2.379-2.902v-0.652c0-0.327-0.266-0.592-0.595-0.592s-0.595 0.265-0.595 0.592v0.652c-1.356 0.275-2.379 1.472-2.379 2.902v0.592h-0.595c-0.329 0-0.595 0.265-0.595 0.592s0.266 0.592 0.595 0.592h7.137c0.329 0 0.595-0.265 0.595-0.592zM16.367 15.646h-4.758c-0.329 0-0.595 0.265-0.595 0.592s0.266 0.592 0.595 0.592h4.758c0.329 0 0.595-0.265 0.595-0.592s-0.266-0.592-0.595-0.592z"></path>
</svg>
