<!-- Generated by IcoMoon.io -->
<svg version="1.1" xmlns="http://www.w3.org/2000/svg" width="32" height="32" viewBox="0 0 32 32">
<path fill="#000" stroke="#000" stroke-linejoin="miter" stroke-linecap="butt" stroke-miterlimit="4" stroke-width="0.3333" d="M6.917 12.667c0-5.038 4.129-9.167 9.167-9.167s9.167 4.129 9.167 9.167c0 2.498-1.044 4.764-2.673 6.417l-6.494 2.193-6.494-2.193c-1.629-1.654-2.673-3.92-2.673-6.417zM12.089 12.667c0 2.203 1.792 3.995 3.995 3.995s3.995-1.792 3.995-3.995c0-2.203-1.792-3.995-3.995-3.995s-3.995 1.792-3.995 3.995z"></path>
<path fill="#000" stroke="#000" stroke-linejoin="miter" stroke-linecap="butt" stroke-miterlimit="4" stroke-width="0.3333" d="M6.917 12.667c0-5.038 4.129-9.167 9.167-9.167s9.167 4.129 9.167 9.167c0 2.498-1.044 4.764-2.673 6.417l-6.494 2.193-6.494-2.193c-1.629-1.654-2.673-3.92-2.673-6.417zM12.089 12.667c0 2.203 1.792 3.995 3.995 3.995s3.995-1.792 3.995-3.995c0-2.203-1.792-3.995-3.995-3.995s-3.995 1.792-3.995 3.995z"></path>
<path fill="#fff" d="M16.083 19.229c-1.641 0-1.641-1.094-3.281-1.094s-1.641 1.105-3.303 1.094c1.684 1.684 4.014 2.771 6.584 2.771s4.9-1.087 6.584-2.771c-1.663 0.011-1.651-1.094-3.303-1.094-1.641 0-1.641 1.094-3.281 1.094zM11.001 14.468c-0.214-0.214-0.56-0.214-0.773 0s-0.214 0.56 0 0.773l1.094 1.094c0.214 0.214 0.56 0.214 0.773 0s0.214-0.56 0-0.773l-1.094-1.094zM16.083 7.745h2.188c0.302 0 0.547-0.245 0.547-0.547s-0.244-0.547-0.547-0.547h-2.188c-0.302 0-0.547 0.245-0.547 0.547s0.245 0.547 0.547 0.547zM20.845 16.335l1.094-1.094c0.214-0.214 0.214-0.56 0-0.773s-0.56-0.214-0.773 0l-1.094 1.094c-0.214 0.214-0.214 0.56 0 0.773s0.56 0.214 0.773 0zM21.166 10.866c0.214 0.214 0.56 0.214 0.773 0s0.213-0.56 0-0.773l-1.094-1.094c-0.214-0.214-0.56-0.214-0.773 0s-0.213 0.56 0 0.773l1.094 1.094zM11.001 10.866l1.094-1.094c0.214-0.214 0.214-0.56 0-0.773s-0.56-0.214-0.773 0l-1.094 1.094c-0.214 0.214-0.214 0.56 0 0.773s0.56 0.214 0.773 0zM13.896 7.719c0.302 0 0.547-0.245 0.547-0.547s-0.245-0.547-0.547-0.547c-0.302 0-0.547 0.245-0.547 0.547s0.245 0.547 0.547 0.547zM10.068 12.641c0-0.302-0.245-0.547-0.547-0.547s-0.547 0.245-0.547 0.547c0 0.302 0.245 0.547 0.547 0.547s0.547-0.245 0.547-0.547zM22.646 12.094c-0.302 0-0.547 0.245-0.547 0.547s0.245 0.547 0.547 0.547c0.302 0 0.547-0.245 0.547-0.547s-0.245-0.547-0.547-0.547z"></path>
</svg>
