<!-- Generated by IcoMoon.io -->
<svg version="1.1" xmlns="http://www.w3.org/2000/svg" width="30" height="32" viewBox="0 0 30 32">
<path fill="#000" d="M-1.757-2.447h35.84v11.595h-35.84v-11.595z"></path>
<path fill="#ffa833" d="M-1.757 16.527h35.84v17.569h-35.84v-17.569z"></path>
<path fill="#f17228" d="M2.108 9.148h28.11c2.135 0 3.865 1.73 3.865 3.865s-1.73 3.865-3.865 3.865h-28.11c-2.135 0-3.865-1.73-3.865-3.865s1.73-3.865 3.865-3.865z"></path>
<path fill="#f58d00" d="M-24.596 24.257h34.083v7.73h-34.083v-7.73z"></path>
<path fill="#f58d00" d="M20.38 24.257h34.083v7.73h-34.083v-7.73z"></path>
<path fill="#fff" d="M9.65 2.632c0.105 0.275-0.256 0.668-0.807 0.878s-1.082 0.157-1.187-0.119c-0.105-0.275 0.256-0.668 0.807-0.878s1.082-0.157 1.187 0.119z"></path>
<path fill="#fff" d="M16 2.667c0 0.295-0.478 0.533-1.067 0.533s-1.067-0.239-1.067-0.533c0-0.295 0.478-0.533 1.067-0.533s1.067 0.239 1.067 0.533z"></path>
<path fill="#fff" d="M21.333 3.609c-0.139 0.26-0.673 0.245-1.192-0.032s-0.828-0.713-0.689-0.973c0.139-0.26 0.673-0.245 1.192 0.032s0.828 0.713 0.689 0.973z"></path>
</svg>
