<!-- Generated by IcoMoon.io -->
<svg version="1.1" xmlns="http://www.w3.org/2000/svg" width="51" height="32" viewBox="0 0 51 32">
<path fill="#f17228" d="M40.533 10.667c5.25 0.075 9.525 4.35 9.6 9.525 0 5.4-4.35 9.75-9.75 9.675-5.175 0-9.45-4.275-9.45-9.525-0.075-2.925 1.275-5.55 3.3-7.35l-0.9-1.575c-2.925 2.4-4.35 5.85-4.2 9.375 0 1.050-0.825 1.875-1.8 1.875h-6.3c-1.125 4.2-4.875 7.2-9.3 7.2-5.4 0-9.75-4.35-9.6-9.825 0.075-5.025 4.125-9.15 9.225-9.3 1.050-0.075 2.1 0.075 3.075 0.375l0.825-1.575c-0.675-1.050-1.725-1.875-3.525-1.875h-4.2c-1.050 0-1.8-0.75-1.8-1.725-0.075-1.050 0.825-1.875 1.8-1.875h4.2c4.125 0 6.15 1.275 7.425 3h11.55l-1.425-2.4h-4.95c-0.675 0-1.2-0.525-1.2-1.2v-1.2c0-0.6 0.525-1.2 1.2-1.2h6c0.6 0 1.2 0.375 1.5 0.9l1.725 2.85 2.775-3.15c0.375-0.375 0.825-0.6 1.35-0.6h3.45c0.975 0 1.8 0.825 1.8 1.8v2.4c0 1.050-0.825 1.8-1.8 1.8h-6.225l2.475 4.125c0.975-0.3 2.1-0.525 3.15-0.525zM11.733 26.267c2.4 0 4.5-1.425 5.475-3.6h-6.075c-1.425 0-2.25-1.425-1.575-2.625l3.075-5.7c-0.3 0-0.6-0.075-0.9-0.075-3.375 0-6 2.7-6 6 0 3.375 2.625 6 6 6zM46.458 20.642c0.225-3.45-2.55-6.375-5.925-6.3-0.45 0-0.825 0-1.2 0.075l3.6 6.075c0.375 0.6 0.15 1.35-0.375 1.65l-1.050 0.6c-0.6 0.375-1.275 0.15-1.65-0.375l-3.675-6.225c-1.050 1.125-1.65 2.55-1.65 4.125 0 3.45 2.85 6.225 6.3 6 3-0.15 5.475-2.625 5.625-5.625z"></path>
</svg>
