<!-- Generated by IcoMoon.io -->
<svg version="1.1" xmlns="http://www.w3.org/2000/svg" width="32" height="32" viewBox="0 0 32 32">
<path fill="#e8e8e8" d="M30.965 17.474l-12.191-13.204c-0.683-0.74-1.703-1.067-2.69-0.866l-6.882 1.409c-0.053 0.011-0.104 0.023-0.155 0.036-0.027 0.007-0.054 0.015-0.081 0.024-0.567 0.167-1.061 0.502-1.423 0.951-0.234 0.29-0.414 0.627-0.523 0.998l-1.989 6.789c-0.283 0.969-0.039 2.017 0.647 2.759l12.186 13.199c0.622 0.674 1.46 1.029 2.308 1.059 0.692 0.025 1.392-0.167 1.989-0.58 0.127-0.088 0.25-0.186 0.368-0.293l8.249-7.616c1.34-1.237 1.423-3.325 0.187-4.664zM12.346 11.982c-0.028 0.046-0.055 0.089-0.084 0.132-0.012 0.019-0.026 0.038-0.040 0.056-0.044 0.059-0.091 0.115-0.141 0.167-0.017 0.018-0.033 0.036-0.050 0.052-0.017 0.018-0.035 0.035-0.052 0.050-0.6 0.549-1.508 0.673-2.25 0.245-0.917-0.53-1.231-1.701-0.701-2.617 0.482-0.836 1.498-1.171 2.369-0.821 0.058 0.023 0.117 0.050 0.176 0.080 0.024 0.014 0.047 0.025 0.072 0.040 0.916 0.529 1.23 1.699 0.701 2.617z"></path>
<path fill="#000" d="M17.865 29.569c0.622 0.674 1.46 1.029 2.308 1.059 0.692 0.025 1.392-0.167 1.989-0.58 0.127-0.088 0.25-0.186 0.368-0.293l8.249-7.616c1.34-1.236 1.423-3.325 0.187-4.664l-5.695-6.168-7.057-4.074c-0.259-0.183-0.549-0.326-0.863-0.417l-6.747-1.953c-0.437-0.126-0.889-0.144-1.32-0.065l-0.072 0.015c-0.022 0.005-0.044 0.010-0.067 0.015-0.028 0.006-0.056 0.012-0.084 0.020-0.050 0.013-0.099 0.029-0.148 0.045-0.020 0.006-0.039 0.013-0.059 0.020-0.415 0.145-0.799 0.386-1.116 0.714l-0.194 0.201c-0.234 0.29-0.413 0.627-0.522 0.997l-1.989 6.789c-0.283 0.969-0.039 2.017 0.647 2.759l12.186 13.199zM9.028 10.066c0.482-0.836 1.498-1.171 2.369-0.821 0.058 0.023 0.117 0.050 0.176 0.080 0.024 0.014 0.047 0.025 0.072 0.040 0.916 0.529 1.23 1.699 0.701 2.617-0.028 0.046-0.055 0.089-0.084 0.132-0.012 0.019-0.026 0.038-0.040 0.056-0.044 0.059-0.091 0.115-0.141 0.167-0.017 0.018-0.033 0.036-0.050 0.052-0.017 0.018-0.035 0.035-0.052 0.050-0.6 0.549-1.508 0.673-2.25 0.245-0.917-0.53-1.231-1.701-0.701-2.617z"></path>
<path fill="#fdc347" d="M18.835 8.122l-6.012-3.633c-0.911-0.55-2.052-0.552-2.965-0.005l-6.067 3.639c-0.866 0.519-1.397 1.455-1.397 2.465v17.965c0 1.823 1.478 3.3 3.301 3.3h11.228c1.823 0 3.3-1.477 3.3-3.3v-17.971c0-1.007-0.527-1.939-1.388-2.46zM9.954 11.818c-0.748-0.749-0.748-1.961 0-2.709 0.682-0.682 1.75-0.743 2.501-0.18 0.051 0.038 0.101 0.079 0.149 0.123 0.020 0.019 0.040 0.037 0.059 0.057 0.748 0.748 0.748 1.96 0 2.709-0.038 0.037-0.075 0.073-0.115 0.106-0.017 0.015-0.035 0.030-0.053 0.043-0.057 0.045-0.118 0.088-0.179 0.125-0.021 0.013-0.041 0.025-0.062 0.037-0.021 0.013-0.042 0.024-0.063 0.035-0.722 0.375-1.631 0.26-2.237-0.346z"></path>
<path fill="#000" d="M20.223 28.554c0 0 0-0.079 0-0.226l-11.070-11.067c-0.43-0.343-0.998-0.515-1.706-0.515-1.555 0-2.333 0.716-2.333 2.149v2.586c0 0.776 0.23 1.34 0.686 1.695l8.678 8.678h2.445c1.822-0 3.3-1.478 3.3-3.3z"></path>
<path fill="#000" d="M14.976 16.256c-0.153-0.128-0.323-0.192-0.511-0.192-0.256 0-0.43 0.105-0.523 0.315l-6.392 12.839c-0.046 0.082-0.070 0.169-0.070 0.262 0 0.163 0.064 0.312 0.194 0.446l1.929 1.929h7.318c1.823 0 3.3-1.477 3.3-3.3 0 0 0-2.344 0-5.263v-1.763l-5.247-5.272z"></path>
<path fill="#000" d="M16.859 23.149c-0.43-0.343-0.998-0.515-1.706-0.515-1.555 0-2.333 0.716-2.333 2.149v2.586c0 0.776 0.23 1.34 0.686 1.695l2.789 2.789h0.628c1.823 0 3.3-1.477 3.3-3.3 0 0 0-0.798 0-2.041l-3.364-3.363z"></path>
<path fill="#000" d="M5.114 21.481v-2.586c0-1.433 0.778-2.149 2.333-2.149 0.708 0 1.277 0.172 1.706 0.515s0.644 0.889 0.644 1.634v2.586c0 0.746-0.215 1.29-0.644 1.634s-0.998 0.515-1.706 0.515c-1.555 0-2.333-0.716-2.333-2.149zM6.355 21.451c0 0.672 0.364 1.008 1.092 1.008 0.74 0 1.109-0.336 1.109-1.008v-2.528c0-0.672-0.37-1.008-1.109-1.008-0.728 0-1.092 0.336-1.092 1.008 0 0 0 2.528 0 2.528zM7.482 29.48c0-0.093 0.023-0.18 0.070-0.262l6.392-12.839c0.093-0.21 0.267-0.315 0.523-0.315 0.188 0 0.358 0.064 0.511 0.192s0.229 0.286 0.229 0.472c0 0.093-0.018 0.186-0.052 0.28l-6.392 12.787c-0.105 0.221-0.302 0.332-0.592 0.332-0.2 0-0.364-0.067-0.493-0.201s-0.194-0.283-0.194-0.446zM12.82 27.405v-2.606c0-1.444 0.778-2.166 2.333-2.166 0.708 0 1.277 0.173 1.706 0.52s0.644 0.895 0.644 1.646v2.606c0 0.751-0.215 1.3-0.644 1.646s-0.998 0.519-1.706 0.519c-1.555 0-2.333-0.722-2.333-2.166zM14.061 27.381c0 0.679 0.364 1.019 1.092 1.019 0.74 0 1.109-0.34 1.109-1.019v-2.557c0-0.679-0.37-1.019-1.11-1.019-0.728 0-1.092 0.34-1.092 1.019v2.557z"></path>
<path fill="#000" d="M20.223 10.582v6.109l-7.403-7.403c-0.048-0.062-0.1-0.122-0.156-0.179-0.020-0.020-0.040-0.038-0.059-0.057-0.013-0.013-0.027-0.024-0.041-0.035-0.035-0.032-0.072-0.061-0.108-0.088-0.716-0.536-1.719-0.507-2.402 0.089v-4.641c0.789-0.393 1.715-0.402 2.51-0.027 0.088 0.041 0.175 0.088 0.259 0.139l6.012 3.633c0.861 0.52 1.388 1.453 1.388 2.46z"></path>
<path fill="#000" d="M11.308 11.299c-0.693 0-1.255-0.562-1.255-1.255v-8.788c0-0.693 0.562-1.255 1.255-1.255s1.255 0.562 1.255 1.255v8.788c0 0.693-0.562 1.255-1.255 1.255z"></path>
</svg>
