<!-- Generated by IcoMoon.io -->
<svg version="1.1" xmlns="http://www.w3.org/2000/svg" width="24" height="32" viewBox="0 0 24 32">
<path fill="#e4e8ef" d="M3.898 0.166h16.434c2.052 0 3.716 1.664 3.716 3.716v41.774c0 2.052-1.664 3.716-3.716 3.716h-16.434c-2.052 0-3.716-1.664-3.716-3.716v-41.774c0-2.052 1.664-3.716 3.716-3.716z"></path>
<path fill="#fff" d="M3.93 0.454h16.338c1.928 0 3.492 1.563 3.492 3.492v41.678c0 1.928-1.563 3.492-3.492 3.492h-16.338c-1.929 0-3.492-1.563-3.492-3.492v-41.678c0-1.929 1.563-3.492 3.492-3.492zM3.898 1.223c-1.486 0-2.691 1.205-2.691 2.691v41.71c0 1.486 1.205 2.691 2.691 2.691h16.402c1.486 0 2.691-1.205 2.691-2.691v-41.71c0-1.486-1.205-2.691-2.691-2.691h-16.402z"></path>
<path fill="#fff" d="M1.083 1.196h22.041v47.726h-22.041v-47.726z"></path>
<path fill="#f1f2f6" d="M2.611 10.012h18.985c0.325 0 0.588 0.263 0.588 0.588v1.234c0 0.325-0.263 0.588-0.588 0.588h-18.985c-0.325 0-0.588-0.263-0.588-0.588v-1.234c0-0.325 0.263-0.588 0.588-0.588z"></path>
<path fill="#feca57" d="M18.892 3.782h1.646c0.519 0 0.94 0.421 0.94 0.94v0.647c0 0.519-0.421 0.94-0.94 0.94h-1.646c-0.519 0-0.94-0.421-0.94-0.94v-0.647c0-0.519 0.421-0.94 0.94-0.94z"></path>
<path fill="#f1f2f6" d="M2.964 13.539h2.292c0.519 0 0.94 0.421 0.94 0.94v2.351c0 0.519-0.421 0.94-0.94 0.94h-2.292c-0.519 0-0.94-0.421-0.94-0.94v-2.351c0-0.519 0.421-0.94 0.94-0.94z"></path>
<path fill="#000" d="M5.094 16.674c0.011-0.011 0.014-0.028 0.008-0.043l-0.648-1.68c0.035-0.060 0.041-0.135 0.011-0.202-0.050-0.113-0.182-0.163-0.295-0.113-0.265 0.118-0.501 0.284-0.701 0.495s-0.354 0.455-0.459 0.726c-0.011 0.028-0.016 0.057-0.015 0.086 0.002 0.088 0.056 0.17 0.143 0.203 0.058 0.022 0.121 0.019 0.173-0.006l1.739 0.546c0.015 0.005 0.031 0 0.042-0.011zM4.467 15.209l0.069 0.178c-0.022 0.022-0.053 0.033-0.084 0.029-0.028-0.003-0.053-0.017-0.070-0.038s-0.026-0.049-0.023-0.076c0.003-0.028 0.016-0.052 0.038-0.070 0.020-0.016 0.045-0.024 0.070-0.023zM3.169 16.069c-0.073-0.028-0.109-0.11-0.081-0.183 0.203-0.528 0.6-0.945 1.117-1.175 0.035-0.015 0.073-0.016 0.108-0.003s0.063 0.040 0.079 0.075 0.016 0.073 0.003 0.108c-0.014 0.035-0.040 0.063-0.075 0.079-0.221 0.098-0.418 0.237-0.585 0.413s-0.296 0.379-0.382 0.605c-0.028 0.073-0.11 0.109-0.183 0.081zM4.416 16.4c0-0.004 0-0.007 0-0.011 0.003-0.028 0.016-0.052 0.038-0.070s0.049-0.025 0.076-0.023c0.057 0.006 0.099 0.057 0.093 0.114-0.002 0.018-0.008 0.034-0.018 0.049l-0.189-0.059zM4.685 16.485c0.010-0.020 0.017-0.042 0.019-0.065 0.011-0.102-0.063-0.193-0.165-0.204-0.049-0.005-0.098 0.009-0.136 0.040-0.037 0.030-0.061 0.072-0.067 0.119l-0.239-0.075 0.069-0.095c0.013-0.018 0.009-0.044-0.009-0.057s-0.044-0.009-0.057 0.009l-0.085 0.117-0.622-0.195c0.015-0.018 0.027-0.039 0.036-0.062 0.168-0.437 0.496-0.783 0.924-0.973 0.015-0.007 0.029-0.015 0.041-0.024l0.042 0.108c-0.033 0.005-0.064 0.018-0.090 0.039-0.039 0.031-0.063 0.076-0.068 0.125-0.001 0.008-0.001 0.017-0.001 0.025 0.001 0.041 0.015 0.079 0.041 0.112 0.031 0.039 0.076 0.063 0.125 0.068 0.044 0.005 0.088-0.007 0.123-0.031l0.194 0.503-0.046 0.020c-0.016 0.007-0.025 0.022-0.024 0.038 0 0.005 0.001 0.010 0.003 0.015 0.009 0.021 0.033 0.030 0.054 0.021l0.042-0.019 0.207 0.537-0.311-0.098z"></path>
<path fill="#0a191e" d="M5.094 16.674v0zM5.103 16.632l-0.165 0.063 0 0 0.164-0.064zM4.455 14.952l-0.153-0.088-0.042 0.073 0.030 0.079 0.165-0.063zM4.466 14.75v0zM4.171 14.636v0zM3.011 15.857v0zM2.997 15.942v0zM3.14 16.145v0zM3.313 16.14l0.053-0.168-0.065-0.020-0.062 0.028 0.074 0.16zM5.052 16.686v0zM4.467 15.209l0.165-0.063-0.042-0.108-0.115-0.005-0.008 0.176zM4.535 15.387l0.124 0.125 0.082-0.081-0.042-0.108-0.165 0.063zM4.451 15.416l-0.019 0.175h0l0.019-0.175zM4.359 15.302v0zM4.397 15.232v0zM3.169 16.069v0zM3.088 15.886v0zM4.205 14.711v0zM4.313 14.708v0zM4.32 14.97v0zM3.352 15.988v0zM4.416 16.4l-0.176 0 0 0.129 0.123 0.039 0.053-0.168zM4.416 16.389l-0.175-0.019-0 0 0.175 0.018zM4.454 16.319v0zM4.531 16.297v0zM4.623 16.411v0zM4.605 16.46l-0.053 0.168 0.123 0.039 0.074-0.106-0.145-0.101zM4.685 16.485l-0.157-0.080-0.095 0.186 0.199 0.063 0.053-0.168zM4.705 16.42v0zM4.539 16.215v0zM4.403 16.256v0zM4.336 16.375l-0.053 0.168 0.2 0.063 0.028-0.207-0.175-0.024zM4.097 16.3l-0.143-0.104-0.144 0.198 0.234 0.073 0.053-0.168zM4.166 16.205v0zM4.157 16.148v0zM4.1 16.157v0zM4.014 16.274l-0.053 0.168 0.121 0.038 0.075-0.102-0.143-0.104zM3.392 16.079l-0.136-0.112-0.167 0.202 0.25 0.078 0.053-0.168zM3.428 16.017v0zM4.353 15.044v0zM4.394 15.020l0.165-0.063-0.083-0.215-0.186 0.136 0.104 0.142zM4.436 15.129l0.025 0.175 0.22-0.031-0.080-0.207-0.165 0.063zM4.345 15.168v0zM4.278 15.293v0zM4.318 15.429v0zM4.443 15.497l-0.019 0.175h0l0.019-0.175zM4.566 15.466l0.165-0.063-0.080-0.207-0.184 0.124 0.099 0.146zM4.76 15.969l0.072 0.161 0.153-0.068-0.060-0.156-0.165 0.063zM4.714 15.99v0zM4.693 16.044v0zM4.747 16.064v0zM4.789 16.045l0.165-0.063-0.067-0.173-0.169 0.075 0.072 0.161zM4.996 16.582l-0.053 0.168 0.349 0.109-0.131-0.341-0.165 0.063zM5.223 16.795c0.057-0.061 0.074-0.149 0.044-0.227l-0.329 0.127c-0.019-0.049-0.008-0.104 0.027-0.142l0.257 0.241zM5.267 16.568l-0.648-1.68-0.329 0.127 0.648 1.68 0.329-0.127zM4.608 15.040c0.061-0.106 0.073-0.241 0.019-0.362l-0.322 0.143c0.006 0.014 0.005 0.030-0.003 0.043l0.305 0.176zM4.627 14.678c-0.090-0.202-0.326-0.293-0.527-0.203l0.143 0.322c0.024-0.010 0.052 0 0.062 0.024l0.322-0.143zM4.1 14.475c-0.287 0.127-0.542 0.307-0.758 0.535l0.256 0.243c0.184-0.194 0.401-0.347 0.645-0.455l-0.143-0.322zM3.342 15.010c-0.216 0.227-0.383 0.491-0.495 0.784l0.329 0.127c0.096-0.249 0.238-0.474 0.422-0.667l-0.256-0.243zM2.847 15.793c-0.019 0.050-0.028 0.102-0.027 0.153l0.353-0.009c-0-0.006 0.001-0.012 0.003-0.018l-0.329-0.127zM2.82 15.947c0.004 0.156 0.1 0.303 0.256 0.363l0.127-0.329c-0.018-0.007-0.030-0.024-0.030-0.043l-0.353 0.009zM3.076 16.31c0.105 0.040 0.216 0.033 0.31-0.010l-0.147-0.321c-0.012 0.005-0.024 0.006-0.036 0.001l-0.127 0.329zM3.26 16.308l1.739 0.546 0.106-0.337-1.739-0.546-0.106 0.336zM5 16.854c0.080 0.025 0.166 0.002 0.223-0.059l-0.257-0.241c0.036-0.038 0.090-0.052 0.139-0.037l-0.106 0.337zM4.302 15.272l0.069 0.178 0.329-0.127-0.069-0.178-0.329 0.127zM4.411 15.261c0.015-0.015 0.037-0.023 0.058-0.020l-0.037 0.351c0.085 0.009 0.167-0.021 0.226-0.079l-0.248-0.251zM4.47 15.241c0.019 0.002 0.037 0.012 0.049 0.026l-0.274 0.222c0.047 0.058 0.114 0.095 0.188 0.102l0.037-0.351zM4.518 15.267c0.012 0.015 0.018 0.034 0.016 0.053l-0.351-0.037c-0.008 0.074 0.014 0.148 0.061 0.206l0.274-0.222zM4.534 15.32c-0.002 0.019-0.012 0.037-0.026 0.049l-0.222-0.274c-0.058 0.047-0.095 0.114-0.103 0.189l0.351 0.037zM4.508 15.369c-0.014 0.011-0.031 0.017-0.049 0.016l0.016-0.352c-0.068-0.003-0.135 0.019-0.188 0.062l0.222 0.274zM3.232 15.904c0.018 0.007 0.027 0.027 0.020 0.045l-0.329-0.127c-0.063 0.164 0.019 0.348 0.183 0.411l0.127-0.329zM3.252 15.949c0.186-0.484 0.55-0.867 1.024-1.077l-0.143-0.322c-0.56 0.249-0.99 0.701-1.21 1.273l0.329 0.127zM4.276 14.872c-0.008 0.004-0.018 0.004-0.027 0.001l0.127-0.329c-0.079-0.030-0.166-0.028-0.243 0.006l0.143 0.322zM4.25 14.873c-0.008-0.003-0.016-0.010-0.019-0.018l0.322-0.143c-0.034-0.077-0.097-0.137-0.176-0.168l-0.127 0.329zM4.23 14.854c-0.004-0.008-0.004-0.018-0.001-0.027l0.329 0.127c0.030-0.079 0.028-0.166-0.006-0.243l-0.322 0.143zM4.23 14.828c0.003-0.008 0.010-0.016 0.018-0.019l0.143 0.322c0.077-0.034 0.137-0.097 0.168-0.176l-0.329-0.127zM4.248 14.809c-0.242 0.108-0.458 0.26-0.641 0.452l0.256 0.243c0.151-0.159 0.329-0.284 0.529-0.373l-0.143-0.322zM3.607 15.261c-0.183 0.192-0.324 0.416-0.419 0.663l0.329 0.127c0.079-0.204 0.195-0.388 0.346-0.547l-0.256-0.243zM3.188 15.924c0.007-0.018 0.027-0.027 0.045-0.020l-0.127 0.329c0.164 0.063 0.348-0.019 0.411-0.183l-0.329-0.127zM4.592 16.4c0 0 0 0.001-0 0.002s-0 0.003-0 0.005l-0.351-0.037c-0.001 0.012-0.001 0.022-0.001 0.030l0.353-0zM4.592 16.408c-0.002 0.019-0.012 0.037-0.026 0.049l-0.222-0.274c-0.058 0.047-0.095 0.114-0.103 0.189l0.351 0.037zM4.565 16.456c-0.015 0.012-0.034 0.018-0.053 0.016l0.037-0.351c-0.074-0.008-0.148 0.014-0.206 0.061l0.222 0.274zM4.512 16.472c-0.040-0.004-0.068-0.040-0.064-0.079l0.351 0.037c0.016-0.154-0.095-0.292-0.249-0.308l-0.037 0.351zM4.448 16.392c0.001-0.013 0.006-0.024 0.013-0.034l0.289 0.202c0.027-0.038 0.044-0.083 0.049-0.131l-0.351-0.037zM4.658 16.291l-0.189-0.059-0.106 0.337 0.189 0.059 0.106-0.337zM4.842 16.565c0.020-0.039 0.033-0.082 0.038-0.127l-0.351-0.037c-0 0.001-0 0.002-0.001 0.003l0.314 0.161zM4.88 16.438c0.021-0.199-0.123-0.377-0.322-0.398l-0.037 0.351c0.002 0 0.004 0.001 0.006 0.003s0.002 0.004 0.002 0.007l0.351 0.037zM4.558 16.040c-0.096-0.010-0.191 0.018-0.266 0.079l0.222 0.274c0.001-0.001 0.002-0.002 0.003-0.002s0.002-0 0.004-0l0.037-0.351zM4.292 16.119c-0.072 0.058-0.119 0.141-0.131 0.233l0.349 0.047c0-0.002 0.001-0.003 0.001-0.003s0.001-0.002 0.002-0.003l-0.222-0.274zM4.389 16.207l-0.239-0.075-0.106 0.336 0.239 0.075 0.106-0.337zM4.239 16.404l0.069-0.095-0.285-0.207-0.069 0.095 0.285 0.207zM4.308 16.309c0.070-0.097 0.049-0.233-0.048-0.303l-0.207 0.285c-0.061-0.044-0.074-0.129-0.030-0.189l0.285 0.207zM4.261 16.005c-0.097-0.071-0.233-0.049-0.303 0.048l0.285 0.207c-0.044 0.060-0.129 0.074-0.189 0.030l0.207-0.285zM3.957 16.053l-0.085 0.117 0.285 0.207 0.085-0.117-0.285-0.207zM4.067 16.106l-0.622-0.195-0.106 0.337 0.622 0.195 0.106-0.337zM3.528 16.191c0.027-0.032 0.049-0.069 0.065-0.111l-0.329-0.127c-0.002 0.005-0.004 0.009-0.008 0.013l0.272 0.225zM3.593 16.080c0.151-0.393 0.446-0.704 0.831-0.875l-0.143-0.322c-0.471 0.209-0.832 0.59-1.017 1.071l0.329 0.127zM4.424 15.206c0.027-0.012 0.051-0.026 0.074-0.043l-0.208-0.285c-0.003 0.002-0.006 0.004-0.009 0.005l0.143 0.322zM4.23 15.084l0.042 0.108 0.329-0.127-0.042-0.108-0.329 0.127zM4.411 14.954c-0.065 0.009-0.125 0.036-0.176 0.077l0.222 0.274c0.001-0.001 0.002-0.001 0.002-0.001s0.001-0 0.002-0.001l-0.050-0.349zM4.235 15.031c-0.075 0.061-0.122 0.148-0.132 0.243l0.351 0.037c0-0.002 0.001-0.003 0.001-0.004s0.001-0.002 0.002-0.003l-0.222-0.274zM4.102 15.274c-0.002 0.016-0.002 0.032-0.002 0.048l0.353-0.009c0-0 0-0.001 0-0.002l-0.351-0.037zM4.1 15.322c0.002 0.079 0.030 0.156 0.080 0.218l0.274-0.222c-0.001-0.001-0.001-0.002-0.002-0.003s-0-0.002-0-0.003l-0.353 0.009zM4.181 15.54c0.061 0.075 0.148 0.122 0.243 0.132l0.037-0.351c-0.002-0-0.003-0.001-0.004-0.001s-0.002-0.001-0.003-0.002l-0.274 0.222zM4.424 15.673c0.086 0.009 0.171-0.013 0.241-0.060l-0.197-0.292c-0.002 0.001-0.004 0.002-0.006 0.002l-0.037 0.351zM4.402 15.53l0.194 0.503 0.329-0.127-0.194-0.503-0.329 0.127zM4.688 15.808l-0.046 0.020 0.143 0.322 0.046-0.020-0.143-0.322zM4.642 15.828c-0.083 0.037-0.131 0.119-0.129 0.204l0.353-0.009c0.001 0.053-0.029 0.104-0.080 0.127l-0.143-0.322zM4.513 16.032c0.001 0.028 0.007 0.056 0.019 0.083l0.322-0.143c0.007 0.016 0.011 0.034 0.012 0.052l-0.353 0.009zM4.532 16.115c0.049 0.11 0.177 0.159 0.287 0.11l-0.143-0.322c0.068-0.030 0.148 0 0.179 0.069l-0.322 0.143zM4.819 16.225l0.042-0.019-0.143-0.322-0.042 0.019 0.143 0.322zM4.625 16.109l0.207 0.537 0.329-0.127-0.207-0.537-0.329 0.127zM5.049 16.414l-0.311-0.098-0.106 0.336 0.311 0.098 0.106-0.337z"></path>
<path fill="#000" d="M3.98 15.008c0 0 0 0 0 0.001s0 0 0 0c0.005 0.007 0.007 0.014 0.007 0.022 0 0.013-0.006 0.026-0.017 0.034l-0 0-0 0-0 0c-0.018 0.013-0.043 0.008-0.056-0.010l0.033-0.023 0-0 0-0 0-0 0-0 0-0 0-0 0-0 0.033-0.023zM3.98 15.008c-0.013-0.018-0.038-0.023-0.056-0.010-0 0-0 0-0 0s-0 0-0 0-0 0-0 0-0.001 0.001-0.001 0.001c-0.011 0.008-0.017 0.021-0.016 0.034 0 0.008 0.002 0.015 0.007 0.022 0 0 0 0 0 0.001l0.033-0.023 0-0 0-0 0-0 0-0 0-0 0-0h0l0.033-0.023z"></path>
<path fill="#000" d="M4.069 15.001c0.069-0.042 0.141-0.079 0.214-0.112 0.021-0.009 0.030-0.033 0.021-0.054s-0.033-0.030-0.054-0.021c-0.077 0.034-0.152 0.073-0.223 0.116-0.013 0.008-0.020 0.022-0.020 0.036 0 0.007 0.002 0.014 0.006 0.020 0.012 0.019 0.037 0.025 0.056 0.014z"></path>
<path fill="#0a191e" d="M4.069 15.001v0zM4.284 14.889l-0.072-0.161-0 0 0.072 0.161zM4.304 14.835v0zM4.251 14.814v0zM4.027 14.931v0zM4.013 14.987v0zM4.161 15.152c0.062-0.038 0.128-0.072 0.195-0.101l-0.143-0.322c-0.080 0.036-0.159 0.077-0.234 0.122l0.182 0.302zM4.355 15.050c0.11-0.049 0.159-0.177 0.11-0.287l-0.322 0.143c-0.030-0.068 0-0.148 0.069-0.179l0.143 0.322zM4.466 14.763c-0.049-0.11-0.177-0.159-0.287-0.11l0.143 0.322c-0.068 0.030-0.148-0-0.179-0.069l0.322-0.143zM4.179 14.653c-0.083 0.037-0.165 0.080-0.243 0.127l0.182 0.302c0.065-0.039 0.134-0.075 0.204-0.106l-0.143-0.322zM3.936 14.78c-0.069 0.042-0.107 0.116-0.105 0.191l0.353-0.009c0.001 0.047-0.022 0.093-0.065 0.119l-0.182-0.302zM3.831 14.971c0.001 0.037 0.011 0.074 0.031 0.107l0.302-0.182c0.012 0.021 0.019 0.044 0.019 0.067l-0.353 0.009zM3.863 15.078c0.062 0.103 0.196 0.136 0.298 0.073l-0.183-0.302c0.064-0.039 0.147-0.018 0.186 0.046l-0.302 0.182z"></path>
<path fill="#000" d="M4.564 15.887c0.001-0.008 0.001-0.016 0.001-0.024-0.002-0.093-0.074-0.17-0.166-0.18-0.102-0.011-0.193 0.063-0.204 0.165-0.001 0.008-0.001 0.016-0.001 0.024 0.002 0.093 0.074 0.17 0.166 0.18 0.102 0.011 0.193-0.063 0.204-0.165zM4.368 15.971c-0.052-0.005-0.092-0.049-0.093-0.101-0-0.005 0-0.009 0.001-0.014 0.006-0.057 0.057-0.099 0.114-0.093 0.052 0.005 0.092 0.049 0.093 0.101 0 0.005-0 0.009-0.001 0.014-0.006 0.057-0.057 0.099-0.114 0.093z"></path>
<path fill="#0a191e" d="M4.564 15.887v0zM4.398 15.683v0zM4.194 15.848v0zM4.359 16.052v0zM4.368 15.971v0zM4.275 15.857v0zM4.39 15.764v0zM4.482 15.879v0zM4.739 15.906c0.002-0.016 0.002-0.032 0.002-0.048l-0.353 0.009c0 0 0 0.001-0 0.001l0.351 0.037zM4.741 15.858c-0.005-0.181-0.144-0.332-0.324-0.351l-0.037 0.351c0.002 0 0.004 0.001 0.006 0.003s0.003 0.004 0.003 0.006l0.353-0.009zM4.417 15.508c-0.199-0.021-0.377 0.123-0.398 0.322l0.351 0.037c0-0.002 0.001-0.004 0.003-0.006s0.004-0.002 0.007-0.002l0.037-0.351zM4.019 15.829c-0.002 0.016-0.002 0.032-0.002 0.048l0.353-0.009c0-0 0-0.001 0-0.001l-0.351-0.037zM4.017 15.877c0.005 0.181 0.144 0.332 0.324 0.351l0.037-0.351c-0.002-0-0.004-0.001-0.006-0.003s-0.003-0.004-0.003-0.006l-0.353 0.009zM4.341 16.228c0.199 0.021 0.377-0.123 0.398-0.322l-0.351-0.037c-0 0.002-0.001 0.004-0.003 0.006s-0.004 0.002-0.007 0.002l-0.037 0.351zM4.386 15.796c0.036 0.004 0.064 0.033 0.065 0.070l-0.353 0.009c0.004 0.141 0.111 0.257 0.251 0.272l0.037-0.351zM4.451 15.866c0 0.003-0 0.006-0 0.009l-0.351-0.037c-0.001 0.012-0.002 0.025-0.002 0.037l0.353-0.009zM4.451 15.875c-0.004 0.040-0.040 0.069-0.079 0.064l0.037-0.351c-0.154-0.016-0.292 0.095-0.308 0.249l0.351 0.037zM4.371 15.939c-0.036-0.004-0.064-0.033-0.065-0.070l0.353-0.009c-0.004-0.141-0.111-0.257-0.251-0.271l-0.037 0.351zM4.307 15.869c-0-0.003 0-0.006 0-0.009l0.351 0.037c0.001-0.012 0.002-0.025 0.002-0.037l-0.353 0.009zM4.307 15.86c0.004-0.040 0.040-0.068 0.079-0.064l-0.037 0.351c0.154 0.016 0.292-0.095 0.308-0.249l-0.351-0.037z"></path>
<path fill="#000" d="M4.056 15.889c0.001-0.008 0.001-0.016 0.001-0.024-0.002-0.093-0.074-0.17-0.166-0.18-0.049-0.005-0.098 0.009-0.136 0.040s-0.063 0.076-0.068 0.125c-0.001 0.008-0.001 0.016-0.001 0.024 0.002 0.093 0.074 0.17 0.166 0.18 0.102 0.011 0.193-0.063 0.204-0.165zM3.86 15.973c-0.052-0.005-0.092-0.049-0.093-0.101-0-0.005 0-0.009 0.001-0.014 0.003-0.028 0.016-0.053 0.038-0.070s0.049-0.025 0.076-0.023c0.052 0.005 0.092 0.049 0.093 0.101 0 0.005-0 0.009-0.001 0.014-0.006 0.057-0.057 0.099-0.114 0.092z"></path>
<path fill="#0a191e" d="M4.056 15.889v0zM3.89 15.685l-0.019 0.175h0l0.019-0.175zM3.754 15.725v0zM3.686 15.85v0zM3.851 16.055v0zM3.86 15.973l-0.019 0.175h0l0.019-0.175zM3.767 15.859v0zM3.882 15.766v0zM3.974 15.881v0zM4.231 15.908c0.002-0.016 0.002-0.032 0.002-0.048l-0.353 0.009c0 0 0 0.001-0 0.001l0.351 0.037zM4.233 15.86c-0.005-0.181-0.144-0.332-0.324-0.351l-0.037 0.351c0.002 0 0.004 0.001 0.006 0.003s0.002 0.004 0.003 0.006l0.353-0.009zM3.909 15.51c-0.096-0.010-0.191 0.018-0.266 0.079l0.222 0.274c0.001-0.001 0.002-0.002 0.003-0.002s0.002-0 0.004-0l0.037-0.351zM3.643 15.588c-0.075 0.061-0.122 0.148-0.132 0.243l0.351 0.037c0-0.002 0.001-0.003 0.001-0.004s0.001-0.002 0.002-0.003l-0.222-0.274zM3.511 15.832c-0.002 0.016-0.002 0.032-0.002 0.047l0.353-0.009c0-0 0-0.001 0-0.001l-0.351-0.037zM3.509 15.879c0.005 0.181 0.144 0.332 0.324 0.351l0.037-0.351c-0.002-0-0.004-0.001-0.006-0.003s-0.002-0.004-0.003-0.006l-0.353 0.009zM3.833 16.23c0.199 0.021 0.377-0.123 0.398-0.322l-0.351-0.037c-0 0.002-0.001 0.004-0.003 0.006s-0.004 0.002-0.007 0.002l-0.037 0.351zM3.879 15.798c0.036 0.004 0.064 0.033 0.065 0.070l-0.353 0.009c0.004 0.141 0.111 0.257 0.251 0.272l0.037-0.351zM3.943 15.868c0 0.003-0 0.006-0 0.009l-0.351-0.037c-0.001 0.012-0.002 0.024-0.001 0.037l0.353-0.009zM3.943 15.878c-0.002 0.019-0.012 0.037-0.026 0.049l-0.222-0.274c-0.058 0.047-0.095 0.114-0.103 0.189l0.351 0.037zM3.916 15.926c-0.015 0.012-0.034 0.018-0.053 0.016l0.037-0.351c-0.074-0.008-0.148 0.014-0.206 0.061l0.222 0.274zM3.863 15.942c-0.036-0.004-0.064-0.033-0.065-0.070l0.353-0.009c-0.004-0.141-0.111-0.257-0.251-0.271l-0.037 0.351zM3.799 15.872c-0-0.003 0-0.006 0-0.009l0.351 0.037c0.001-0.012 0.002-0.025 0.002-0.037l-0.353 0.009zM3.799 15.862c0.004-0.040 0.040-0.068 0.079-0.064l-0.037 0.351c0.154 0.016 0.292-0.095 0.308-0.249l-0.351-0.037z"></path>
<path fill="#000" d="M4.229 15.514l0.003-0.024c0 0 0 0 0 0l-0.003-0-0.037-0.004M4.229 15.514l-0.002-0.024-0.036-0.004M4.229 15.514c-0.010 0.013-0.026 0.021-0.043 0.019 0 0 0 0 0 0s0 0 0 0 0 0 0 0c-0.017-0.002-0.031-0.013-0.038-0.028l0.081 0.009zM4.191 15.486v0z"></path>
<path fill="#000" d="M3.947 15.492c0.004 0.006 0.007 0.012 0.008 0.020l-0.008-0.020zM3.947 15.492c-0.002 0.007-0.003 0.014-0.002 0.021 0 0 0 0 0 0s0 0 0 0 0 0 0 0c0 0.002 0.001 0.003 0.001 0.005 0.001 0.006 0.004 0.011 0.007 0.015 0.002-0.005 0.002-0.010 0.002-0.015-0-0.002-0-0.004-0.001-0.006 0 0 0 0 0 0s0 0 0 0l-0.008-0.020zM3.915 15.56v0zM3.902 15.479c0 0 0 0 0 0-0.020 0.003-0.035 0.021-0.034 0.041 0 0.002 0 0.004 0.001 0.005 0.003 0.022 0.024 0.037 0.047 0.034 0 0 0 0 0 0l-0.013-0.081z"></path>
<path fill="#31b9cc" d="M8.638 13.539h2.292c0.519 0 0.94 0.421 0.94 0.94v2.351c0 0.519-0.421 0.94-0.94 0.94h-2.292c-0.519 0-0.94-0.421-0.94-0.94v-2.351c0-0.519 0.421-0.94 0.94-0.94z"></path>
<path fill="#f1f2f6" d="M14.312 13.539h2.292c0.519 0 0.94 0.421 0.94 0.94v2.351c0 0.519-0.421 0.94-0.94 0.94h-2.292c-0.519 0-0.94-0.421-0.94-0.94v-2.351c0-0.519 0.421-0.94 0.94-0.94z"></path>
<path fill="#f1f2f6" d="M19.986 13.539h2.292c0.519 0 0.94 0.421 0.94 0.94v2.351c0 0.519-0.421 0.94-0.94 0.94h-2.292c-0.519 0-0.94-0.421-0.94-0.94v-2.351c0-0.519 0.421-0.94 0.94-0.94z"></path>
<path fill="#010002" d="M15.953 15.022l0-0.006c0.002-0.033-0.010-0.065-0.032-0.088-0.029-0.031-0.075-0.044-0.123-0.036l-0.514 0.093c-0.026-0.031-0.062-0.049-0.101-0.049-0.033 0-0.065 0.013-0.091 0.036l-0.419 0.374c-0.031 0.028-0.049 0.067-0.048 0.107 0 0.010 0.002 0.021 0.005 0.031-0.028 0.020-0.049 0.053-0.055 0.093l-0.079 0.478-0.006-0 0.004 0.011-0.009 0.053c-0.007 0.043 0.003 0.085 0.029 0.115 0.015 0.017 0.034 0.029 0.055 0.035 0.090 0.216 0.275 0.584 0.505 0.584 0.034 0 0.067-0.008 0.099-0.024 0.134-0.065 0.123-0.376 0.099-0.578l0.001-0c0.071-0.002 0.14-0.065 0.158-0.142l0.005-0.025c0.029-0.005 0.056-0.017 0.078-0.034l0.149-0.117c0.020-0.016 0.035-0.036 0.046-0.059l0.060-0.007c0.067-0.008 0.124-0.056 0.143-0.115 0.111 0.031 0.268 0.069 0.389 0.069 0 0 0 0 0 0 0.097 0 0.159-0.024 0.191-0.072 0.036-0.055 0.045-0.116 0.028-0.183-0.056-0.216-0.396-0.443-0.567-0.545zM16.409 15.696c-0.004 0.006-0.024 0.027-0.107 0.027-0 0-0 0-0 0-0.115 0-0.274-0.039-0.379-0.070l0.026-0.517c0.184 0.115 0.436 0.302 0.476 0.457 0.010 0.039 0.005 0.073-0.015 0.104zM15.819 15.715c-0 0.003-0.001 0.007-0.002 0.010-0.007 0.020-0.030 0.041-0.059 0.044l-0.031 0.004c-0.003-0.020-0.009-0.039-0.020-0.057l-0.366-0.639 0.477-0.086c0.004-0.001 0.007-0.001 0.011-0.001 0.010 0 0.017 0.003 0.022 0.007 0.001 0.001 0.005 0.005 0.004 0.014l-0.001 0.011-0.032 0.652-0.002 0.041zM15.602 15.857l-0.149 0.117c-0.012 0.009-0.028 0.014-0.046 0.015s-0.035-0.003-0.049-0.011c-0.002-0.001-0.004-0.003-0.006-0.004l-0.609-0.493c-0.004-0.003-0.007-0.007-0.010-0.011-0.004-0.006-0.006-0.012-0.006-0.018-0-0.011 0.005-0.021 0.015-0.030l0.419-0.374c0.005-0.005 0.010-0.007 0.015-0.009 0.003-0.001 0.006-0.002 0.009-0.002 0.011 0 0.021 0.007 0.028 0.019l0.034 0.060 0.372 0.65c0.004 0.006 0.006 0.013 0.007 0.020 0.003 0.017 0 0.036-0.008 0.051-0.004 0.008-0.010 0.014-0.016 0.019zM15.333 16.089c-0.008 0.035-0.040 0.063-0.063 0.064l-0.664 0.023-0.001 0.046-0 0.003v-0.050c-0.006 0-0.010-0.002-0.014-0.006-0.006-0.007-0.008-0.020-0.006-0.034l0.005-0.028 0.008-0.050 0.076-0.464c0.002-0.013 0.008-0.024 0.014-0.028l0.6 0.486c0.014 0.011 0.030 0.020 0.047 0.026l-0.003 0.012zM15.129 16.741c-0.019 0.009-0.037 0.013-0.056 0.013-0.139 0-0.293-0.25-0.394-0.481l0.492-0.017c0.026 0.23 0.018 0.455-0.042 0.485z"></path>
<path fill="#f1f2f6" d="M10.665 15.396c-0.028-0.138-0.15-0.242-0.296-0.242-0.044 0-0.087 0.010-0.126 0.028l-0.014-0.045c-0.025-0.082-0.085-0.148-0.164-0.181s-0.168-0.031-0.244 0.007c-0.056 0.028-0.122 0.023-0.174-0.012l-0.012-0.008c-0.057-0.039-0.127-0.057-0.196-0.050s-0.133 0.039-0.181 0.090l-0.143 0.152-0.197-0.074v0.336h-0.134v0.22c0 0.344 0.171 0.663 0.459 0.854l0.015 0.010h1.101l0.015-0.010c0.287-0.191 0.459-0.51 0.459-0.854v-0.22h-0.166zM10.541 15.396h-0.196c-0.008-0.039-0.024-0.076-0.045-0.108 0.022-0.009 0.045-0.014 0.069-0.014 0.079 0 0.147 0.051 0.172 0.122zM10.221 15.396h-0.344c0.025-0.071 0.092-0.122 0.172-0.122s0.147 0.051 0.172 0.122zM9.345 15.064c0.058-0.062 0.152-0.072 0.222-0.024l0.012 0.008c0.087 0.060 0.2 0.068 0.295 0.021 0.045-0.022 0.098-0.024 0.144-0.004 0.042 0.018 0.075 0.052 0.092 0.095-0.020-0.004-0.040-0.006-0.061-0.006-0.138 0-0.255 0.093-0.291 0.22l-0.522-0.194 0.109-0.115zM9.037 15.233l0.437 0.163h-0.437v-0.163zM8.903 15.516h1.808c0 0-0 0.114-0 0.12h-1.808c-0-0.007-0-0.12-0-0.12zM10.32 16.36h-1.028c-0.206-0.142-0.341-0.361-0.379-0.604h1.786c-0.038 0.243-0.174 0.461-0.379 0.604z"></path>
<path fill="#000" d="M21.831 15.396c0-0.086-0.055-0.159-0.131-0.186 0.013-0.026 0.020-0.056 0.020-0.086 0-0.108-0.087-0.196-0.194-0.196h-0.049c-0.041 0-0.075-0.031-0.080-0.072l-0.023-0.2h-0.155c-0.092 0-0.177 0.041-0.233 0.112-0.036 0.047-0.058 0.103-0.062 0.163-0.090 0.017-0.159 0.097-0.159 0.193 0 0.031 0.007 0.060 0.020 0.086-0.076 0.027-0.131 0.1-0.131 0.186 0 0.067 0.033 0.126 0.084 0.162l0.353 1.155h0.302l0.353-1.155c0.051-0.035 0.084-0.095 0.084-0.162zM20.849 15.32h0.382v-0.12h-0.271c-0.041 0-0.075-0.034-0.075-0.076s0.034-0.076 0.075-0.076h0.168v-0.121h-0.083c0.004-0.032 0.016-0.060 0.035-0.085 0.033-0.042 0.085-0.067 0.14-0.067h0.049l0.011 0.093c0.012 0.102 0.097 0.179 0.198 0.179h0.049c0.041 0 0.075 0.034 0.075 0.076s-0.034 0.076-0.075 0.076h-0.086v0.12h0.197c0.041 0 0.075 0.034 0.075 0.076s-0.034 0.076-0.075 0.076h-0.788c-0.041 0-0.075-0.034-0.075-0.076s0.034-0.076 0.075-0.076zM21.306 16.592h-0.127l-0.306-1h0.738l-0.306 1z"></path>
<path fill="#0a191e" d="M4.348 4.271l-0.277 0.73-0.326-0.753h-0.085l-0.326 0.757-0.277-0.734h-0.282l0.497 1.265h0.083l0.348-0.779 0.346 0.779h0.083l0.497-1.265h-0.282zM5.66 4.936c0-0.226-0.136-0.375-0.346-0.375-0.104 0-0.194 0.038-0.256 0.1v-0.559h-0.254v1.412h0.254v-0.542c0-0.107 0.073-0.181 0.177-0.181s0.173 0.073 0.173 0.181v0.542h0.252v-0.578zM6.686 4.96c0-0.258-0.156-0.399-0.399-0.399-0.164 0-0.299 0.064-0.407 0.192l0.132 0.156c0.083-0.088 0.151-0.128 0.247-0.128 0.113 0 0.173 0.060 0.173 0.164v0.041h-0.233c-0.216 0-0.352 0.104-0.352 0.271 0 0.164 0.124 0.279 0.322 0.279 0.119 0 0.216-0.043 0.284-0.113v0.090h0.233v-0.553zM6.431 5.166c0 0.107-0.085 0.184-0.196 0.184-0.081 0-0.134-0.040-0.134-0.102s0.047-0.094 0.13-0.094h0.2v0.011zM7.529 5.301c-0.066 0.006-0.105 0.008-0.12 0.008-0.12 0-0.173-0.040-0.173-0.145v-0.367h0.264v-0.215h-0.264v-0.235h-0.254v0.235h-0.147v0.215h0.147v0.39c0 0.233 0.137 0.35 0.373 0.35 0.056 0 0.115-0.008 0.175-0.023v-0.213zM8.918 4.102v0.57c-0.068-0.073-0.16-0.111-0.279-0.111-0.26 0-0.452 0.207-0.452 0.488s0.192 0.488 0.452 0.488c0.128 0 0.237-0.049 0.299-0.137v0.115h0.233v-1.412h-0.254zM8.922 5.049c0 0.168-0.107 0.256-0.235 0.256-0.137 0-0.241-0.102-0.241-0.258 0-0.152 0.105-0.256 0.241-0.256 0.128 0 0.235 0.092 0.235 0.258zM9.372 5.047c-0.006 0.265 0.224 0.493 0.497 0.488 0.273 0.006 0.508-0.222 0.503-0.488 0.006-0.265-0.228-0.489-0.501-0.486-0.273-0.006-0.504 0.22-0.499 0.486zM10.112 5.049c0 0.145-0.104 0.252-0.241 0.252-0.141 0-0.241-0.107-0.241-0.252 0-0.149 0.1-0.256 0.241-0.256 0.137 0 0.241 0.111 0.241 0.256zM11.734 4.582l-0.243 0.612-0.228-0.612h-0.269l0.358 0.875-0.028 0.064c-0.043 0.098-0.104 0.126-0.194 0.126-0.015 0-0.051-0.002-0.109-0.008v0.213c0.056 0.015 0.111 0.023 0.164 0.023 0.173 0 0.286-0.087 0.371-0.28l0.446-1.013h-0.267zM12.059 5.047c-0.006 0.265 0.224 0.493 0.497 0.488 0.273 0.006 0.508-0.222 0.503-0.488 0.006-0.265-0.228-0.489-0.501-0.486-0.273-0.006-0.504 0.22-0.499 0.486zM12.799 5.049c0 0.145-0.104 0.252-0.241 0.252-0.141 0-0.241-0.107-0.241-0.252 0-0.149 0.1-0.256 0.241-0.256 0.137 0 0.241 0.111 0.241 0.256zM13.248 5.103c0 0.26 0.183 0.433 0.431 0.433 0.243 0 0.427-0.173 0.427-0.433v-0.521h-0.254v0.542c0 0.107-0.075 0.179-0.173 0.179-0.104 0-0.177-0.072-0.177-0.179v-0.542h-0.254v0.521zM3.711 7.27c0-0.226-0.136-0.375-0.346-0.375-0.104 0-0.194 0.038-0.256 0.1v-0.559h-0.254v1.412h0.254v-0.542c0-0.107 0.073-0.181 0.177-0.181s0.173 0.073 0.173 0.181v0.542h0.252v-0.578zM4.737 7.294c0-0.258-0.156-0.399-0.399-0.399-0.164 0-0.299 0.064-0.407 0.192l0.132 0.156c0.083-0.088 0.151-0.128 0.247-0.128 0.113 0 0.173 0.060 0.173 0.164v0.041h-0.233c-0.216 0-0.352 0.104-0.352 0.271 0 0.164 0.124 0.279 0.322 0.279 0.119 0 0.216-0.043 0.284-0.113v0.090h0.233v-0.553zM4.483 7.5c0 0.107-0.085 0.184-0.196 0.184-0.081 0-0.134-0.040-0.134-0.102s0.047-0.094 0.13-0.094h0.2v0.011zM5.579 6.916l-0.235 0.527-0.235-0.527h-0.267l0.461 0.954h0.085l0.461-0.954h-0.269zM6.816 7.468c0.011-0.047 0.017-0.094 0.017-0.139 0-0.243-0.181-0.433-0.439-0.433-0.269-0.006-0.493 0.218-0.488 0.488-0.006 0.269 0.222 0.493 0.51 0.488 0.137 0 0.262-0.047 0.373-0.139l-0.105-0.173c-0.081 0.062-0.168 0.094-0.26 0.094-0.136 0-0.232-0.066-0.262-0.184h0.653zM6.163 7.289c0.028-0.115 0.115-0.188 0.222-0.188 0.111 0 0.2 0.073 0.201 0.188h-0.424zM8.34 7.294c0-0.258-0.156-0.399-0.399-0.399-0.164 0-0.299 0.064-0.407 0.192l0.132 0.156c0.083-0.088 0.151-0.128 0.247-0.128 0.113 0 0.173 0.060 0.173 0.164v0.041h-0.233c-0.216 0-0.352 0.104-0.352 0.271 0 0.164 0.124 0.279 0.322 0.279 0.119 0 0.216-0.043 0.284-0.113v0.090h0.233v-0.553zM8.086 7.5c0 0.107-0.085 0.184-0.196 0.184-0.081 0-0.134-0.040-0.134-0.102s0.047-0.094 0.13-0.094h0.2v0.011zM9.711 7.635c-0.066 0.006-0.105 0.008-0.12 0.008-0.12 0-0.173-0.040-0.173-0.145v-0.367h0.264v-0.215h-0.264v-0.235h-0.254v0.235h-0.147v0.215h0.147v0.39c0 0.233 0.137 0.35 0.373 0.35 0.056 0 0.115-0.008 0.175-0.023v-0.213zM10.676 7.294c0-0.258-0.156-0.399-0.399-0.399-0.164 0-0.299 0.064-0.407 0.192l0.132 0.156c0.083-0.088 0.151-0.128 0.247-0.128 0.113 0 0.173 0.060 0.173 0.164v0.041h-0.233c-0.216 0-0.352 0.104-0.352 0.271 0 0.164 0.124 0.279 0.322 0.279 0.119 0 0.216-0.043 0.284-0.113v0.090h0.233v-0.553zM10.422 7.5c0 0.107-0.085 0.184-0.196 0.184-0.081 0-0.134-0.040-0.134-0.102s0.047-0.094 0.13-0.094h0.2v0.011zM10.836 7.69c0.085 0.113 0.222 0.181 0.386 0.181 0.105 0 0.192-0.026 0.26-0.079 0.070-0.053 0.104-0.126 0.104-0.218 0-0.137-0.081-0.211-0.262-0.284l-0.090-0.038c-0.073-0.030-0.098-0.047-0.098-0.083 0-0.043 0.038-0.066 0.1-0.066 0.077 0 0.147 0.030 0.209 0.088l0.128-0.156c-0.085-0.092-0.196-0.139-0.335-0.139-0.203 0-0.343 0.104-0.343 0.279 0 0.137 0.083 0.215 0.254 0.284l0.1 0.041c0.070 0.030 0.096 0.045 0.096 0.085 0 0.051-0.051 0.077-0.119 0.077-0.092 0-0.181-0.041-0.262-0.126l-0.128 0.154zM12.376 7.635c-0.066 0.006-0.105 0.008-0.12 0.008-0.12 0-0.173-0.040-0.173-0.145v-0.367h0.264v-0.215h-0.264v-0.235h-0.254v0.235h-0.147v0.215h0.147v0.39c0 0.233 0.137 0.35 0.373 0.35 0.056 0 0.115-0.008 0.175-0.023v-0.213zM13.399 7.468c0.011-0.047 0.017-0.094 0.017-0.139 0-0.243-0.181-0.433-0.439-0.433-0.269-0.006-0.493 0.218-0.488 0.488-0.006 0.269 0.222 0.493 0.51 0.488 0.137 0 0.262-0.047 0.373-0.139l-0.105-0.173c-0.081 0.062-0.168 0.094-0.26 0.094-0.136 0-0.232-0.066-0.262-0.184h0.653zM12.746 7.289c0.028-0.115 0.115-0.188 0.222-0.188 0.111 0 0.2 0.073 0.201 0.188h-0.424zM14.439 6.786c0-0.105 0.055-0.145 0.169-0.145 0.023 0 0.047 0.002 0.075 0.006v-0.213c-0.043-0.013-0.090-0.021-0.139-0.021-0.224 0-0.36 0.117-0.36 0.35v0.152h-0.132v0.215h0.132v0.717h0.254v-0.717h0.205v-0.215h-0.205v-0.13zM14.732 7.381c-0.006 0.265 0.224 0.493 0.497 0.488 0.273 0.006 0.508-0.222 0.503-0.488 0.006-0.265-0.228-0.489-0.501-0.486-0.273-0.006-0.504 0.22-0.499 0.486zM15.472 7.383c0 0.145-0.104 0.252-0.241 0.252-0.141 0-0.241-0.107-0.241-0.252 0-0.149 0.1-0.256 0.241-0.256 0.137 0 0.241 0.111 0.241 0.256zM16.502 6.916c-0.024-0.008-0.051-0.011-0.083-0.011-0.104 0-0.194 0.045-0.256 0.122v-0.111h-0.233v0.932h0.254v-0.465c0-0.16 0.098-0.243 0.25-0.243h0.068v-0.224zM16.801 7.302c0 0.030 0.008 0.060 0.021 0.090h0.215c-0.002-0.015-0.004-0.028-0.004-0.040 0-0.051 0.028-0.075 0.132-0.166 0.111-0.096 0.156-0.169 0.156-0.275 0-0.196-0.162-0.329-0.371-0.329-0.181 0-0.318 0.098-0.371 0.286l0.207 0.090c0.036-0.096 0.088-0.143 0.156-0.143s0.119 0.047 0.119 0.115c0 0.058-0.026 0.088-0.111 0.158-0.1 0.081-0.149 0.143-0.149 0.213zM16.76 7.695c0 0.1 0.077 0.175 0.177 0.175s0.175-0.075 0.175-0.175c0-0.098-0.075-0.175-0.175-0.175s-0.177 0.077-0.177 0.175z"></path>
<path fill="#0a191e" d="M2.829 21.839h0.492v-0.114h-0.364v-0.681h-0.128v0.795zM3.428 21.591c0 0.159 0.111 0.261 0.259 0.261 0.145 0 0.257-0.102 0.257-0.261v-0.343h-0.127v0.353c0 0.082-0.057 0.135-0.13 0.135-0.077 0-0.134-0.053-0.134-0.135v-0.353h-0.125v0.343zM4.638 21.469c0-0.141-0.083-0.235-0.222-0.235-0.074 0-0.133 0.024-0.177 0.071v-0.058h-0.118v0.591h0.127v-0.353c0-0.081 0.057-0.137 0.135-0.137 0.077 0 0.129 0.055 0.129 0.137v0.353h0.127v-0.37zM4.777 21.542c0 0.172 0.139 0.31 0.313 0.31 0.107 0 0.196-0.052 0.249-0.137l-0.089-0.069c-0.043 0.059-0.096 0.089-0.159 0.089-0.106 0-0.186-0.084-0.186-0.193 0-0.107 0.080-0.192 0.186-0.192 0.064 0 0.117 0.030 0.159 0.090l0.089-0.070c-0.052-0.086-0.14-0.137-0.249-0.137-0.17-0.002-0.317 0.139-0.313 0.308zM5.996 21.469c0-0.14-0.084-0.235-0.219-0.235-0.071 0-0.131 0.025-0.171 0.072v-0.371h-0.127v0.904h0.127v-0.352c0-0.081 0.057-0.137 0.135-0.137s0.129 0.055 0.129 0.137v0.352h0.127v-0.37zM7.164 21.839l-0.239-0.328c0.095-0.037 0.153-0.119 0.153-0.224 0-0.143-0.11-0.243-0.27-0.243h-0.29v0.795h0.128v-0.307h0.146l0.226 0.307h0.146zM6.646 21.157h0.16c0.088 0 0.141 0.053 0.141 0.131 0 0.077-0.053 0.13-0.141 0.13h-0.16v-0.261zM7.785 21.585c0.006-0.028 0.010-0.054 0.010-0.079 0-0.154-0.117-0.271-0.273-0.271-0.167-0.004-0.31 0.14-0.306 0.31 0 0.175 0.137 0.308 0.318 0.308 0.090 0 0.169-0.031 0.236-0.095l-0.060-0.087c-0.053 0.047-0.111 0.070-0.172 0.070-0.101 0-0.177-0.059-0.193-0.155h0.441zM7.346 21.486c0.019-0.088 0.087-0.145 0.17-0.145s0.151 0.054 0.152 0.145h-0.322zM7.884 21.738c0.053 0.069 0.137 0.114 0.239 0.114 0.063 0 0.114-0.016 0.157-0.047 0.042-0.033 0.063-0.077 0.063-0.134 0-0.083-0.049-0.131-0.161-0.178l-0.057-0.023c-0.058-0.024-0.078-0.040-0.078-0.070 0-0.037 0.031-0.057 0.081-0.057 0.052 0 0.101 0.022 0.139 0.060l0.069-0.078c-0.052-0.061-0.119-0.092-0.205-0.092-0.12 0-0.208 0.065-0.208 0.171 0 0.083 0.049 0.129 0.154 0.172l0.060 0.025c0.058 0.024 0.083 0.039 0.083 0.073 0 0.043-0.041 0.066-0.095 0.066-0.063 0-0.114-0.030-0.166-0.084l-0.072 0.079zM8.839 21.732c-0.035 0.004-0.060 0.006-0.078 0.006-0.077 0-0.117-0.026-0.117-0.102v-0.278h0.176v-0.11h-0.176v-0.155h-0.128v0.155h-0.096v0.11h0.096v0.289c0 0.139 0.082 0.206 0.218 0.206 0.030 0 0.065-0.005 0.105-0.013v-0.107zM9.437 21.481c0-0.159-0.096-0.247-0.242-0.247-0.102 0-0.19 0.041-0.249 0.127l0.073 0.075c0.049-0.059 0.098-0.088 0.164-0.088 0.081 0 0.127 0.045 0.127 0.127v0.039h-0.167c-0.134 0-0.218 0.066-0.218 0.169s0.082 0.171 0.206 0.171c0.081 0 0.146-0.028 0.189-0.079v0.066h0.118v-0.358zM9.309 21.615c0 0.081-0.067 0.14-0.153 0.14-0.061 0-0.104-0.029-0.104-0.078 0-0.048 0.037-0.072 0.105-0.072h0.152v0.011zM9.952 21.247c-0.014-0.004-0.030-0.006-0.048-0.006-0.067 0-0.13 0.030-0.172 0.083v-0.077h-0.118v0.591h0.127v-0.316c0-0.105 0.073-0.164 0.173-0.164h0.039v-0.112zM10.523 21.481c0-0.159-0.096-0.247-0.242-0.247-0.102 0-0.19 0.041-0.249 0.127l0.073 0.075c0.049-0.059 0.098-0.088 0.164-0.088 0.081 0 0.127 0.045 0.127 0.127v0.039h-0.167c-0.134 0-0.218 0.066-0.218 0.169s0.082 0.171 0.206 0.171c0.081 0 0.146-0.028 0.189-0.079v0.066h0.118v-0.358zM10.395 21.615c0 0.081-0.067 0.14-0.153 0.14-0.061 0-0.104-0.029-0.104-0.078 0-0.048 0.037-0.072 0.105-0.072h0.152v0.011zM10.693 21.591c0 0.159 0.111 0.261 0.259 0.261 0.145 0 0.257-0.102 0.257-0.261v-0.343h-0.127v0.353c0 0.082-0.057 0.135-0.13 0.135-0.077 0-0.134-0.053-0.134-0.135v-0.353h-0.125v0.343zM11.903 21.469c0-0.141-0.083-0.235-0.222-0.235-0.073 0-0.133 0.024-0.177 0.071v-0.058h-0.118v0.591h0.127v-0.353c0-0.081 0.057-0.137 0.135-0.137 0.077 0 0.129 0.055 0.129 0.137v0.353h0.127v-0.37zM12.431 21.732c-0.035 0.004-0.060 0.006-0.078 0.006-0.077 0-0.117-0.026-0.117-0.102v-0.278h0.176v-0.11h-0.176v-0.155h-0.128v0.155h-0.096v0.11h0.096v0.289c0 0.139 0.082 0.206 0.218 0.206 0.030 0 0.065-0.005 0.105-0.013v-0.107zM12.504 21.738c0.053 0.069 0.137 0.114 0.239 0.114 0.063 0 0.114-0.016 0.157-0.047 0.042-0.033 0.063-0.077 0.063-0.134 0-0.083-0.049-0.131-0.161-0.178l-0.057-0.023c-0.058-0.024-0.078-0.040-0.078-0.070 0-0.037 0.031-0.057 0.081-0.057 0.052 0 0.101 0.022 0.139 0.060l0.069-0.078c-0.052-0.061-0.119-0.092-0.205-0.092-0.12 0-0.208 0.065-0.208 0.171 0 0.083 0.049 0.129 0.154 0.172l0.060 0.025c0.058 0.024 0.083 0.039 0.083 0.073 0 0.043-0.041 0.066-0.095 0.066-0.063 0-0.114-0.030-0.166-0.084l-0.072 0.079zM13.981 21.044v0.536l-0.483-0.549h-0.045v0.808h0.128v-0.538l0.484 0.552h0.043v-0.808h-0.128zM14.828 21.585c0.006-0.028 0.010-0.054 0.010-0.079 0-0.154-0.117-0.271-0.273-0.271-0.167-0.004-0.31 0.14-0.306 0.31 0 0.175 0.137 0.308 0.318 0.308 0.090 0 0.169-0.031 0.236-0.095l-0.060-0.087c-0.053 0.047-0.111 0.070-0.172 0.070-0.101 0-0.177-0.059-0.193-0.155h0.441zM14.39 21.486c0.019-0.088 0.087-0.145 0.17-0.145s0.151 0.054 0.152 0.145h-0.322zM15.452 21.481c0-0.159-0.096-0.247-0.242-0.247-0.102 0-0.19 0.041-0.249 0.127l0.073 0.075c0.049-0.059 0.098-0.088 0.164-0.088 0.081 0 0.127 0.045 0.127 0.127v0.039h-0.167c-0.134 0-0.218 0.066-0.218 0.169s0.082 0.171 0.206 0.171c0.081 0 0.146-0.028 0.189-0.079v0.066h0.118v-0.358zM15.325 21.615c0 0.081-0.067 0.14-0.153 0.14-0.061 0-0.104-0.029-0.104-0.078 0-0.048 0.037-0.072 0.105-0.072h0.152v0.011zM15.967 21.247c-0.014-0.004-0.030-0.006-0.048-0.006-0.067 0-0.13 0.030-0.172 0.083v-0.077h-0.118v0.591h0.127v-0.316c0-0.105 0.073-0.164 0.173-0.164h0.039v-0.112zM16.99 21.044h-0.141l-0.198 0.346-0.196-0.346h-0.142l0.275 0.475v0.32h0.128v-0.32l0.275-0.475zM16.981 21.542c-0.004 0.167 0.142 0.313 0.312 0.31 0.172 0.004 0.318-0.142 0.314-0.31 0.004-0.167-0.142-0.312-0.314-0.308-0.17-0.002-0.316 0.139-0.312 0.308zM17.477 21.544c0 0.107-0.079 0.192-0.184 0.192-0.104 0-0.183-0.082-0.183-0.192s0.079-0.194 0.184-0.194c0.102 0 0.183 0.084 0.183 0.194zM17.746 21.591c0 0.159 0.111 0.261 0.259 0.261 0.145 0 0.257-0.102 0.257-0.261v-0.343h-0.127v0.353c0 0.082-0.057 0.135-0.13 0.135-0.077 0-0.134-0.053-0.134-0.135v-0.353h-0.125v0.343z"></path>
<path fill="#000" d="M2.77 11.487c0.047 0.079 0.124 0.127 0.214 0.127 0.105 0 0.185-0.064 0.185-0.158 0-0.079-0.044-0.12-0.137-0.164l-0.067-0.033c-0.071-0.035-0.102-0.052-0.106-0.116 0-0.033 0.013-0.059 0.037-0.076s0.054-0.025 0.088-0.025c0.058 0 0.108 0.027 0.144 0.078l0.035-0.026c-0.039-0.058-0.103-0.095-0.179-0.095-0.095 0-0.173 0.056-0.173 0.147 0.004 0.087 0.057 0.12 0.132 0.155l0.068 0.033c0.079 0.040 0.108 0.059 0.11 0.123 0 0.070-0.056 0.113-0.136 0.113s-0.137-0.042-0.18-0.108l-0.035 0.026zM3.693 11.397c0.003-0.010 0.004-0.024 0.004-0.043 0-0.117-0.088-0.194-0.195-0.194-0.12-0.003-0.223 0.104-0.22 0.228-0.003 0.124 0.102 0.229 0.226 0.227 0.070 0 0.132-0.031 0.175-0.081l-0.029-0.030c-0.039 0.046-0.088 0.069-0.145 0.069-0.099 0-0.174-0.072-0.18-0.174h0.365zM3.33 11.356c0.006-0.045 0.025-0.082 0.057-0.111s0.069-0.044 0.113-0.044c0.084 0 0.154 0.061 0.15 0.155h-0.32zM4.142 11.331c0-0.111-0.065-0.172-0.164-0.172-0.070 0-0.125 0.030-0.167 0.090l0.032 0.025c0.037-0.048 0.078-0.073 0.133-0.073 0.073 0 0.12 0.044 0.12 0.127v0.050h-0.152c-0.091 0-0.152 0.045-0.152 0.117 0 0.037 0.014 0.067 0.043 0.088s0.064 0.031 0.107 0.031c0.069 0 0.125-0.028 0.156-0.078v0.069h0.043v-0.274zM4.096 11.442c0 0.075-0.069 0.132-0.149 0.132-0.059 0-0.108-0.028-0.108-0.081 0-0.048 0.038-0.075 0.109-0.075h0.147v0.024zM4.519 11.168c-0.005 0-0.016-0.003-0.028-0.003-0.061 0-0.113 0.026-0.145 0.077v-0.074h-0.043v0.436h0.045v-0.257c0-0.088 0.073-0.14 0.148-0.14h0.023v-0.040zM4.577 11.386c-0.003 0.124 0.102 0.23 0.225 0.228 0.073 0 0.136-0.034 0.177-0.089l-0.033-0.026c-0.038 0.049-0.086 0.073-0.145 0.073-0.1 0-0.178-0.081-0.178-0.185 0-0.102 0.078-0.184 0.179-0.184 0.059 0 0.107 0.024 0.144 0.073l0.033-0.026c-0.041-0.055-0.103-0.089-0.176-0.089-0.124-0.003-0.229 0.103-0.226 0.227zM5.451 11.329c0-0.101-0.061-0.17-0.159-0.17-0.061 0-0.108 0.025-0.138 0.069v-0.301h-0.045v0.678h0.045v-0.272c0-0.076 0.054-0.131 0.13-0.131s0.122 0.052 0.122 0.131v0.272h0.045v-0.276zM5.918 11.051c0-0.066 0.036-0.091 0.095-0.091 0.014 0 0.028 0.001 0.042 0.004v-0.040c-0.015-0.004-0.033-0.005-0.050-0.005-0.080 0-0.132 0.041-0.132 0.131v0.119h-0.063v0.042h0.063v0.395h0.045v-0.395h0.115v-0.042h-0.115v-0.117zM6.089 11.386c-0.003 0.124 0.102 0.23 0.225 0.228 0.124 0.003 0.229-0.104 0.227-0.228 0-0.126-0.101-0.227-0.226-0.227-0.124-0.003-0.229 0.101-0.226 0.227zM6.494 11.387c0 0.103-0.080 0.184-0.18 0.184s-0.178-0.081-0.178-0.184c0-0.105 0.078-0.185 0.179-0.185 0.099 0 0.179 0.080 0.179 0.185zM6.892 11.168c-0.005 0-0.016-0.003-0.028-0.003-0.061 0-0.113 0.026-0.145 0.077v-0.074h-0.043v0.436h0.045v-0.257c0-0.088 0.073-0.14 0.148-0.14h0.023v-0.040zM7.555 11.331c0-0.111-0.065-0.172-0.164-0.172-0.070 0-0.125 0.030-0.167 0.090l0.032 0.025c0.037-0.048 0.078-0.073 0.133-0.073 0.073 0 0.12 0.044 0.12 0.127v0.050h-0.152c-0.091 0-0.152 0.045-0.152 0.117 0 0.037 0.014 0.067 0.043 0.088s0.064 0.031 0.107 0.031c0.069 0 0.125-0.028 0.156-0.078v0.069h0.043v-0.274zM7.509 11.442c0 0.075-0.069 0.132-0.149 0.132-0.059 0-0.108-0.028-0.108-0.081 0-0.048 0.038-0.075 0.109-0.075h0.147v0.024zM8.185 11.168c-0.005 0-0.016-0.003-0.028-0.003-0.061 0-0.113 0.026-0.145 0.077v-0.074h-0.043v0.436h0.045v-0.257c0-0.088 0.073-0.14 0.148-0.14h0.023v-0.040zM8.655 11.397c0.003-0.010 0.004-0.024 0.004-0.043 0-0.117-0.088-0.194-0.195-0.194-0.12-0.003-0.223 0.104-0.22 0.228-0.003 0.124 0.102 0.229 0.226 0.227 0.070 0 0.132-0.031 0.175-0.081l-0.029-0.030c-0.039 0.046-0.088 0.069-0.145 0.069-0.098 0-0.174-0.072-0.18-0.174h0.365zM8.292 11.356c0.006-0.045 0.025-0.082 0.057-0.111s0.069-0.044 0.113-0.044c0.084 0 0.154 0.061 0.15 0.155h-0.32zM8.751 11.523c0.037 0.054 0.095 0.090 0.167 0.090 0.041 0 0.075-0.011 0.103-0.032s0.042-0.051 0.042-0.089c0-0.061-0.040-0.093-0.113-0.126l-0.041-0.018c-0.059-0.025-0.082-0.042-0.082-0.079 0-0.044 0.038-0.069 0.089-0.069 0.042 0 0.080 0.019 0.114 0.056l0.030-0.029c-0.033-0.042-0.080-0.070-0.141-0.070-0.039 0-0.071 0.010-0.098 0.031s-0.041 0.048-0.041 0.083c0 0.057 0.039 0.087 0.108 0.117l0.040 0.017c0.061 0.028 0.085 0.040 0.089 0.088 0 0.050-0.042 0.077-0.098 0.077s-0.097-0.027-0.136-0.078l-0.032 0.030zM9.423 11.565c-0.023 0.005-0.043 0.007-0.061 0.007-0.059 0-0.095-0.025-0.095-0.091v-0.271h0.141v-0.042h-0.141v-0.124h-0.046v0.124h-0.076v0.042h0.076v0.273c0 0.090 0.052 0.131 0.134 0.131 0.023 0 0.045-0.003 0.068-0.009v-0.040zM9.843 11.331c0-0.111-0.065-0.172-0.164-0.172-0.070 0-0.125 0.030-0.167 0.090l0.032 0.025c0.037-0.048 0.078-0.073 0.133-0.073 0.073 0 0.12 0.044 0.12 0.127v0.050h-0.152c-0.091 0-0.152 0.045-0.152 0.117 0 0.037 0.014 0.067 0.043 0.088s0.064 0.031 0.107 0.031c0.069 0 0.125-0.028 0.156-0.078v0.069h0.043v-0.274zM9.797 11.442c0 0.075-0.069 0.132-0.149 0.132-0.059 0-0.108-0.028-0.108-0.081 0-0.048 0.038-0.075 0.109-0.075h0.147v0.024zM10.22 11.168c-0.005 0-0.016-0.003-0.028-0.003-0.061 0-0.113 0.026-0.145 0.077v-0.074h-0.043v0.436h0.045v-0.257c0-0.088 0.073-0.14 0.148-0.14h0.023v-0.040zM10.621 11.331c0-0.111-0.065-0.172-0.164-0.172-0.070 0-0.125 0.030-0.167 0.090l0.032 0.025c0.037-0.048 0.078-0.073 0.133-0.073 0.073 0 0.12 0.044 0.12 0.127v0.050h-0.152c-0.091 0-0.152 0.045-0.152 0.117 0 0.037 0.014 0.067 0.043 0.088s0.064 0.031 0.107 0.031c0.069 0 0.125-0.028 0.156-0.078v0.069h0.043v-0.274zM10.575 11.442c0 0.075-0.069 0.132-0.149 0.132-0.059 0-0.108-0.028-0.108-0.081 0-0.048 0.038-0.075 0.109-0.075h0.147v0.024zM10.776 11.439c0 0.106 0.075 0.174 0.172 0.174s0.171-0.069 0.171-0.174v-0.271h-0.045v0.273c0 0.079-0.054 0.13-0.126 0.13s-0.127-0.051-0.127-0.13v-0.273h-0.045v0.271zM11.622 11.329c0-0.101-0.060-0.17-0.16-0.17-0.061 0-0.109 0.024-0.139 0.068v-0.059h-0.043v0.436h0.045v-0.273c0-0.037 0.012-0.069 0.036-0.093s0.056-0.037 0.094-0.037c0.075 0 0.122 0.053 0.122 0.13v0.273h0.045v-0.276zM12.002 11.565c-0.023 0.005-0.043 0.007-0.061 0.007-0.059 0-0.095-0.025-0.095-0.091v-0.271h0.141v-0.042h-0.141v-0.124h-0.046v0.124h-0.076v0.042h0.076v0.273c0 0.090 0.052 0.131 0.134 0.131 0.023 0 0.045-0.003 0.068-0.009v-0.040z"></path>
<path fill="#0a191e" d="M3.098 19.245h0.187c0.194 0 0.324-0.126 0.324-0.299 0-0.176-0.129-0.297-0.324-0.297h-0.187v0.596zM3.193 19.16v-0.424h0.090c0.139 0 0.227 0.084 0.227 0.211 0 0.125-0.089 0.213-0.227 0.213h-0.090zM3.717 19.245h0.095v-0.444h-0.095v0.444zM3.7 18.636c0 0.035 0.029 0.062 0.065 0.062s0.064-0.027 0.064-0.062-0.029-0.063-0.064-0.063c-0.036 0-0.065 0.028-0.065 0.063zM4.336 18.968c0-0.106-0.062-0.176-0.166-0.176-0.055 0-0.099 0.018-0.133 0.053v-0.043h-0.089v0.444h0.095v-0.265c0-0.061 0.042-0.103 0.101-0.103s0.097 0.042 0.097 0.103v0.265h0.095v-0.277zM4.856 18.968c0-0.106-0.062-0.176-0.166-0.176-0.055 0-0.099 0.018-0.133 0.053v-0.043h-0.089v0.444h0.095v-0.265c0-0.061 0.042-0.103 0.101-0.103s0.097 0.042 0.097 0.103v0.265h0.095v-0.277zM5.388 19.055c0.005-0.021 0.007-0.041 0.007-0.060 0-0.116-0.088-0.203-0.205-0.203-0.126-0.003-0.232 0.105-0.229 0.232 0 0.131 0.103 0.231 0.239 0.231 0.068 0 0.127-0.023 0.177-0.071l-0.045-0.065c-0.040 0.035-0.083 0.052-0.129 0.052-0.076 0-0.133-0.044-0.145-0.117h0.331zM5.059 18.981c0.014-0.066 0.065-0.108 0.127-0.108s0.113 0.041 0.114 0.108h-0.241zM5.757 18.802c-0.011-0.003-0.023-0.005-0.036-0.005-0.051 0-0.098 0.023-0.129 0.062v-0.058h-0.089v0.444h0.095v-0.237c0-0.079 0.055-0.123 0.13-0.123h0.029v-0.084z"></path>
<path fill="#0a191e" d="M8.858 19.245h0.369v-0.086h-0.273v-0.511h-0.096v0.596zM9.307 19.059c0 0.119 0.083 0.196 0.194 0.196 0.108 0 0.192-0.077 0.192-0.196v-0.258h-0.095v0.265c0 0.061-0.042 0.101-0.098 0.101-0.058 0-0.1-0.040-0.1-0.101v-0.265h-0.094v0.258zM10.215 18.968c0-0.106-0.062-0.176-0.166-0.176-0.055 0-0.099 0.018-0.133 0.053v-0.043h-0.089v0.444h0.095v-0.265c0-0.061 0.042-0.103 0.101-0.103s0.097 0.042 0.097 0.103v0.265h0.095v-0.277zM10.319 19.023c0 0.129 0.104 0.232 0.235 0.232 0.080 0 0.147-0.039 0.187-0.103l-0.067-0.052c-0.033 0.044-0.072 0.067-0.119 0.067-0.079 0-0.139-0.063-0.139-0.145s0.060-0.144 0.139-0.144c0.048 0 0.088 0.023 0.119 0.068l0.067-0.052c-0.039-0.064-0.105-0.103-0.187-0.103-0.127-0.002-0.238 0.104-0.235 0.231zM11.233 18.968c0-0.105-0.063-0.176-0.164-0.176-0.053 0-0.098 0.019-0.128 0.054v-0.278h-0.095v0.678h0.095v-0.264c0-0.061 0.042-0.103 0.101-0.103s0.097 0.042 0.097 0.103v0.264h0.095v-0.277z"></path>
<path fill="#0a191e" d="M14.479 19.072c0-0.073-0.042-0.129-0.111-0.152 0.033-0.028 0.050-0.066 0.050-0.112 0-0.092-0.071-0.159-0.179-0.159h-0.209v0.596h0.256c0.117 0 0.193-0.073 0.193-0.173zM14.23 18.733c0.059 0 0.092 0.030 0.092 0.079s-0.033 0.081-0.092 0.081h-0.106v-0.161h0.106zM14.382 19.069c0 0.057-0.039 0.092-0.105 0.092h-0.154v-0.185h0.154c0.066 0 0.105 0.036 0.105 0.093zM14.836 18.802c-0.011-0.003-0.023-0.005-0.036-0.005-0.051 0-0.098 0.023-0.129 0.062v-0.058h-0.089v0.444h0.095v-0.237c0-0.079 0.055-0.123 0.13-0.123h0.029v-0.084zM15.312 19.055c0.005-0.021 0.007-0.041 0.007-0.060 0-0.116-0.088-0.203-0.205-0.203-0.126-0.003-0.232 0.105-0.229 0.232 0 0.131 0.103 0.231 0.239 0.231 0.068 0 0.127-0.023 0.177-0.071l-0.045-0.065c-0.040 0.035-0.083 0.052-0.129 0.052-0.076 0-0.133-0.044-0.145-0.117h0.331zM14.983 18.981c0.014-0.066 0.065-0.108 0.127-0.108s0.113 0.041 0.114 0.108h-0.241zM15.78 18.977c0-0.119-0.072-0.185-0.182-0.185-0.077 0-0.143 0.031-0.187 0.095l0.055 0.056c0.037-0.044 0.073-0.066 0.123-0.066 0.061 0 0.095 0.033 0.095 0.095v0.029h-0.126c-0.1 0-0.164 0.050-0.164 0.127s0.061 0.128 0.155 0.128c0.061 0 0.109-0.021 0.142-0.060v0.050h0.089v-0.268zM15.684 19.077c0 0.061-0.051 0.105-0.115 0.105-0.046 0-0.078-0.022-0.078-0.059s0.028-0.054 0.079-0.054h0.114v0.008zM15.912 19.245h0.095v-0.678h-0.095v0.678zM16.121 18.997l0.179-0.195h-0.117l-0.173 0.194 0.192 0.249h0.114l-0.194-0.248zM16.505 18.72c0-0.057 0.029-0.077 0.087-0.077 0.011 0 0.023 0.001 0.038 0.003v-0.080c-0.017-0.005-0.037-0.008-0.061-0.008-0.098 0-0.158 0.051-0.158 0.154v0.089h-0.063v0.082h0.063v0.361h0.095v-0.361h0.105v-0.082h-0.105v-0.081zM17.037 18.977c0-0.119-0.072-0.185-0.182-0.185-0.077 0-0.143 0.031-0.187 0.095l0.055 0.056c0.037-0.044 0.073-0.066 0.123-0.066 0.061 0 0.095 0.033 0.095 0.095v0.029h-0.126c-0.1 0-0.164 0.050-0.164 0.127s0.061 0.128 0.154 0.128c0.061 0 0.109-0.021 0.142-0.060v0.050h0.089v-0.268zM16.941 19.077c0 0.061-0.051 0.105-0.115 0.105-0.046 0-0.078-0.022-0.078-0.059s0.028-0.054 0.079-0.054h0.114v0.008zM17.128 19.169c0.040 0.052 0.103 0.086 0.179 0.086 0.047 0 0.086-0.012 0.117-0.035s0.047-0.058 0.047-0.1c0-0.062-0.037-0.099-0.121-0.134l-0.042-0.017c-0.043-0.018-0.059-0.030-0.059-0.052 0-0.028 0.023-0.042 0.061-0.042 0.039 0 0.076 0.016 0.104 0.045l0.052-0.059c-0.039-0.046-0.089-0.069-0.154-0.069-0.090 0-0.156 0.049-0.156 0.128 0 0.062 0.037 0.097 0.116 0.129l0.045 0.019c0.043 0.018 0.062 0.029 0.062 0.055 0 0.033-0.031 0.050-0.071 0.050-0.047 0-0.086-0.023-0.125-0.063l-0.054 0.060zM17.844 19.165c-0.026 0.003-0.045 0.005-0.059 0.005-0.058 0-0.088-0.020-0.088-0.077v-0.209h0.132v-0.082h-0.132v-0.117h-0.096v0.117h-0.072v0.082h0.072v0.217c0 0.104 0.061 0.154 0.164 0.154 0.023 0 0.049-0.004 0.079-0.010v-0.080z"></path>
<path fill="#0a191e" d="M19.966 19.245h0.187c0.194 0 0.324-0.126 0.324-0.299 0-0.176-0.129-0.297-0.324-0.297h-0.187v0.596zM20.062 19.16v-0.424h0.090c0.139 0 0.227 0.084 0.227 0.211 0 0.125-0.089 0.213-0.227 0.213h-0.090zM20.985 19.055c0.005-0.021 0.007-0.041 0.007-0.060 0-0.116-0.088-0.203-0.205-0.203-0.126-0.003-0.232 0.105-0.23 0.232 0 0.131 0.103 0.231 0.239 0.231 0.068 0 0.127-0.023 0.177-0.071l-0.045-0.065c-0.040 0.035-0.083 0.052-0.129 0.052-0.076 0-0.133-0.044-0.145-0.117h0.331zM20.656 18.981c0.014-0.066 0.065-0.108 0.127-0.108s0.113 0.041 0.114 0.108h-0.241zM21.059 19.169c0.040 0.052 0.103 0.086 0.179 0.086 0.047 0 0.086-0.012 0.117-0.035s0.047-0.058 0.047-0.1c0-0.062-0.037-0.099-0.121-0.134l-0.042-0.017c-0.043-0.018-0.059-0.030-0.059-0.052 0-0.028 0.023-0.042 0.061-0.042 0.039 0 0.076 0.016 0.104 0.045l0.052-0.059c-0.039-0.046-0.089-0.069-0.154-0.069-0.090 0-0.156 0.049-0.156 0.128 0 0.062 0.037 0.097 0.116 0.129l0.045 0.019c0.043 0.018 0.062 0.029 0.062 0.055 0 0.033-0.031 0.050-0.071 0.050-0.047 0-0.086-0.023-0.125-0.063l-0.054 0.060zM21.47 19.169c0.040 0.052 0.103 0.086 0.179 0.086 0.047 0 0.086-0.012 0.117-0.035s0.047-0.058 0.047-0.1c0-0.062-0.037-0.099-0.121-0.134l-0.042-0.017c-0.043-0.018-0.059-0.030-0.059-0.052 0-0.028 0.023-0.042 0.061-0.042 0.039 0 0.076 0.016 0.104 0.045l0.052-0.059c-0.039-0.046-0.089-0.069-0.154-0.069-0.090 0-0.156 0.049-0.156 0.128 0 0.062 0.037 0.097 0.116 0.129l0.045 0.019c0.043 0.018 0.062 0.029 0.062 0.055 0 0.033-0.031 0.050-0.071 0.050-0.047 0-0.086-0.023-0.125-0.063l-0.054 0.060zM22.322 19.055c0.005-0.021 0.007-0.041 0.007-0.060 0-0.116-0.088-0.203-0.205-0.203-0.126-0.003-0.232 0.105-0.23 0.232 0 0.131 0.103 0.231 0.239 0.231 0.068 0 0.127-0.023 0.177-0.071l-0.045-0.065c-0.040 0.035-0.083 0.052-0.129 0.052-0.076 0-0.133-0.044-0.145-0.117h0.331zM21.994 18.981c0.014-0.066 0.065-0.108 0.127-0.108s0.113 0.041 0.114 0.108h-0.241zM22.692 18.802c-0.011-0.003-0.023-0.005-0.036-0.005-0.051 0-0.098 0.023-0.129 0.062v-0.058h-0.089v0.444h0.095v-0.237c0-0.079 0.055-0.123 0.13-0.123h0.029v-0.084zM23.041 19.165c-0.026 0.003-0.045 0.005-0.059 0.005-0.058 0-0.088-0.020-0.088-0.077v-0.209h0.132v-0.082h-0.132v-0.117h-0.096v0.117h-0.072v0.082h0.072v0.217c0 0.104 0.061 0.154 0.164 0.154 0.023 0 0.049-0.004 0.079-0.010v-0.080z"></path>
<path fill="#798184" d="M2.957 7.952l-0.207 0.068 0.023 0.084 0.121-0.039v0.483h0.096v-0.596h-0.033zM3.298 8.465l0.105-0.111c0.042-0.044 0.073-0.082 0.094-0.116s0.033-0.070 0.033-0.111c0-0.105-0.084-0.185-0.198-0.185-0.122 0-0.201 0.093-0.201 0.191 0 0.018 0.002 0.035 0.006 0.052h0.097c-0.003-0.018-0.005-0.033-0.005-0.046 0-0.061 0.041-0.108 0.101-0.108s0.099 0.044 0.099 0.105c0 0.051-0.029 0.094-0.095 0.164l-0.212 0.229v0.022h0.427v-0.083h-0.252zM4.089 8.362h-0.081v-0.183h-0.096v0.183h-0.178l0.169-0.41h-0.099l-0.191 0.466v0.026h0.298v0.104h0.096v-0.104h0.081v-0.082zM4.16 8.245c0 0.176 0.075 0.314 0.228 0.314s0.227-0.137 0.227-0.314c0-0.091-0.019-0.164-0.058-0.22s-0.094-0.083-0.169-0.083-0.131 0.028-0.17 0.084c-0.039 0.055-0.058 0.128-0.058 0.219zM4.515 8.246c0 0.141-0.040 0.225-0.127 0.225s-0.128-0.084-0.128-0.225c0-0.144 0.042-0.216 0.128-0.216s0.127 0.072 0.127 0.216zM5.482 8.548l-0.179-0.246c0.071-0.028 0.115-0.089 0.115-0.168 0-0.108-0.082-0.183-0.202-0.183h-0.218v0.596h0.096v-0.23h0.109l0.17 0.23h0.109zM5.094 8.037h0.12c0.066 0 0.106 0.040 0.106 0.098s-0.040 0.098-0.106 0.098h-0.12v-0.196zM5.948 8.358c0.005-0.021 0.007-0.041 0.007-0.060 0-0.116-0.088-0.203-0.205-0.203-0.126-0.003-0.232 0.105-0.229 0.232 0 0.131 0.103 0.231 0.239 0.231 0.068 0 0.127-0.024 0.177-0.071l-0.045-0.065c-0.040 0.035-0.083 0.052-0.129 0.052-0.076 0-0.133-0.044-0.145-0.117h0.331zM5.619 8.283c0.014-0.066 0.065-0.108 0.127-0.108s0.113 0.041 0.114 0.108h-0.241zM6.022 8.472c0.040 0.052 0.103 0.086 0.179 0.086 0.047 0 0.086-0.012 0.117-0.035s0.047-0.058 0.047-0.1c0-0.062-0.037-0.098-0.121-0.134l-0.042-0.017c-0.043-0.018-0.059-0.030-0.059-0.052 0-0.028 0.024-0.042 0.061-0.042 0.039 0 0.076 0.016 0.104 0.045l0.051-0.059c-0.039-0.046-0.089-0.069-0.154-0.069-0.090 0-0.156 0.049-0.156 0.128 0 0.062 0.037 0.097 0.116 0.129l0.045 0.019c0.043 0.018 0.062 0.029 0.062 0.055 0 0.033-0.031 0.050-0.071 0.050-0.047 0-0.086-0.023-0.125-0.063l-0.054 0.060zM6.739 8.468c-0.026 0.003-0.045 0.005-0.059 0.005-0.058 0-0.088-0.020-0.088-0.077v-0.209h0.132v-0.082h-0.132v-0.117h-0.096v0.117h-0.072v0.082h0.072v0.217c0 0.104 0.061 0.155 0.164 0.155 0.023 0 0.049-0.004 0.079-0.010v-0.080zM7.187 8.28c0-0.119-0.072-0.185-0.182-0.185-0.077 0-0.143 0.031-0.187 0.095l0.055 0.056c0.037-0.044 0.073-0.066 0.123-0.066 0.061 0 0.095 0.033 0.095 0.095v0.029h-0.126c-0.1 0-0.164 0.050-0.164 0.127s0.061 0.128 0.154 0.128c0.061 0 0.109-0.021 0.142-0.060v0.050h0.089v-0.268zM7.092 8.38c0 0.061-0.051 0.105-0.115 0.105-0.046 0-0.078-0.022-0.078-0.059s0.028-0.054 0.079-0.054h0.114v0.008zM7.573 8.105c-0.011-0.003-0.023-0.005-0.036-0.005-0.051 0-0.098 0.023-0.129 0.062v-0.058h-0.089v0.444h0.095v-0.237c0-0.079 0.055-0.123 0.13-0.123h0.029v-0.084zM8.002 8.28c0-0.119-0.072-0.185-0.182-0.185-0.077 0-0.143 0.031-0.187 0.095l0.055 0.056c0.037-0.044 0.073-0.066 0.123-0.066 0.061 0 0.095 0.033 0.095 0.095v0.029h-0.126c-0.1 0-0.164 0.050-0.164 0.127s0.061 0.128 0.154 0.128c0.061 0 0.109-0.021 0.142-0.060v0.050h0.089v-0.268zM7.906 8.38c0 0.061-0.051 0.105-0.115 0.105-0.046 0-0.078-0.022-0.078-0.059s0.028-0.054 0.079-0.054h0.114v0.008zM8.129 8.362c0 0.119 0.083 0.196 0.194 0.196 0.108 0 0.192-0.077 0.192-0.196v-0.258h-0.095v0.265c0 0.061-0.042 0.101-0.098 0.101-0.058 0-0.1-0.040-0.1-0.101v-0.265h-0.094v0.258zM9.037 8.271c0-0.106-0.062-0.176-0.166-0.176-0.055 0-0.099 0.018-0.133 0.053v-0.043h-0.089v0.444h0.095v-0.265c0-0.061 0.042-0.103 0.101-0.103s0.097 0.042 0.097 0.103v0.265h0.095v-0.277zM9.433 8.468c-0.026 0.003-0.045 0.005-0.059 0.005-0.058 0-0.088-0.020-0.088-0.077v-0.209h0.132v-0.082h-0.132v-0.117h-0.096v0.117h-0.072v0.082h0.072v0.217c0 0.104 0.061 0.155 0.164 0.155 0.023 0 0.049-0.004 0.079-0.010v-0.080zM9.487 8.472c0.040 0.052 0.103 0.086 0.179 0.086 0.047 0 0.086-0.012 0.117-0.035s0.047-0.058 0.047-0.1c0-0.062-0.037-0.098-0.121-0.134l-0.042-0.017c-0.043-0.018-0.059-0.030-0.059-0.052 0-0.028 0.024-0.042 0.061-0.042 0.039 0 0.076 0.016 0.104 0.045l0.052-0.059c-0.039-0.046-0.089-0.069-0.154-0.069-0.090 0-0.156 0.049-0.156 0.128 0 0.062 0.037 0.097 0.116 0.129l0.045 0.019c0.043 0.018 0.062 0.029 0.062 0.055 0 0.033-0.031 0.050-0.071 0.050-0.047 0-0.086-0.023-0.125-0.063l-0.054 0.060zM10.546 8.28c0-0.119-0.072-0.185-0.182-0.185-0.077 0-0.143 0.031-0.187 0.095l0.055 0.056c0.037-0.044 0.073-0.066 0.123-0.066 0.061 0 0.095 0.033 0.095 0.095v0.029h-0.126c-0.1 0-0.164 0.050-0.164 0.127s0.061 0.128 0.155 0.128c0.061 0 0.109-0.021 0.142-0.060v0.050h0.089v-0.268zM10.45 8.38c0 0.061-0.051 0.105-0.115 0.105-0.046 0-0.078-0.022-0.078-0.059s0.028-0.054 0.079-0.054h0.114v0.008zM10.969 8.105l-0.129 0.294-0.13-0.294h-0.101l0.215 0.454h0.033l0.214-0.454h-0.101zM11.491 8.28c0-0.119-0.072-0.185-0.182-0.185-0.077 0-0.143 0.031-0.187 0.095l0.055 0.056c0.037-0.044 0.073-0.066 0.123-0.066 0.061 0 0.095 0.033 0.095 0.095v0.029h-0.126c-0.1 0-0.164 0.050-0.164 0.127s0.061 0.128 0.155 0.128c0.061 0 0.109-0.021 0.142-0.060v0.050h0.089v-0.268zM11.395 8.38c0 0.061-0.051 0.105-0.115 0.105-0.046 0-0.078-0.022-0.078-0.059s0.028-0.054 0.079-0.054h0.114v0.008zM11.623 8.548h0.095v-0.444h-0.095v0.444zM11.605 7.939c0 0.035 0.029 0.062 0.065 0.062s0.064-0.027 0.064-0.062-0.029-0.063-0.064-0.063c-0.036 0-0.065 0.028-0.065 0.063zM11.855 8.548h0.095v-0.678h-0.095v0.678zM12.439 8.28c0-0.119-0.072-0.185-0.182-0.185-0.077 0-0.143 0.031-0.187 0.095l0.055 0.056c0.037-0.044 0.073-0.066 0.123-0.066 0.061 0 0.095 0.033 0.095 0.095v0.029h-0.126c-0.1 0-0.164 0.050-0.164 0.127s0.061 0.128 0.155 0.128c0.061 0 0.109-0.021 0.142-0.060v0.050h0.089v-0.268zM12.343 8.38c0 0.061-0.051 0.105-0.115 0.105-0.046 0-0.078-0.022-0.078-0.059s0.028-0.054 0.079-0.054h0.114v0.008zM13.032 8.327c0-0.132-0.092-0.232-0.218-0.232-0.061 0-0.115 0.024-0.148 0.064v-0.288h-0.095v0.678h0.089v-0.061c0.033 0.046 0.090 0.071 0.155 0.071 0.124 0 0.217-0.1 0.217-0.231zM12.934 8.326c0 0.085-0.059 0.145-0.136 0.145-0.070 0-0.134-0.048-0.134-0.145s0.064-0.145 0.134-0.145c0.076 0 0.136 0.060 0.136 0.145zM13.141 8.548h0.095v-0.678h-0.095v0.678zM13.773 8.358c0.005-0.021 0.007-0.041 0.007-0.060 0-0.116-0.088-0.203-0.205-0.203-0.126-0.003-0.232 0.105-0.229 0.232 0 0.131 0.103 0.231 0.239 0.231 0.068 0 0.127-0.024 0.177-0.071l-0.045-0.065c-0.040 0.035-0.083 0.052-0.129 0.052-0.076 0-0.133-0.044-0.145-0.117h0.331zM13.444 8.283c0.014-0.066 0.065-0.108 0.127-0.108s0.113 0.041 0.114 0.108h-0.241z"></path>
<path fill="#fff" d="M20.379 5.428l0.122-0.13c0.049-0.052 0.085-0.096 0.11-0.135 0.025-0.039 0.038-0.082 0.038-0.13 0-0.122-0.098-0.216-0.231-0.216-0.142 0-0.234 0.109-0.234 0.222 0 0.021 0.002 0.041 0.007 0.060h0.113c-0.003-0.021-0.005-0.039-0.005-0.054 0-0.072 0.047-0.127 0.118-0.127s0.116 0.052 0.116 0.122c0 0.059-0.034 0.11-0.111 0.191l-0.248 0.267v0.025h0.499v-0.097h-0.294z"></path>
<path fill="#f1f2f6" d="M2.611 22.708h18.985c0.325 0 0.588 0.263 0.588 0.588v11.226c0 0.325-0.263 0.588-0.588 0.588h-18.985c-0.325 0-0.588-0.263-0.588-0.588v-11.226c0-0.325 0.263-0.588 0.588-0.588z"></path>
<path fill="#000" d="M3.081 23.119h18.162c0.325 0 0.588 0.263 0.588 0.588v6.583c0 0.325-0.263 0.588-0.588 0.588h-18.162c-0.325 0-0.588-0.263-0.588-0.588v-6.583c0-0.325 0.263-0.588 0.588-0.588z"></path>
<path fill="#f1f2f6" opacity="0.35" d="M4.022 27.762h2.586c0.325 0 0.588 0.263 0.588 0.588v0.882c0 0.325-0.263 0.588-0.588 0.588h-2.586c-0.325 0-0.588-0.263-0.588-0.588v-0.882c0-0.325 0.263-0.588 0.588-0.588z"></path>
<path fill="#0a191e" d="M3.259 31.631v0.415l-0.404-0.428h-0.046v0.708h0.142v-0.417l0.403 0.43h0.047v-0.708h-0.142zM3.516 32.065c-0.003 0.149 0.125 0.276 0.278 0.273 0.153 0.003 0.285-0.124 0.281-0.273 0.003-0.149-0.128-0.274-0.28-0.272-0.153-0.003-0.283 0.123-0.279 0.272zM3.93 32.066c0 0.081-0.058 0.141-0.135 0.141-0.079 0-0.135-0.060-0.135-0.141 0-0.083 0.056-0.143 0.135-0.143 0.077 0 0.135 0.062 0.135 0.143zM4.624 32.017c0-0.144-0.088-0.223-0.223-0.223-0.092 0-0.168 0.036-0.228 0.108l0.074 0.087c0.046-0.050 0.084-0.072 0.138-0.072 0.063 0 0.097 0.034 0.097 0.092v0.023h-0.131c-0.121 0-0.197 0.058-0.197 0.152 0 0.092 0.070 0.156 0.18 0.156 0.066 0 0.121-0.024 0.159-0.063v0.051h0.131v-0.31zM4.482 32.132c0 0.060-0.047 0.103-0.11 0.103-0.045 0-0.075-0.022-0.075-0.057s0.026-0.053 0.073-0.053h0.112v0.006zM5.241 32.003c0-0.127-0.076-0.21-0.194-0.21-0.058 0-0.109 0.021-0.143 0.056v-0.313h-0.142v0.791h0.142v-0.304c0-0.060 0.041-0.101 0.099-0.101s0.097 0.041 0.097 0.101v0.304h0.141v-0.324zM5.385 31.924h0.109l0.059-0.293h-0.162l-0.005 0.293zM5.617 32.238c0.047 0.063 0.124 0.101 0.216 0.101 0.059 0 0.108-0.015 0.145-0.044 0.039-0.029 0.058-0.071 0.058-0.122 0-0.077-0.045-0.118-0.147-0.159l-0.051-0.021c-0.041-0.017-0.055-0.026-0.055-0.046 0-0.024 0.021-0.037 0.056-0.037 0.043 0 0.082 0.017 0.117 0.050l0.072-0.087c-0.047-0.052-0.11-0.078-0.188-0.078-0.114 0-0.192 0.058-0.192 0.156 0 0.077 0.046 0.12 0.142 0.159l0.056 0.023c0.039 0.017 0.054 0.025 0.054 0.047 0 0.028-0.028 0.043-0.066 0.043-0.052 0-0.101-0.023-0.147-0.071l-0.072 0.086zM6.987 32.122c0-0.084-0.046-0.143-0.123-0.172 0.035-0.033 0.052-0.075 0.052-0.125 0-0.114-0.092-0.194-0.22-0.194h-0.247v0.696h0.31c0.134 0 0.229-0.084 0.229-0.205zM6.684 31.753c0.058 0 0.091 0.029 0.091 0.079s-0.033 0.080-0.091 0.080h-0.098v-0.159h0.098zM6.847 32.117c0 0.055-0.037 0.087-0.099 0.087h-0.162v-0.175h0.162c0.062 0 0.099 0.034 0.099 0.087zM7.532 32.017c0-0.144-0.088-0.223-0.223-0.223-0.092 0-0.168 0.036-0.228 0.108l0.074 0.087c0.046-0.050 0.084-0.072 0.138-0.072 0.063 0 0.097 0.034 0.097 0.092v0.023h-0.131c-0.121 0-0.197 0.058-0.197 0.152 0 0.092 0.070 0.156 0.18 0.156 0.066 0 0.121-0.024 0.159-0.063v0.051h0.131v-0.31zM7.389 32.132c0 0.060-0.047 0.103-0.11 0.103-0.045 0-0.075-0.022-0.075-0.057s0.026-0.053 0.073-0.053h0.112v0.006zM8.062 31.805v0.065c-0.037-0.050-0.096-0.077-0.171-0.077-0.142 0-0.25 0.103-0.25 0.258 0 0.153 0.105 0.259 0.25 0.259 0.066 0 0.121-0.021 0.159-0.062v0.028c0 0.081-0.055 0.123-0.139 0.123-0.063 0-0.112-0.024-0.17-0.067l-0.075 0.099c0.073 0.064 0.158 0.097 0.256 0.097 0.163 0 0.27-0.091 0.27-0.26v-0.464h-0.131zM8.052 32.049c0 0.090-0.060 0.141-0.132 0.141-0.076 0-0.135-0.056-0.135-0.14s0.058-0.136 0.135-0.136c0.073 0 0.132 0.045 0.132 0.135zM8.813 32.114c0.006-0.026 0.009-0.053 0.009-0.078 0-0.136-0.101-0.242-0.246-0.242-0.151-0.003-0.276 0.122-0.273 0.273-0.003 0.151 0.124 0.276 0.286 0.273 0.077 0 0.147-0.026 0.209-0.078l-0.059-0.097c-0.045 0.035-0.094 0.053-0.145 0.053-0.076 0-0.13-0.037-0.147-0.103h0.366zM8.447 32.014c0.016-0.064 0.064-0.105 0.124-0.105 0.062 0 0.112 0.041 0.113 0.105h-0.237zM8.934 32.327h0.142v-0.791h-0.142v0.791zM9.169 32.238c0.047 0.063 0.124 0.101 0.216 0.101 0.059 0 0.108-0.015 0.145-0.044 0.039-0.029 0.058-0.071 0.058-0.122 0-0.077-0.045-0.118-0.147-0.159l-0.051-0.021c-0.041-0.017-0.055-0.026-0.055-0.046 0-0.024 0.021-0.037 0.056-0.037 0.043 0 0.082 0.017 0.117 0.050l0.072-0.087c-0.047-0.052-0.11-0.078-0.188-0.078-0.114 0-0.192 0.058-0.192 0.156 0 0.077 0.046 0.12 0.142 0.159l0.056 0.023c0.039 0.017 0.054 0.025 0.054 0.047 0 0.028-0.028 0.043-0.066 0.043-0.052 0-0.101-0.023-0.147-0.071l-0.072 0.086z"></path>
<path fill="#0a191e" d="M4.192 28.582l-0.207 0.068 0.023 0.084 0.121-0.039v0.483h0.096v-0.596h-0.033zM4.37 28.875c0 0.176 0.075 0.314 0.228 0.314s0.227-0.137 0.227-0.314c0-0.091-0.019-0.164-0.058-0.22s-0.094-0.083-0.169-0.083-0.131 0.028-0.17 0.084c-0.039 0.055-0.058 0.128-0.058 0.219zM4.725 28.876c0 0.141-0.040 0.225-0.127 0.225s-0.128-0.084-0.128-0.225c0-0.144 0.042-0.216 0.128-0.216s0.127 0.072 0.127 0.216zM5.868 28.901c0-0.106-0.062-0.176-0.164-0.176-0.062 0-0.117 0.027-0.15 0.070-0.026-0.043-0.073-0.070-0.135-0.070-0.053 0-0.097 0.019-0.128 0.052v-0.042h-0.089v0.444h0.095v-0.264c0-0.061 0.040-0.103 0.098-0.103s0.093 0.042 0.093 0.103v0.264h0.095v-0.268c0-0.057 0.040-0.099 0.098-0.099s0.092 0.041 0.092 0.103v0.264h0.096v-0.277zM5.999 29.178h0.095v-0.444h-0.095v0.444zM5.982 28.57c0 0.035 0.029 0.062 0.065 0.062s0.064-0.027 0.064-0.062-0.029-0.063-0.064-0.063c-0.036 0-0.065 0.028-0.065 0.063zM6.231 29.178h0.095v-0.678h-0.095v0.678zM6.863 28.988c0.005-0.021 0.007-0.041 0.007-0.060 0-0.116-0.088-0.203-0.205-0.203-0.126-0.003-0.232 0.105-0.229 0.232 0 0.131 0.103 0.231 0.239 0.231 0.068 0 0.127-0.023 0.177-0.071l-0.045-0.065c-0.040 0.035-0.083 0.052-0.129 0.052-0.076 0-0.133-0.044-0.145-0.117h0.331zM6.534 28.914c0.014-0.066 0.065-0.108 0.127-0.108s0.113 0.041 0.114 0.108h-0.241zM6.937 29.103c0.040 0.052 0.103 0.086 0.179 0.086 0.047 0 0.086-0.012 0.117-0.035s0.047-0.058 0.047-0.1c0-0.062-0.037-0.099-0.121-0.134l-0.042-0.017c-0.043-0.018-0.059-0.030-0.059-0.052 0-0.028 0.024-0.042 0.061-0.042 0.039 0 0.076 0.016 0.104 0.045l0.051-0.059c-0.039-0.046-0.089-0.069-0.154-0.069-0.090 0-0.156 0.049-0.156 0.128 0 0.062 0.037 0.097 0.116 0.129l0.045 0.019c0.043 0.018 0.062 0.029 0.062 0.055 0 0.033-0.031 0.050-0.071 0.050-0.047 0-0.086-0.023-0.125-0.063l-0.054 0.060z"></path>
<path fill="#0a191e" opacity="0.28" d="M0.965 1.196h22.158v47.55h-22.158v-47.55z"></path>
<path fill="#fff" d="M0.965 11.952c0-0.974 0.789-1.763 1.763-1.763h18.632c0.974 0 1.763 0.789 1.763 1.763v36.97h-22.158v-36.97z"></path>
<path fill="#0a191e" d="M3.577 12.853h-0.28l-0.273 0.493-0.275-0.493h-0.282l0.429 0.755v0.488h0.254v-0.489l0.427-0.753zM3.53 13.628c-0.006 0.265 0.224 0.493 0.497 0.488 0.273 0.006 0.508-0.222 0.503-0.488 0.006-0.265-0.228-0.489-0.501-0.486-0.273-0.006-0.504 0.22-0.499 0.486zM4.27 13.63c0 0.145-0.104 0.252-0.241 0.252-0.141 0-0.241-0.107-0.241-0.252 0-0.149 0.1-0.256 0.241-0.256 0.137 0 0.241 0.111 0.241 0.256zM4.719 13.685c0 0.26 0.183 0.433 0.431 0.433 0.243 0 0.427-0.173 0.427-0.433v-0.521h-0.254v0.542c0 0.107-0.075 0.179-0.173 0.179-0.104 0-0.177-0.072-0.177-0.179v-0.542h-0.254v0.521zM6.392 13.163c-0.024-0.008-0.051-0.011-0.083-0.011-0.104 0-0.194 0.045-0.256 0.122v-0.111h-0.233v0.932h0.254v-0.465c0-0.16 0.098-0.243 0.25-0.243h0.068v-0.224zM7.023 13.474c-0.006 0.356 0.301 0.651 0.659 0.644 0.358 0.008 0.668-0.288 0.663-0.644 0.006-0.356-0.305-0.651-0.663-0.644-0.358-0.008-0.665 0.288-0.659 0.644zM8.083 13.474c0 0.239-0.171 0.408-0.399 0.408-0.23 0-0.399-0.169-0.399-0.408s0.169-0.408 0.399-0.408c0.228 0 0.399 0.173 0.399 0.408zM9.115 13.163c-0.024-0.008-0.051-0.011-0.083-0.011-0.104 0-0.194 0.045-0.256 0.122v-0.111h-0.233v0.932h0.254v-0.465c0-0.16 0.098-0.243 0.25-0.243h0.068v-0.224zM9.932 12.683v0.57c-0.068-0.073-0.16-0.111-0.279-0.111-0.26 0-0.452 0.207-0.452 0.488s0.192 0.488 0.452 0.488c0.128 0 0.237-0.049 0.299-0.137v0.115h0.233v-1.412h-0.254zM9.935 13.63c0 0.168-0.107 0.256-0.235 0.256-0.137 0-0.241-0.102-0.241-0.258 0-0.152 0.105-0.256 0.241-0.256 0.128 0 0.235 0.092 0.235 0.258zM11.294 13.715c0.011-0.047 0.017-0.094 0.017-0.139 0-0.243-0.181-0.433-0.439-0.433-0.269-0.006-0.493 0.218-0.488 0.488-0.006 0.269 0.222 0.493 0.51 0.488 0.137 0 0.262-0.047 0.373-0.139l-0.105-0.173c-0.081 0.062-0.168 0.094-0.26 0.094-0.136 0-0.232-0.066-0.262-0.184h0.653zM10.641 13.536c0.028-0.115 0.115-0.188 0.222-0.188 0.111 0 0.2 0.073 0.201 0.188h-0.424zM12.082 13.163c-0.024-0.008-0.051-0.011-0.083-0.011-0.104 0-0.194 0.045-0.256 0.122v-0.111h-0.233v0.932h0.254v-0.465c0-0.16 0.098-0.243 0.25-0.243h0.068v-0.224z"></path>
<path fill="#000" d="M2.552 24.765h3.527c0.325 0 0.588 0.263 0.588 0.588v3.056c0 0.325-0.263 0.588-0.588 0.588h-3.527c-0.325 0-0.588-0.263-0.588-0.588v-3.056c0-0.325 0.263-0.588 0.588-0.588z"></path>
<path fill="#0a191e" d="M7.412 25.866c-0.004 0.199 0.167 0.365 0.37 0.36 0.134 0 0.248-0.064 0.308-0.173l-0.108-0.076c-0.050 0.078-0.116 0.117-0.199 0.117-0.13 0-0.225-0.095-0.225-0.228s0.095-0.23 0.225-0.23c0.083 0 0.15 0.039 0.199 0.117l0.108-0.076c-0.062-0.109-0.175-0.173-0.307-0.173-0.202-0.004-0.374 0.161-0.371 0.36zM8.681 25.89c0-0.127-0.076-0.21-0.194-0.21-0.058 0-0.109 0.021-0.143 0.056v-0.313h-0.142v0.791h0.142v-0.304c0-0.060 0.041-0.101 0.099-0.101s0.097 0.041 0.097 0.101v0.304h0.141v-0.324zM8.818 26.214h0.142v-0.522h-0.142v0.522zM8.798 25.502c0 0.050 0.040 0.087 0.091 0.087s0.092-0.038 0.092-0.087c0-0.051-0.041-0.089-0.092-0.089s-0.091 0.038-0.091 0.089zM9.072 25.952c-0.002 0.151 0.127 0.277 0.279 0.274 0.101 0 0.181-0.050 0.227-0.13l-0.099-0.076c-0.034 0.047-0.072 0.075-0.125 0.075-0.080 0-0.137-0.060-0.137-0.143 0-0.081 0.057-0.142 0.137-0.142 0.055 0 0.093 0.028 0.125 0.076l0.099-0.077c-0.045-0.080-0.124-0.129-0.227-0.129-0.155 0-0.279 0.119-0.279 0.272zM10.197 26.214l-0.212-0.291 0.196-0.231h-0.169l-0.188 0.222v-0.491h-0.142v0.791h0.142v-0.289l0.21 0.289h0.162zM10.732 26.001c0.006-0.026 0.009-0.053 0.009-0.078 0-0.136-0.101-0.242-0.246-0.242-0.151-0.003-0.276 0.122-0.273 0.273-0.003 0.151 0.124 0.276 0.286 0.273 0.077 0 0.147-0.026 0.209-0.078l-0.059-0.097c-0.045 0.035-0.094 0.053-0.145 0.053-0.076 0-0.13-0.037-0.147-0.103h0.366zM10.366 25.901c0.016-0.064 0.064-0.105 0.124-0.105 0.062 0 0.112 0.041 0.113 0.105h-0.237zM11.332 25.89c0-0.127-0.075-0.21-0.196-0.21-0.062 0-0.116 0.022-0.153 0.059v-0.047h-0.131v0.522h0.142v-0.305c0-0.060 0.041-0.101 0.099-0.101s0.097 0.041 0.097 0.101v0.305h0.141v-0.324zM11.466 26.401h0.113l0.056-0.317h-0.162l-0.006 0.317zM12.029 25.866c-0.004 0.199 0.167 0.365 0.37 0.36 0.134 0 0.248-0.064 0.308-0.173l-0.108-0.076c-0.050 0.078-0.116 0.117-0.199 0.117-0.13 0-0.225-0.095-0.225-0.228s0.095-0.23 0.225-0.23c0.083 0 0.15 0.039 0.199 0.117l0.108-0.076c-0.062-0.109-0.175-0.173-0.307-0.173-0.202-0.004-0.374 0.161-0.371 0.36zM13.251 25.904c0-0.144-0.088-0.223-0.223-0.223-0.092 0-0.168 0.036-0.228 0.108l0.074 0.087c0.046-0.050 0.084-0.072 0.138-0.072 0.063 0 0.097 0.034 0.097 0.092v0.023h-0.131c-0.121 0-0.197 0.058-0.197 0.152 0 0.092 0.070 0.156 0.18 0.156 0.066 0 0.121-0.024 0.159-0.063v0.051h0.131v-0.31zM13.108 26.019c0 0.060-0.047 0.103-0.11 0.103-0.045 0-0.075-0.022-0.075-0.057s0.026-0.053 0.073-0.053h0.112v0.006zM13.34 26.125c0.047 0.063 0.124 0.101 0.216 0.101 0.059 0 0.108-0.015 0.145-0.044 0.039-0.029 0.058-0.071 0.058-0.122 0-0.077-0.045-0.118-0.147-0.159l-0.051-0.021c-0.041-0.017-0.055-0.026-0.055-0.046 0-0.024 0.021-0.037 0.056-0.037 0.043 0 0.082 0.017 0.117 0.050l0.072-0.087c-0.047-0.052-0.11-0.078-0.188-0.078-0.114 0-0.192 0.058-0.192 0.156 0 0.077 0.046 0.12 0.142 0.159l0.056 0.023c0.039 0.017 0.054 0.025 0.054 0.047 0 0.028-0.028 0.043-0.066 0.043-0.052 0-0.101-0.023-0.147-0.071l-0.072 0.086zM14.347 25.89c0-0.127-0.076-0.21-0.194-0.21-0.058 0-0.109 0.021-0.143 0.056v-0.313h-0.142v0.791h0.142v-0.304c0-0.060 0.041-0.101 0.099-0.101s0.097 0.041 0.097 0.101v0.304h0.141v-0.324zM14.963 26.001c0.006-0.026 0.009-0.053 0.009-0.078 0-0.136-0.101-0.242-0.246-0.242-0.151-0.003-0.276 0.122-0.273 0.273-0.003 0.151 0.124 0.276 0.286 0.273 0.077 0 0.147-0.026 0.209-0.078l-0.059-0.097c-0.045 0.035-0.094 0.053-0.145 0.053-0.076 0-0.13-0.037-0.147-0.103h0.366zM14.598 25.901c0.016-0.064 0.064-0.105 0.124-0.105 0.062 0 0.112 0.041 0.113 0.105h-0.237zM15.734 25.692l-0.121 0.291-0.144-0.303h-0.047l-0.142 0.309-0.123-0.297h-0.15l0.242 0.534h0.046l0.151-0.304 0.15 0.304h0.046l0.242-0.534h-0.15zM15.89 26.401h0.113l0.056-0.317h-0.162l-0.006 0.317zM7.88 27.259c0-0.144-0.088-0.223-0.223-0.223-0.092 0-0.168 0.036-0.228 0.108l0.074 0.087c0.046-0.050 0.084-0.072 0.138-0.072 0.063 0 0.097 0.034 0.097 0.092v0.023h-0.131c-0.121 0-0.197 0.058-0.197 0.152 0 0.092 0.070 0.156 0.18 0.156 0.066 0 0.121-0.024 0.159-0.063v0.051h0.131v-0.31zM7.738 27.374c0 0.060-0.047 0.103-0.11 0.103-0.045 0-0.075-0.022-0.075-0.057s0.026-0.053 0.073-0.053h0.112v0.006zM8.497 27.246c0-0.127-0.075-0.21-0.196-0.21-0.062 0-0.116 0.022-0.153 0.059v-0.047h-0.131v0.522h0.142v-0.305c0-0.060 0.041-0.101 0.099-0.101s0.097 0.041 0.097 0.101v0.305h0.141v-0.324zM9.013 26.779v0.319c-0.038-0.041-0.090-0.062-0.156-0.062-0.145 0-0.253 0.116-0.253 0.273s0.108 0.273 0.253 0.273c0.072 0 0.133-0.027 0.168-0.077v0.064h0.131v-0.791h-0.142zM9.015 27.309c0 0.094-0.060 0.143-0.132 0.143-0.077 0-0.135-0.057-0.135-0.144 0-0.085 0.059-0.143 0.135-0.143 0.072 0 0.132 0.052 0.132 0.144zM9.998 27.569h0.153l-0.31-0.708h-0.047l-0.311 0.708h0.153l0.039-0.091h0.285l0.039 0.091zM9.91 27.361h-0.186l0.093-0.235 0.093 0.235zM10.529 27.047l-0.132 0.295-0.132-0.295h-0.15l0.258 0.534h0.047l0.258-0.534h-0.151zM10.712 27.308c-0.003 0.149 0.125 0.276 0.278 0.273 0.153 0.003 0.285-0.124 0.281-0.273 0.003-0.149-0.128-0.274-0.28-0.272-0.153-0.003-0.283 0.123-0.279 0.272zM11.127 27.309c0 0.081-0.058 0.141-0.135 0.141-0.079 0-0.135-0.060-0.135-0.141 0-0.083 0.056-0.143 0.135-0.143 0.077 0 0.135 0.062 0.135 0.143zM11.354 27.308c-0.002 0.151 0.127 0.277 0.279 0.274 0.101 0 0.181-0.050 0.227-0.13l-0.099-0.076c-0.034 0.047-0.072 0.075-0.125 0.075-0.080 0-0.137-0.060-0.137-0.143 0-0.081 0.057-0.142 0.137-0.142 0.055 0 0.093 0.028 0.125 0.076l0.099-0.077c-0.045-0.080-0.124-0.129-0.227-0.129-0.155 0-0.279 0.119-0.279 0.272zM12.402 27.259c0-0.144-0.088-0.223-0.223-0.223-0.092 0-0.168 0.036-0.228 0.108l0.074 0.087c0.046-0.050 0.084-0.072 0.138-0.072 0.063 0 0.097 0.034 0.097 0.092v0.023h-0.131c-0.121 0-0.197 0.058-0.197 0.152 0 0.092 0.070 0.156 0.18 0.156 0.066 0 0.121-0.024 0.159-0.063v0.051h0.131v-0.31zM12.26 27.374c0 0.060-0.047 0.103-0.11 0.103-0.045 0-0.075-0.022-0.075-0.057s0.026-0.053 0.073-0.053h0.112v0.006zM12.919 26.779v0.319c-0.038-0.041-0.090-0.062-0.156-0.062-0.145 0-0.253 0.116-0.253 0.273s0.108 0.273 0.253 0.273c0.072 0 0.133-0.027 0.168-0.077v0.064h0.131v-0.791h-0.142zM12.921 27.309c0 0.094-0.060 0.143-0.132 0.143-0.077 0-0.135-0.057-0.135-0.144 0-0.085 0.059-0.143 0.135-0.143 0.072 0 0.132 0.052 0.132 0.144zM13.173 27.308c-0.003 0.149 0.125 0.276 0.278 0.273 0.153 0.003 0.285-0.124 0.281-0.273 0.003-0.149-0.128-0.274-0.28-0.272-0.153-0.003-0.283 0.123-0.279 0.272zM13.587 27.309c0 0.081-0.058 0.141-0.135 0.141-0.079 0-0.135-0.060-0.135-0.141 0-0.083 0.056-0.143 0.135-0.143 0.077 0 0.135 0.062 0.135 0.143zM14.1 27.428c0.054 0.094 0.151 0.154 0.269 0.154 0.139 0 0.243-0.081 0.243-0.209 0-0.094-0.055-0.152-0.172-0.203l-0.079-0.035c-0.059-0.026-0.081-0.043-0.081-0.080 0-0.043 0.037-0.067 0.086-0.067 0.053 0 0.097 0.026 0.133 0.080l0.097-0.075c-0.043-0.080-0.123-0.132-0.23-0.132-0.132 0-0.231 0.078-0.231 0.197 0 0.093 0.062 0.153 0.169 0.2l0.075 0.034c0.066 0.031 0.089 0.045 0.089 0.086 0 0.047-0.037 0.077-0.099 0.077-0.076 0-0.125-0.039-0.171-0.101l-0.098 0.074zM15.165 27.259c0-0.144-0.088-0.223-0.223-0.223-0.092 0-0.168 0.036-0.228 0.108l0.074 0.087c0.046-0.050 0.084-0.072 0.138-0.072 0.063 0 0.097 0.034 0.097 0.092v0.023h-0.131c-0.121 0-0.197 0.058-0.197 0.152 0 0.092 0.070 0.156 0.18 0.156 0.066 0 0.121-0.024 0.159-0.063v0.051h0.131v-0.31zM15.023 27.374c0 0.060-0.047 0.103-0.11 0.103-0.045 0-0.075-0.022-0.075-0.057s0.026-0.053 0.073-0.053h0.112v0.006zM15.302 27.569h0.142v-0.791h-0.142v0.791zM16.023 27.259c0-0.144-0.088-0.223-0.223-0.223-0.092 0-0.168 0.036-0.228 0.108l0.074 0.087c0.046-0.050 0.084-0.072 0.138-0.072 0.063 0 0.097 0.034 0.097 0.092v0.023h-0.131c-0.121 0-0.197 0.058-0.197 0.152 0 0.092 0.070 0.156 0.18 0.156 0.066 0 0.121-0.024 0.159-0.063v0.051h0.131v-0.31zM15.88 27.374c0 0.060-0.047 0.103-0.11 0.103-0.045 0-0.075-0.022-0.075-0.057s0.026-0.053 0.073-0.053h0.112v0.006zM16.539 26.779v0.319c-0.038-0.041-0.090-0.062-0.156-0.062-0.145 0-0.253 0.116-0.253 0.273s0.108 0.273 0.253 0.273c0.072 0 0.133-0.027 0.168-0.077v0.064h0.131v-0.791h-0.142zM16.541 27.309c0 0.094-0.060 0.143-0.132 0.143-0.077 0-0.135-0.057-0.135-0.144 0-0.085 0.059-0.143 0.135-0.143 0.072 0 0.132 0.052 0.132 0.144z"></path>
<path fill="#0a191e" d="M7.587 28.591h0.096v-0.511h0.202v-0.086h-0.498v0.086h0.201v0.511zM8.355 28.313c0-0.105-0.063-0.176-0.164-0.176-0.053 0-0.098 0.019-0.128 0.054v-0.278h-0.095v0.678h0.095v-0.264c0-0.061 0.042-0.103 0.101-0.103s0.097 0.042 0.097 0.103v0.264h0.095v-0.277zM8.886 28.4c0.005-0.021 0.007-0.041 0.007-0.060 0-0.116-0.088-0.203-0.205-0.203-0.126-0.003-0.232 0.105-0.229 0.232 0 0.131 0.103 0.231 0.239 0.231 0.068 0 0.127-0.023 0.177-0.071l-0.045-0.065c-0.040 0.035-0.083 0.052-0.129 0.052-0.076 0-0.133-0.044-0.145-0.117h0.331zM8.558 28.326c0.014-0.066 0.065-0.108 0.127-0.108s0.113 0.041 0.114 0.108h-0.241zM9.262 28.591h0.096v-0.23h0.122c0.12 0 0.202-0.077 0.202-0.183s-0.082-0.183-0.202-0.183h-0.218v0.596zM9.358 28.275v-0.196h0.12c0.068 0 0.106 0.040 0.106 0.099s-0.038 0.098-0.106 0.098h-0.12zM9.782 28.591h0.095v-0.678h-0.095v0.678zM10.367 28.322c0-0.119-0.072-0.185-0.182-0.185-0.077 0-0.143 0.031-0.187 0.095l0.055 0.056c0.037-0.044 0.073-0.066 0.123-0.066 0.061 0 0.095 0.033 0.095 0.095v0.029h-0.126c-0.1 0-0.164 0.050-0.164 0.127s0.061 0.128 0.155 0.128c0.061 0 0.109-0.021 0.142-0.060v0.050h0.089v-0.268zM10.271 28.423c0 0.061-0.051 0.105-0.115 0.105-0.046 0-0.078-0.022-0.078-0.059s0.028-0.054 0.079-0.054h0.114v0.008zM10.887 28.313c0-0.106-0.062-0.176-0.166-0.176-0.055 0-0.099 0.018-0.133 0.053v-0.043h-0.089v0.444h0.095v-0.265c0-0.061 0.042-0.103 0.101-0.103s0.097 0.042 0.097 0.103v0.265h0.095v-0.277zM11.282 28.51c-0.026 0.003-0.045 0.005-0.059 0.005-0.058 0-0.088-0.020-0.088-0.077v-0.209h0.132v-0.082h-0.132v-0.117h-0.096v0.117h-0.072v0.082h0.072v0.217c0 0.104 0.061 0.154 0.164 0.154 0.023 0 0.049-0.004 0.079-0.010v-0.080zM11.602 28.293c-0.004 0.171 0.144 0.311 0.314 0.308 0.111 0 0.205-0.053 0.256-0.137l-0.072-0.053c-0.042 0.066-0.104 0.103-0.182 0.103-0.122 0-0.215-0.094-0.215-0.22s0.093-0.22 0.215-0.22c0.079 0 0.14 0.037 0.182 0.103l0.072-0.053c-0.052-0.084-0.146-0.137-0.256-0.137-0.17-0.003-0.317 0.137-0.314 0.308zM12.627 28.322c0-0.119-0.072-0.185-0.182-0.185-0.077 0-0.143 0.031-0.187 0.095l0.055 0.056c0.037-0.044 0.073-0.066 0.123-0.066 0.061 0 0.095 0.033 0.095 0.095v0.029h-0.126c-0.1 0-0.164 0.050-0.164 0.127s0.061 0.128 0.155 0.128c0.061 0 0.109-0.021 0.142-0.060v0.050h0.089v-0.268zM12.532 28.423c0 0.061-0.051 0.105-0.115 0.105-0.046 0-0.078-0.022-0.078-0.059s0.028-0.054 0.079-0.054h0.114v0.008zM12.871 28.066c0-0.057 0.029-0.077 0.087-0.077 0.011 0 0.024 0.001 0.038 0.003v-0.080c-0.017-0.005-0.037-0.008-0.061-0.008-0.098 0-0.158 0.051-0.158 0.154v0.089h-0.063v0.082h0.063v0.361h0.095v-0.361h0.105v-0.082h-0.105v-0.081zM13.45 28.4c0.005-0.021 0.007-0.041 0.007-0.060 0-0.116-0.088-0.203-0.205-0.203-0.126-0.003-0.232 0.105-0.229 0.232 0 0.131 0.103 0.231 0.239 0.231 0.068 0 0.127-0.023 0.177-0.071l-0.045-0.065c-0.040 0.035-0.083 0.052-0.129 0.052-0.076 0-0.133-0.044-0.145-0.117h0.331zM13.121 28.326c0.014-0.066 0.065-0.108 0.127-0.108s0.113 0.041 0.114 0.108h-0.241z"></path>
<path fill="#0a191e" d="M18.061 27.276c0.089-0.014 0.151-0.070 0.151-0.153 0-0.072-0.047-0.121-0.135-0.154l-0.067-0.025c-0.050-0.022-0.072-0.039-0.072-0.074 0-0.041 0.037-0.061 0.083-0.061s0.080 0.021 0.112 0.067l0.065-0.049c-0.032-0.056-0.078-0.089-0.137-0.1v-0.106h-0.088v0.108c-0.077 0.015-0.13 0.069-0.13 0.142 0 0.066 0.043 0.117 0.131 0.151l0.062 0.024c0.055 0.024 0.080 0.043 0.080 0.079 0 0.043-0.040 0.070-0.095 0.070-0.061 0-0.109-0.031-0.148-0.091l-0.066 0.049c0.036 0.065 0.093 0.108 0.165 0.122v0.109h0.088v-0.108zM18.489 26.701l-0.207 0.068 0.023 0.084 0.121-0.039v0.483h0.096v-0.596h-0.033zM19.073 27.105c0-0.12-0.097-0.186-0.203-0.186-0.027 0-0.052 0.003-0.076 0.008v-0.14h0.246v-0.086h-0.34v0.3h0.137c0.088 0 0.137 0.038 0.137 0.106s-0.052 0.113-0.124 0.113c-0.064 0-0.108-0.033-0.145-0.089l-0.067 0.048c0.041 0.077 0.116 0.128 0.214 0.128 0.118 0 0.22-0.082 0.22-0.202zM19.173 27.238c0 0.040 0.032 0.070 0.071 0.070s0.070-0.030 0.070-0.070c0-0.041-0.030-0.070-0.070-0.070s-0.071 0.031-0.071 0.070zM19.417 26.994c0 0.176 0.075 0.314 0.228 0.314s0.227-0.137 0.227-0.314c0-0.091-0.019-0.164-0.058-0.22s-0.094-0.083-0.169-0.083-0.131 0.028-0.17 0.084c-0.039 0.055-0.058 0.128-0.058 0.219zM19.772 26.995c0 0.141-0.040 0.225-0.127 0.225s-0.128-0.084-0.128-0.225c0-0.144 0.042-0.216 0.128-0.216s0.127 0.072 0.127 0.216zM19.982 26.994c0 0.176 0.075 0.314 0.228 0.314s0.227-0.137 0.227-0.314c0-0.091-0.019-0.164-0.058-0.22s-0.094-0.083-0.169-0.083-0.131 0.028-0.17 0.084c-0.039 0.055-0.058 0.128-0.058 0.219zM20.337 26.995c0 0.141-0.040 0.225-0.127 0.225s-0.128-0.084-0.128-0.225c0-0.144 0.042-0.216 0.128-0.216s0.127 0.072 0.127 0.216zM21.195 27.298l-0.165-0.23 0.154-0.214h-0.108l-0.099 0.146-0.099-0.146h-0.108l0.153 0.213-0.164 0.23h0.108l0.11-0.163 0.111 0.163h0.108zM21.437 26.701l-0.207 0.068 0.023 0.084 0.121-0.039v0.483h0.096v-0.596h-0.033z"></path>
<path fill="#000" d="M-1.503 30.407h3.527c0.325 0 0.588 0.263 0.588 0.588v3.056c0 0.325-0.263 0.588-0.588 0.588h-3.527c-0.325 0-0.588-0.263-0.588-0.588v-3.056c0-0.325 0.263-0.588 0.588-0.588z"></path>
<path fill="#0a191e" d="M3.838 31.69l-0.173 0.422-0.174-0.422h-0.161l0.311 0.708h0.047l0.31-0.708h-0.16zM4.501 32.172c0.006-0.026 0.010-0.053 0.010-0.078 0-0.136-0.101-0.242-0.246-0.242-0.151-0.003-0.276 0.122-0.273 0.273-0.003 0.151 0.124 0.276 0.286 0.273 0.077 0 0.147-0.026 0.209-0.078l-0.059-0.097c-0.045 0.035-0.094 0.053-0.145 0.053-0.076 0-0.13-0.037-0.147-0.103h0.366zM4.135 32.072c0.016-0.064 0.064-0.105 0.124-0.105 0.062 0 0.112 0.041 0.113 0.105h-0.237zM5.015 31.864v0.065c-0.037-0.050-0.096-0.077-0.171-0.077-0.142 0-0.25 0.103-0.25 0.258 0 0.153 0.105 0.259 0.25 0.259 0.066 0 0.121-0.021 0.159-0.062v0.028c0 0.081-0.055 0.123-0.139 0.123-0.063 0-0.112-0.024-0.17-0.067l-0.075 0.099c0.073 0.064 0.158 0.097 0.256 0.097 0.163 0 0.27-0.091 0.27-0.26v-0.464h-0.131zM5.005 32.108c0 0.090-0.060 0.141-0.132 0.141-0.076 0-0.135-0.056-0.135-0.14s0.058-0.136 0.135-0.136c0.073 0 0.132 0.045 0.132 0.135zM5.724 32.076c0-0.144-0.088-0.223-0.223-0.223-0.092 0-0.168 0.036-0.228 0.108l0.074 0.088c0.046-0.050 0.084-0.072 0.138-0.072 0.063 0 0.097 0.034 0.097 0.092v0.023h-0.131c-0.121 0-0.197 0.058-0.197 0.152 0 0.092 0.070 0.156 0.18 0.156 0.066 0 0.121-0.024 0.159-0.063v0.051h0.131v-0.31zM5.582 32.19c0 0.060-0.047 0.103-0.11 0.103-0.045 0-0.075-0.022-0.075-0.057s0.026-0.053 0.073-0.053h0.112v0.006zM6.34 32.062c0-0.127-0.075-0.21-0.196-0.21-0.062 0-0.116 0.022-0.153 0.059v-0.047h-0.131v0.522h0.142v-0.305c0-0.060 0.041-0.101 0.099-0.101s0.097 0.041 0.097 0.101v0.305h0.141v-0.324zM7.417 31.677l-0.294 0.376-0.294-0.376h-0.046v0.708h0.142v-0.371l0.175 0.219h0.046l0.175-0.219v0.371h0.142v-0.708h-0.046zM8.046 32.076c0-0.144-0.088-0.223-0.223-0.223-0.092 0-0.168 0.036-0.228 0.108l0.074 0.088c0.046-0.050 0.084-0.072 0.138-0.072 0.063 0 0.097 0.034 0.097 0.092v0.023h-0.131c-0.121 0-0.197 0.058-0.197 0.152 0 0.092 0.070 0.156 0.18 0.156 0.066 0 0.121-0.024 0.159-0.063v0.051h0.131v-0.31zM7.904 32.19c0 0.060-0.047 0.103-0.11 0.103-0.045 0-0.075-0.022-0.075-0.057s0.026-0.053 0.073-0.053h0.112v0.006zM8.154 32.124c-0.002 0.151 0.127 0.277 0.279 0.274 0.101 0 0.181-0.050 0.227-0.13l-0.099-0.076c-0.034 0.047-0.072 0.075-0.125 0.075-0.080 0-0.137-0.060-0.137-0.143 0-0.081 0.057-0.142 0.137-0.142 0.055 0 0.093 0.028 0.125 0.076l0.099-0.077c-0.045-0.080-0.124-0.129-0.227-0.129-0.155 0-0.279 0.119-0.279 0.272zM9.667 32.076l-0.11-0.078c-0.013 0.019-0.025 0.037-0.038 0.054-0.018 0.026-0.038 0.056-0.060 0.086l-0.102-0.123c0.080-0.066 0.114-0.118 0.114-0.184 0-0.090-0.072-0.153-0.174-0.153-0.109 0-0.18 0.066-0.18 0.167 0 0.051 0.019 0.097 0.061 0.152-0.052 0.041-0.089 0.077-0.11 0.108-0.020 0.031-0.031 0.064-0.031 0.101 0 0.115 0.094 0.194 0.229 0.194 0.070 0 0.133-0.021 0.189-0.064l0.042 0.052h0.167l-0.117-0.142c0.018-0.022 0.050-0.065 0.093-0.128l0.027-0.040zM9.245 31.846c0-0.029 0.020-0.047 0.051-0.047s0.049 0.017 0.049 0.045c0 0.028-0.015 0.050-0.056 0.082l-0.002 0.001c-0.031-0.038-0.041-0.057-0.041-0.081zM9.373 32.234c-0.032 0.026-0.064 0.039-0.098 0.039-0.056 0-0.095-0.033-0.095-0.082 0-0.034 0.015-0.055 0.073-0.102l0.12 0.145zM10.035 32.038c-0.004 0.199 0.167 0.365 0.37 0.361 0.134 0 0.248-0.064 0.308-0.173l-0.108-0.076c-0.050 0.078-0.116 0.117-0.199 0.117-0.13 0-0.225-0.095-0.225-0.228s0.095-0.23 0.225-0.23c0.083 0 0.15 0.039 0.199 0.117l0.108-0.076c-0.062-0.109-0.175-0.173-0.307-0.173-0.202-0.004-0.374 0.161-0.371 0.36zM11.304 32.062c0-0.127-0.076-0.21-0.194-0.21-0.058 0-0.109 0.021-0.143 0.056v-0.313h-0.142v0.791h0.142v-0.304c0-0.060 0.041-0.101 0.099-0.101s0.097 0.041 0.097 0.101v0.304h0.141v-0.324zM11.921 32.172c0.006-0.026 0.009-0.053 0.009-0.078 0-0.136-0.101-0.242-0.246-0.242-0.151-0.003-0.276 0.122-0.273 0.273-0.003 0.151 0.124 0.276 0.286 0.273 0.077 0 0.147-0.026 0.209-0.078l-0.059-0.097c-0.045 0.035-0.094 0.053-0.145 0.053-0.076 0-0.13-0.037-0.147-0.103h0.366zM11.555 32.072c0.016-0.064 0.064-0.105 0.124-0.105 0.062 0 0.112 0.041 0.113 0.105h-0.237zM12.521 32.172c0.006-0.026 0.009-0.053 0.009-0.078 0-0.136-0.101-0.242-0.246-0.242-0.151-0.003-0.276 0.122-0.273 0.273-0.003 0.151 0.124 0.276 0.286 0.273 0.077 0 0.147-0.026 0.209-0.078l-0.059-0.097c-0.045 0.035-0.094 0.053-0.145 0.053-0.076 0-0.13-0.037-0.147-0.103h0.366zM12.155 32.072c0.016-0.064 0.064-0.105 0.124-0.105 0.062 0 0.112 0.041 0.113 0.105h-0.237zM12.594 32.297c0.047 0.063 0.124 0.101 0.216 0.101 0.059 0 0.108-0.015 0.145-0.044 0.039-0.029 0.058-0.071 0.058-0.122 0-0.077-0.045-0.118-0.147-0.159l-0.051-0.021c-0.041-0.017-0.055-0.026-0.055-0.046 0-0.024 0.021-0.037 0.056-0.037 0.043 0 0.082 0.017 0.117 0.050l0.072-0.087c-0.047-0.052-0.11-0.078-0.188-0.078-0.114 0-0.192 0.058-0.192 0.156 0 0.077 0.046 0.12 0.142 0.159l0.056 0.023c0.039 0.017 0.054 0.025 0.054 0.047 0 0.028-0.028 0.043-0.066 0.043-0.052 0-0.101-0.023-0.147-0.071l-0.072 0.086zM13.601 32.172c0.006-0.026 0.009-0.053 0.009-0.078 0-0.136-0.101-0.242-0.246-0.242-0.151-0.003-0.276 0.122-0.273 0.273-0.003 0.151 0.124 0.276 0.286 0.273 0.077 0 0.147-0.026 0.209-0.078l-0.059-0.097c-0.045 0.035-0.094 0.053-0.145 0.053-0.076 0-0.13-0.037-0.147-0.103h0.366zM13.235 32.072c0.016-0.064 0.064-0.105 0.124-0.105 0.062 0 0.112 0.041 0.113 0.105h-0.237z"></path>
<path fill="#ffb30e" d="M2.552 15.772h18.985c0.325 0 0.588 0.263 0.588 0.588v6.113c0 0.325-0.263 0.588-0.588 0.588h-18.985c-0.325 0-0.588-0.263-0.588-0.588v-6.113c0-0.325 0.263-0.588 0.588-0.588z"></path>
<path fill="#ffdf9b" d="M4.257 19.769h1.293c0.162 0 0.294 0.132 0.294 0.294v1.175c0 0.162-0.132 0.294-0.294 0.294h-1.293c-0.162 0-0.294-0.132-0.294-0.294v-1.175c0-0.162 0.132-0.294 0.294-0.294z"></path>
<path fill="#0a191e" d="M4.515 18.455c0.003-0.135-0.115-0.239-0.231-0.236h-0.004l0.16-0.223h-0.168l-0.174 0.24c-0.046 0.064-0.067 0.096-0.083 0.142-0.007 0.023-0.012 0.049-0.012 0.076-0.003 0.142 0.121 0.252 0.255 0.25 0.136 0 0.256-0.106 0.256-0.249zM4.374 18.455c0 0.067-0.051 0.118-0.115 0.118s-0.115-0.052-0.115-0.118c0-0.066 0.051-0.117 0.115-0.117s0.115 0.050 0.115 0.117zM4.856 18.57l0.090-0.095c0.050-0.052 0.086-0.098 0.112-0.138 0.025-0.041 0.038-0.084 0.038-0.132 0-0.127-0.102-0.222-0.241-0.222-0.149 0-0.246 0.112-0.246 0.23 0 0.020 0.002 0.040 0.007 0.059h0.143c-0.003-0.021-0.005-0.038-0.005-0.051 0-0.063 0.039-0.106 0.098-0.106s0.097 0.042 0.097 0.102c0 0.052-0.029 0.1-0.098 0.175l-0.249 0.27v0.031l0.513-0.001v-0.121h-0.259zM5.764 18.457h-0.089v-0.195h-0.142v0.195h-0.169l0.184-0.462h-0.147l-0.215 0.544v0.038h0.346v0.114h0.142v-0.114h0.089v-0.12zM6.789 17.982l-0.294 0.376-0.294-0.376h-0.046v0.708h0.142v-0.371l0.175 0.219h0.046l0.175-0.219v0.371h0.142v-0.708h-0.046zM7.418 18.381c0-0.144-0.088-0.223-0.223-0.223-0.092 0-0.168 0.036-0.228 0.108l0.074 0.087c0.046-0.050 0.084-0.072 0.138-0.072 0.063 0 0.097 0.034 0.097 0.092v0.023h-0.131c-0.121 0-0.197 0.058-0.197 0.152 0 0.092 0.070 0.156 0.18 0.156 0.066 0 0.121-0.024 0.159-0.063v0.051h0.131v-0.31zM7.276 18.496c0 0.060-0.047 0.103-0.11 0.103-0.045 0-0.075-0.022-0.075-0.057s0.026-0.053 0.073-0.053h0.112v0.006zM8.107 18.429c0-0.156-0.108-0.272-0.253-0.272-0.072 0-0.133 0.027-0.168 0.077v-0.065h-0.131v0.712h0.142v-0.24c0.038 0.041 0.093 0.063 0.156 0.063 0.145 0 0.253-0.118 0.253-0.274zM7.962 18.43c0 0.085-0.059 0.143-0.135 0.143-0.073 0-0.132-0.052-0.132-0.144 0-0.094 0.060-0.143 0.132-0.143 0.077 0 0.135 0.057 0.135 0.144zM8.218 18.691h0.142v-0.791h-0.142v0.791zM8.981 18.478c0.006-0.026 0.009-0.053 0.009-0.078 0-0.136-0.101-0.242-0.246-0.242-0.151-0.003-0.276 0.122-0.273 0.273-0.003 0.151 0.124 0.276 0.286 0.273 0.077 0 0.147-0.026 0.209-0.078l-0.059-0.097c-0.045 0.035-0.094 0.053-0.145 0.053-0.076 0-0.13-0.037-0.147-0.103h0.366zM8.615 18.378c0.016-0.064 0.064-0.105 0.124-0.105 0.062 0 0.112 0.041 0.113 0.105h-0.237zM9.803 18.691h0.153l-0.31-0.708h-0.047l-0.311 0.708h0.153l0.039-0.091h0.285l0.039 0.091zM9.714 18.483h-0.186l0.093-0.235 0.093 0.235zM10.334 18.169l-0.132 0.295-0.132-0.295h-0.15l0.258 0.534h0.047l0.258-0.534h-0.151zM11.026 18.478c0.006-0.026 0.009-0.053 0.009-0.078 0-0.136-0.101-0.242-0.246-0.242-0.151-0.003-0.276 0.122-0.273 0.273-0.003 0.151 0.124 0.276 0.286 0.273 0.077 0 0.147-0.026 0.209-0.078l-0.059-0.097c-0.045 0.035-0.094 0.053-0.145 0.053-0.076 0-0.13-0.037-0.147-0.103h0.366zM10.661 18.378c0.016-0.064 0.064-0.105 0.124-0.105 0.062 0 0.112 0.041 0.113 0.105h-0.237z"></path>
<path fill="#0a191e" d="M6.904 20.932c0-0.055-0.016-0.101-0.048-0.138s-0.072-0.062-0.119-0.075l0.154-0.217v-0.038h-0.448v0.129h0.232l-0.145 0.203v0.037h0.088c0.093 0 0.142 0.036 0.142 0.1 0 0.066-0.051 0.108-0.121 0.108-0.064 0-0.108-0.033-0.15-0.096l-0.099 0.070c0.047 0.096 0.138 0.158 0.253 0.158 0.144 0 0.262-0.1 0.262-0.24zM7.010 20.806c0 0.206 0.093 0.366 0.276 0.366 0.182 0 0.275-0.16 0.275-0.366 0-0.106-0.023-0.192-0.071-0.257-0.046-0.065-0.115-0.098-0.205-0.098s-0.158 0.033-0.206 0.098c-0.047 0.065-0.071 0.151-0.071 0.257zM7.415 20.807c0 0.155-0.043 0.233-0.129 0.233-0.086 0-0.13-0.078-0.13-0.233 0-0.148 0.040-0.225 0.13-0.225 0.089 0 0.129 0.077 0.129 0.225zM8.791 20.836c0-0.127-0.075-0.21-0.197-0.21-0.072 0-0.133 0.028-0.174 0.075-0.035-0.050-0.086-0.075-0.155-0.075-0.060 0-0.113 0.021-0.148 0.058v-0.046h-0.131v0.522h0.142v-0.304c0-0.062 0.038-0.101 0.096-0.101 0.056 0 0.093 0.039 0.093 0.101v0.304h0.142v-0.307c0-0.058 0.040-0.098 0.096-0.098s0.093 0.039 0.093 0.101v0.304h0.142v-0.324zM8.926 21.159h0.142v-0.522h-0.142v0.522zM8.906 20.448c0 0.050 0.040 0.087 0.091 0.087s0.092-0.038 0.092-0.087c0-0.051-0.041-0.089-0.092-0.089s-0.091 0.038-0.091 0.089zM9.689 20.836c0-0.127-0.075-0.21-0.196-0.21-0.062 0-0.116 0.022-0.153 0.059v-0.047h-0.131v0.522h0.142v-0.305c0-0.060 0.041-0.101 0.099-0.101s0.097 0.041 0.097 0.101v0.305h0.141v-0.324zM9.779 21.071c0.047 0.063 0.124 0.101 0.216 0.101 0.059 0 0.108-0.015 0.145-0.044 0.039-0.029 0.058-0.071 0.058-0.122 0-0.077-0.045-0.118-0.147-0.159l-0.051-0.021c-0.041-0.017-0.055-0.026-0.055-0.046 0-0.024 0.021-0.037 0.056-0.037 0.043 0 0.082 0.017 0.117 0.050l0.072-0.087c-0.047-0.052-0.11-0.078-0.188-0.078-0.114 0-0.192 0.058-0.192 0.156 0 0.077 0.046 0.12 0.142 0.159l0.056 0.023c0.039 0.017 0.054 0.025 0.054 0.047 0 0.028-0.028 0.043-0.066 0.043-0.052 0-0.101-0.023-0.147-0.071l-0.072 0.086z"></path>
<path fill="#0a191e" d="M15.992 20.769c-0.004 0.171 0.144 0.311 0.314 0.308 0.111 0 0.205-0.053 0.256-0.137l-0.072-0.053c-0.042 0.066-0.104 0.103-0.183 0.103-0.122 0-0.215-0.094-0.215-0.22s0.093-0.22 0.215-0.22c0.079 0 0.14 0.037 0.183 0.103l0.072-0.053c-0.052-0.084-0.146-0.137-0.256-0.137-0.17-0.003-0.317 0.137-0.314 0.308zM17.057 20.79c0-0.105-0.063-0.176-0.164-0.176-0.053 0-0.099 0.019-0.128 0.054v-0.278h-0.095v0.678h0.095v-0.264c0-0.061 0.042-0.103 0.101-0.103s0.097 0.042 0.097 0.103v0.264h0.095v-0.277zM17.161 20.845c-0.003 0.126 0.107 0.235 0.234 0.232 0.129 0.003 0.239-0.107 0.236-0.232 0.003-0.126-0.107-0.234-0.236-0.231-0.127-0.002-0.237 0.104-0.234 0.231zM17.533 20.846c0 0.080-0.060 0.144-0.138 0.144s-0.137-0.061-0.137-0.144 0.060-0.145 0.138-0.145c0.077 0 0.137 0.063 0.137 0.145zM17.712 20.845c-0.003 0.126 0.107 0.235 0.234 0.232 0.129 0.003 0.239-0.107 0.236-0.232 0.003-0.126-0.107-0.234-0.236-0.231-0.127-0.002-0.237 0.104-0.234 0.231zM18.084 20.846c0 0.080-0.060 0.144-0.138 0.144s-0.137-0.061-0.137-0.144 0.060-0.145 0.138-0.145c0.077 0 0.137 0.063 0.137 0.145zM18.249 20.992c0.040 0.052 0.103 0.086 0.179 0.086 0.047 0 0.086-0.012 0.117-0.035s0.047-0.058 0.047-0.1c0-0.062-0.037-0.099-0.121-0.134l-0.042-0.017c-0.043-0.018-0.059-0.030-0.059-0.052 0-0.028 0.023-0.042 0.061-0.042 0.039 0 0.076 0.016 0.104 0.045l0.052-0.059c-0.039-0.046-0.089-0.069-0.154-0.069-0.090 0-0.156 0.049-0.156 0.128 0 0.062 0.037 0.097 0.116 0.129l0.045 0.019c0.043 0.018 0.062 0.029 0.062 0.055 0 0.033-0.031 0.050-0.071 0.050-0.047 0-0.086-0.023-0.125-0.063l-0.054 0.060zM19.101 20.877c0.005-0.021 0.007-0.041 0.007-0.060 0-0.116-0.088-0.203-0.205-0.203-0.126-0.003-0.232 0.105-0.23 0.232 0 0.131 0.103 0.231 0.239 0.231 0.068 0 0.127-0.023 0.177-0.071l-0.045-0.065c-0.040 0.035-0.083 0.052-0.129 0.052-0.076 0-0.133-0.044-0.145-0.117h0.331zM18.772 20.803c0.014-0.066 0.065-0.108 0.127-0.108s0.113 0.041 0.114 0.108h-0.241zM19.734 20.987c-0.026 0.003-0.045 0.005-0.059 0.005-0.058 0-0.088-0.020-0.088-0.077v-0.209h0.132v-0.082h-0.132v-0.117h-0.096v0.117h-0.072v0.082h0.072v0.217c0 0.104 0.061 0.154 0.164 0.154 0.023 0 0.049-0.004 0.079-0.010v-0.080zM19.83 21.067h0.095v-0.444h-0.095v0.444zM19.813 20.458c0 0.035 0.029 0.062 0.065 0.062s0.064-0.027 0.064-0.062-0.029-0.063-0.064-0.063c-0.036 0-0.065 0.028-0.065 0.063zM20.728 20.79c0-0.106-0.062-0.176-0.164-0.176-0.062 0-0.117 0.027-0.15 0.070-0.026-0.043-0.073-0.070-0.135-0.070-0.053 0-0.097 0.019-0.128 0.052v-0.042h-0.089v0.444h0.095v-0.264c0-0.061 0.040-0.103 0.098-0.103s0.093 0.042 0.093 0.103v0.264h0.095v-0.268c0-0.057 0.040-0.099 0.098-0.099s0.092 0.041 0.092 0.103v0.264h0.096v-0.277zM21.259 20.877c0.005-0.021 0.007-0.041 0.007-0.060 0-0.116-0.088-0.203-0.205-0.203-0.126-0.003-0.232 0.105-0.23 0.232 0 0.131 0.103 0.231 0.239 0.231 0.068 0 0.127-0.023 0.177-0.071l-0.045-0.065c-0.040 0.035-0.083 0.052-0.129 0.052-0.076 0-0.133-0.044-0.145-0.117h0.331zM20.93 20.803c0.014-0.066 0.065-0.108 0.127-0.108s0.113 0.041 0.114 0.108h-0.241z"></path>
<path fill="#0a191e" d="M16.087 18.599h0.403v-0.086h-0.307v-0.189h0.223v-0.083h-0.223v-0.153h0.296v-0.086h-0.392v0.596zM16.923 17.921v0.288c-0.033-0.041-0.087-0.064-0.148-0.064-0.123-0.003-0.22 0.103-0.217 0.232 0 0.131 0.092 0.231 0.217 0.231 0.066 0 0.123-0.027 0.155-0.073v0.063h0.089v-0.678h-0.096zM16.925 18.378c0 0.097-0.064 0.145-0.134 0.145-0.079 0-0.136-0.061-0.136-0.145s0.061-0.145 0.136-0.145c0.069 0 0.134 0.050 0.134 0.145zM17.156 18.599h0.095v-0.444h-0.095v0.444zM17.139 17.99c0 0.035 0.029 0.062 0.065 0.062s0.064-0.027 0.064-0.062-0.029-0.063-0.064-0.063c-0.036 0-0.065 0.028-0.065 0.063zM17.652 18.518c-0.026 0.003-0.045 0.005-0.059 0.005-0.058 0-0.088-0.020-0.088-0.077v-0.209h0.132v-0.082h-0.132v-0.117h-0.096v0.117h-0.072v0.082h0.072v0.217c0 0.104 0.061 0.154 0.164 0.154 0.023 0 0.049-0.004 0.079-0.010v-0.080zM18.363 18.599h0.103l-0.263-0.606h-0.033l-0.263 0.606h0.102l0.042-0.099h0.268l0.042 0.099zM18.286 18.417h-0.2l0.1-0.247 0.099 0.247zM18.877 17.921v0.288c-0.033-0.041-0.087-0.064-0.148-0.064-0.123-0.003-0.22 0.103-0.217 0.232 0 0.131 0.092 0.231 0.217 0.231 0.066 0 0.123-0.027 0.155-0.073v0.063h0.089v-0.678h-0.096zM18.879 18.378c0 0.097-0.064 0.145-0.134 0.145-0.079 0-0.136-0.061-0.136-0.145s0.061-0.145 0.136-0.145c0.069 0 0.134 0.050 0.134 0.145zM19.447 17.921v0.288c-0.033-0.041-0.087-0.064-0.148-0.064-0.123-0.003-0.22 0.103-0.217 0.232 0 0.131 0.092 0.231 0.217 0.231 0.066 0 0.123-0.027 0.155-0.073v0.063h0.089v-0.678h-0.096zM19.449 18.378c0 0.097-0.064 0.145-0.134 0.145-0.079 0-0.136-0.061-0.136-0.145s0.061-0.145 0.136-0.145c0.069 0 0.134 0.050 0.134 0.145zM19.934 18.155c-0.011-0.003-0.023-0.005-0.036-0.005-0.051 0-0.098 0.023-0.129 0.062v-0.058h-0.089v0.444h0.095v-0.237c0-0.079 0.055-0.123 0.13-0.123h0.029v-0.084zM20.409 18.408c0.005-0.021 0.007-0.041 0.007-0.060 0-0.116-0.088-0.203-0.205-0.203-0.126-0.003-0.232 0.105-0.23 0.232 0 0.131 0.103 0.231 0.239 0.231 0.068 0 0.127-0.023 0.177-0.071l-0.045-0.065c-0.040 0.035-0.083 0.052-0.129 0.052-0.076 0-0.133-0.044-0.145-0.117h0.331zM20.080 18.334c0.014-0.066 0.065-0.108 0.127-0.108s0.113 0.041 0.114 0.108h-0.241zM20.483 18.523c0.040 0.052 0.103 0.086 0.179 0.086 0.047 0 0.086-0.012 0.117-0.035s0.047-0.058 0.047-0.1c0-0.062-0.037-0.099-0.121-0.134l-0.042-0.017c-0.043-0.018-0.059-0.030-0.059-0.052 0-0.028 0.023-0.042 0.061-0.042 0.039 0 0.076 0.016 0.104 0.045l0.052-0.059c-0.039-0.046-0.089-0.069-0.154-0.069-0.090 0-0.156 0.049-0.156 0.128 0 0.062 0.037 0.097 0.116 0.129l0.045 0.019c0.043 0.018 0.062 0.029 0.062 0.055 0 0.033-0.031 0.050-0.071 0.050-0.047 0-0.086-0.023-0.125-0.063l-0.054 0.060zM20.895 18.523c0.040 0.052 0.103 0.086 0.179 0.086 0.047 0 0.086-0.012 0.117-0.035s0.047-0.058 0.047-0.1c0-0.062-0.037-0.099-0.121-0.134l-0.042-0.017c-0.043-0.018-0.059-0.030-0.059-0.052 0-0.028 0.023-0.042 0.061-0.042 0.039 0 0.076 0.016 0.104 0.045l0.052-0.059c-0.039-0.046-0.089-0.069-0.154-0.069-0.090 0-0.156 0.049-0.156 0.128 0 0.062 0.037 0.097 0.116 0.129l0.045 0.019c0.043 0.018 0.062 0.029 0.062 0.055 0 0.033-0.031 0.050-0.071 0.050-0.047 0-0.086-0.023-0.125-0.063l-0.054 0.060z"></path>
<path fill="#fff" d="M6.237 1.223h11.693v0.609c0 0.637-0.516 1.153-1.153 1.153h-9.386c-0.637 0-1.153-0.516-1.153-1.153v-0.291c-0.001-0.176-0.144-0.318-0.32-0.318v0 0h0.32zM18.25 1.223h-0.32v0.319c0.001-0.176 0.144-0.319 0.32-0.319v0z"></path>
<path fill="#e4e8ef" d="M10.978 1.64h2.274c0.124 0 0.224 0.1 0.224 0.224s-0.1 0.224-0.224 0.224h-2.274c-0.124 0-0.224-0.1-0.224-0.224s0.1-0.224 0.224-0.224z"></path>
<path fill="#e4e8ef" d="M14.758 1.864c0 0.124-0.1 0.224-0.224 0.224s-0.224-0.1-0.224-0.224c0-0.124 0.1-0.224 0.224-0.224s0.224 0.1 0.224 0.224z"></path>
<path fill="#000" opacity="0.3" d="M14.654 0.038h13.030v28.185h-13.030v-28.185z"></path>
</svg>
