<!-- Generated by IcoMoon.io -->
<svg version="1.1" xmlns="http://www.w3.org/2000/svg" width="29" height="32" viewBox="0 0 29 32">
<path fill="#f17228" d="M1.083 1.372c-0.201 0.351-0.315 0.809-0.315 1.36v26.539c0 0.552 0.114 1.010 0.315 1.361l14.629-14.631-14.629-14.629zM1.635 31.21c0.554 0.338 1.328 0.305 2.182-0.179l17.169-9.756-4.709-4.709-14.642 14.644zM21.708 20.866l5.51-3.131c1.676-0.954 1.676-2.513 0-3.466l-5.512-3.132-4.863 4.863 4.865 4.865zM20.984 10.727l-17.167-9.755c-0.853-0.485-1.627-0.517-2.182-0.179l14.642 14.642 4.707-4.708z"></path>
</svg>
