<!-- Generated by IcoMoon.io -->
<svg version="1.1" xmlns="http://www.w3.org/2000/svg" width="32" height="32" viewBox="0 0 32 32">
<path fill="#f5f5f5" d="M16.727 8.159c-4.364 0-7.841 3.545-7.841 7.841 0 4.364 3.477 7.841 7.841 7.841 4.295 0 7.841-3.477 7.841-7.841 0-4.295-3.545-7.841-7.841-7.841zM16.727 21.114c-2.795 0-5.114-2.25-5.114-5.114 0-2.795 2.25-5.045 5.114-5.045 2.796 0 5.046 2.25 5.046 5.045 0 2.864-2.25 5.114-5.046 5.114zM26.682 7.886c0-1.023-0.818-1.841-1.841-1.841s-1.841 0.818-1.841 1.841c0 1.023 0.818 1.841 1.841 1.841s1.841-0.818 1.841-1.841zM31.864 9.727c-0.136-2.455-0.682-4.636-2.454-6.409s-3.955-2.318-6.409-2.455c-2.523-0.136-10.091-0.136-12.614 0-2.455 0.136-4.568 0.682-6.409 2.455-1.773 1.773-2.318 3.955-2.455 6.409-0.136 2.523-0.136 10.091 0 12.614 0.136 2.455 0.682 4.568 2.455 6.409 1.841 1.773 3.955 2.318 6.409 2.455 2.523 0.136 10.091 0.136 12.614 0 2.455-0.136 4.636-0.682 6.409-2.455 1.773-1.841 2.318-3.954 2.454-6.409 0.136-2.523 0.136-10.091 0-12.614zM28.591 25c-0.477 1.364-1.568 2.386-2.864 2.932-2.046 0.818-6.818 0.614-9 0.614-2.25 0-7.023 0.204-9-0.614-1.364-0.545-2.386-1.568-2.932-2.932-0.818-1.977-0.614-6.75-0.614-9 0-2.182-0.205-6.955 0.614-9 0.545-1.295 1.568-2.318 2.932-2.864 1.977-0.818 6.75-0.614 9-0.614 2.182 0 6.954-0.205 9 0.614 1.295 0.477 2.318 1.568 2.864 2.864 0.818 2.045 0.614 6.818 0.614 9 0 2.25 0.205 7.023-0.614 9z"></path>
</svg>
