<!-- Generated by IcoMoon.io -->
<svg version="1.1" xmlns="http://www.w3.org/2000/svg" width="25" height="32" viewBox="0 0 25 32">
<path fill="#ffb30e" d="M11.447 30.987c-8.645-12.434-10.184-13.737-10.184-18.355 0-6.276 5.033-11.368 11.368-11.368 6.276 0 11.368 5.092 11.368 11.368 0 4.618-1.599 5.921-10.243 18.355-0.533 0.829-1.776 0.829-2.309 0zM12.632 17.368c2.605 0 4.737-2.072 4.737-4.737 0-2.605-2.132-4.737-4.737-4.737-2.664 0-4.737 2.132-4.737 4.737 0 2.664 2.072 4.737 4.737 4.737z"></path>
</svg>
