<!-- Generated by IcoMoon.io -->
<svg version="1.1" xmlns="http://www.w3.org/2000/svg" width="27" height="32" viewBox="0 0 27 32">
<path fill="#757575" d="M20.842 9.895h5.684v16.105c0 2.664-2.132 4.737-4.737 4.737h-17.053c-2.664 0-4.737-2.072-4.737-4.737v-16.105h5.684v-1.895c0-4.145 3.375-7.579 7.579-7.579 4.145 0 7.579 3.434 7.579 7.579v1.895zM9.474 8v1.895h7.579v-1.895c0-2.072-1.717-3.789-3.789-3.789-2.132 0-3.789 1.717-3.789 3.789zM18.947 15.105c0.77 0 1.421-0.592 1.421-1.421 0-0.77-0.651-1.421-1.421-1.421-0.829 0-1.421 0.651-1.421 1.421 0 0.829 0.592 1.421 1.421 1.421zM7.579 15.105c0.77 0 1.421-0.592 1.421-1.421 0-0.77-0.651-1.421-1.421-1.421-0.829 0-1.421 0.651-1.421 1.421 0 0.829 0.592 1.421 1.421 1.421z"></path>
</svg>
