<!-- Generated by IcoMoon.io -->
<svg version="1.1" xmlns="http://www.w3.org/2000/svg" width="32" height="32" viewBox="0 0 32 32">
<path fill="#000" d="M27.059 16.118c0 1.283-0.196 2.521-0.56 3.684-0.040 0.13-0.082 0.258-0.128 0.386-0.144 0.416-0.311 0.821-0.498 1.215-0.157 0.332-0.329 0.656-0.515 0.971-0.371 0.631-0.796 1.226-1.271 1.779-0.496 0.579-1.045 1.112-1.639 1.591-2.118 1.706-4.812 2.728-7.744 2.728-6.822 0-12.353-5.531-12.353-12.353s5.531-12.353 12.353-12.353c6.822 0 12.353 5.531 12.353 12.353z"></path>
<path fill="#000" d="M14.758 7.765c-0.484 0-0.876 7.064-0.876 7.553 0 0.311 0.16 0.585 0.4 0.742l9.025 9.116c1.522-1.48 2.669-3.352 3.281-5.455-2.015-2.021-11.83-11.956-11.83-11.956z"></path>
<path fill="#000" d="M14.824 16.941c0.39 0 0.706-0.316 0.706-0.706s-0.316-0.706-0.706-0.706c-0.39 0-0.706 0.316-0.706 0.706s0.316 0.706 0.706 0.706z"></path>
<path fill="#000" d="M14.706 6.353c-0.097 0-0.186 0.034-0.25 0.089s-0.103 0.13-0.103 0.214v2.218c0 0.063 0.022 0.121 0.060 0.169 0.025 0.032 0.058 0.060 0.095 0.082 0.019 0.011 0.039 0.020 0.060 0.028 0.042 0.015 0.089 0.024 0.137 0.024 0.097 0 0.186-0.034 0.25-0.089s0.103-0.13 0.103-0.214v-2.218c0-0.167-0.158-0.303-0.353-0.303z"></path>
<path fill="#000" d="M14.706 23.059c-0.195 0-0.353 0.147-0.353 0.328v2.403c0 0.031 0.006 0.061 0.015 0.089 0.042 0.137 0.177 0.238 0.338 0.238 0.049 0 0.095-0.009 0.137-0.026 0.127-0.050 0.216-0.166 0.216-0.302v-2.403c0-0.181-0.158-0.328-0.353-0.328z"></path>
<path fill="#000" d="M24.378 15.765h-2.403c-0.181 0-0.328 0.158-0.328 0.353s0.147 0.353 0.328 0.353h2.403c0.181 0 0.328-0.158 0.328-0.353s-0.147-0.353-0.328-0.353z"></path>
<path fill="#000" d="M7.765 16.118c0-0.073-0.019-0.141-0.052-0.197-0.022-0.038-0.050-0.070-0.082-0.095-0.048-0.038-0.106-0.060-0.169-0.060h-2.218c-0.084 0-0.159 0.040-0.214 0.103s-0.089 0.152-0.089 0.25c0 0.195 0.135 0.353 0.303 0.353h2.218c0.084 0 0.159-0.040 0.214-0.103s0.089-0.152 0.089-0.25z"></path>
<path fill="#000" d="M20.088 11.208l1.698-1.528c0.128-0.115 0.128-0.302 0-0.417s-0.335-0.115-0.463 0l-1.698 1.528c-0.128 0.115-0.128 0.302 0 0.417s0.335 0.115 0.463 0z"></path>
<path fill="#000" d="M9.796 21.037c-0.115-0.128-0.302-0.128-0.417 0l-1.528 1.698c-0.099 0.11-0.112 0.279-0.040 0.406 0.009 0.016 0.020 0.031 0.032 0.046 0.003 0.004 0.005 0.008 0.008 0.012 0.056 0.062 0.129 0.094 0.203 0.095 0.002 0 0.004 0.001 0.005 0.001 0.075 0 0.151-0.032 0.208-0.096l1.528-1.698c0.043-0.048 0.070-0.107 0.081-0.169 0.004-0.021 0.005-0.042 0.005-0.063 0-0.084-0.029-0.168-0.086-0.232z"></path>
<path fill="#000" d="M21.787 22.735l-1.699-1.699c-0.040-0.040-0.088-0.066-0.139-0.081-0.049-0.014-0.1-0.018-0.15-0.010-0.064 0.011-0.126 0.041-0.175 0.090-0.128 0.128-0.128 0.335 0 0.463l1.699 1.699c0.019 0.019 0.041 0.035 0.063 0.048 0.126 0.076 0.292 0.061 0.401-0.048 0.052-0.052 0.082-0.118 0.091-0.186 0.014-0.098-0.016-0.202-0.092-0.278z"></path>
<path fill="#000" d="M8.268 9.263c-0.058-0.058-0.133-0.086-0.208-0.086-0.019 0-0.038 0.002-0.056 0.005-0.056 0.011-0.109 0.038-0.152 0.081-0.058 0.058-0.086 0.133-0.086 0.208 0 0.019 0.002 0.038 0.005 0.056 0.011 0.056 0.038 0.109 0.081 0.152l1.528 1.528c0.003 0.003 0.006 0.004 0.008 0.007 0.027 0.025 0.057 0.045 0.089 0.058 0.035 0.014 0.073 0.022 0.111 0.022 0.075 0 0.151-0.029 0.208-0.086 0.043-0.043 0.070-0.096 0.081-0.152 0.004-0.019 0.005-0.037 0.005-0.056 0-0.075-0.029-0.151-0.086-0.208l-1.528-1.528z"></path>
<path fill="#000" d="M25.882 21.504c-0.156 0.335-0.328 0.662-0.513 0.979-0.37 0.637-0.794 1.237-1.267 1.794-0.495 0.584-1.042 1.121-1.634 1.604l-8.665-8.754c-0.522-0.527-0.522-1.381 0-1.908 0.023-0.023 0.046-0.045 0.071-0.066 0.499-0.44 1.245-0.44 1.745 0 0.025 0.021 0.048 0.043 0.071 0.066s0.046 0.048 0.066 0.073h0.001c0.015 0.001 0.031 0.002 0.048 0.002 0.029 0.002 0.062 0.004 0.096 0.006 0.182 0.012 0.431 0.031 0.72 0.058 0.086 0.008 0.176 0.016 0.27 0.026 0.067 0.007 0.136 0.013 0.206 0.021 0.059 0.006 0.119 0.012 0.181 0.019 0.045 0.005 0.090 0.010 0.136 0.015 0.072 0.008 0.145 0.016 0.218 0.025 0.348 0.041 0.709 0.086 1.053 0.138 0.047 0.007 0.094 0.014 0.14 0.022 0.007 0.001 0.015 0.002 0.022 0.003 0.054 0.009 0.107 0.017 0.16 0.025 0.052 0.009 0.104 0.018 0.155 0.027 0.034 0.006 0.068 0.012 0.102 0.018 0.052 0.009 0.103 0.019 0.154 0.029 0.025 0.005 0.051 0.009 0.076 0.014 0.052 0.011 0.102 0.021 0.152 0.031 0.015 0.003 0.030 0.006 0.045 0.009 0.020 0.005 0.040 0.009 0.059 0.013 0.009 0.002 0.018 0.004 0.028 0.006 0.029 0.007 0.057 0.013 0.084 0.019 0.019 0.005 0.038 0.009 0.055 0.013 0.072 0.019 0.139 0.037 0.202 0.055 0.015 0.005 0.029 0.009 0.043 0.013 0.012 0.003 0.022 0.007 0.033 0.010 0.016 0.005 0.032 0.011 0.047 0.016 0.005 0.002 0.011 0.003 0.016 0.005 0.031 0.011 0.059 0.021 0.086 0.032 0.002 0.001 0.005 0.002 0.008 0.003 0.015 0.006 0.029 0.012 0.043 0.018 0.033 0.015 0.062 0.029 0.089 0.044 0.012 0.007 0.022 0.013 0.032 0.019 0.032 0.021 0.057 0.042 0.073 0.063 0.005 0.005 0.009 0.012 0.012 0.017 0.001 0.002 0.002 0.002 0.002 0.003 0.004 0.007 0.007 0.014 0.009 0.022s0.003 0.014 0.003 0.021l5.27 5.331z"></path>
<path fill="#000" d="M15.701 17.176c-0.485 0-0.878-0.421-0.878-0.941s0.393-0.941 0.878-0.941c0.485 0 5.005 0.421 5.005 0.941s-4.52 0.941-5.005 0.941z"></path>
<path fill="#000" d="M15.765 15.347c0 0.491-0.421 0.888-0.941 0.888s-0.941-0.398-0.941-0.888c0-0.491 0.421-7.582 0.941-7.582s0.941 7.092 0.941 7.582z"></path>
<path fill="#fff" d="M14.706 17.412c0.715 0 1.294-0.579 1.294-1.294s-0.579-1.294-1.294-1.294c-0.715 0-1.294 0.579-1.294 1.294s0.579 1.294 1.294 1.294z"></path>
<path fill="#000" d="M30.957 14.056h-1.488c-1.033-7.14-7.212-12.644-14.658-12.644-8.167 0-14.811 6.622-14.811 14.761 0 3.359 1.162 6.646 3.273 9.256 2.079 2.571 4.992 4.393 8.203 5.129 0.088 0.020 0.176 0.030 0.262 0.030 0.53 0 1.010-0.363 1.134-0.9 0.144-0.625-0.247-1.248-0.873-1.391-2.704-0.621-5.159-2.156-6.912-4.324-1.804-2.231-2.757-4.928-2.757-7.8 0-6.86 5.599-12.44 12.482-12.44 6.159 0 11.289 4.469 12.3 10.324h-1.228c-0.928 0-1.392 1.118-0.736 1.771l2.537 2.528c0.407 0.405 1.066 0.405 1.472 0l2.537-2.528c0.656-0.654 0.191-1.771-0.736-1.771z"></path>
</svg>
