<!-- Generated by IcoMoon.io -->
<svg version="1.1" xmlns="http://www.w3.org/2000/svg" width="22" height="32" viewBox="0 0 22 32">
<path fill="#ff7474" d="M9.923 30.12c-8.423-12.115-9.923-13.385-9.923-17.885 0-6.115 4.904-11.077 11.077-11.077 6.115 0 11.077 4.962 11.077 11.077 0 4.5-1.558 5.769-9.981 17.885-0.519 0.808-1.731 0.808-2.25 0zM11.077 16.851c2.538 0 4.615-2.019 4.615-4.615 0-2.538-2.077-4.615-4.615-4.615-2.596 0-4.615 2.077-4.615 4.615 0 2.596 2.019 4.615 4.615 4.615z"></path>
</svg>
