<!-- Generated by IcoMoon.io -->
<svg version="1.1" xmlns="http://www.w3.org/2000/svg" width="32" height="32" viewBox="0 0 32 32">
<path fill="#ffb30e" d="M29.901 26.651c0.533 0.592 0.533 1.48-0.059 2.013l-1.658 1.658c-0.533 0.592-1.421 0.592-2.013 0l-5.862-5.862c-0.296-0.296-0.414-0.651-0.414-1.006v-1.007c-2.132 1.658-4.737 2.605-7.579 2.605-6.809 0-12.316-5.507-12.316-12.316 0-6.75 5.507-12.316 12.316-12.316 6.75 0 12.316 5.566 12.316 12.316 0 2.901-1.007 5.507-2.605 7.579h0.947c0.355 0 0.711 0.178 1.007 0.414l5.921 5.921zM12.316 20.316c4.145 0 7.579-3.375 7.579-7.579 0-4.145-3.434-7.579-7.579-7.579-4.204 0-7.579 3.434-7.579 7.579 0 4.204 3.375 7.579 7.579 7.579z"></path>
</svg>
