<!-- Generated by IcoMoon.io -->
<svg version="1.1" xmlns="http://www.w3.org/2000/svg" width="19" height="32" viewBox="0 0 19 32">
<path fill="#e4e8ef" d="M3.472 0.11h11.601c1.763 0 3.193 1.429 3.193 3.193v34.163c0 1.763-1.429 3.193-3.193 3.193h-11.601c-1.763 0-3.193-1.429-3.193-3.193v-34.163c0-1.763 1.429-3.193 3.193-3.193z"></path>
<path fill="#fff" d="M0 6.524c0-0.030 0.025-0.055 0.055-0.055h0.114v1.531h-0.114c-0.030 0-0.055-0.025-0.055-0.055v-1.421z"></path>
<path fill="#fff" d="M0.048 9.455c0-0.030 0.025-0.055 0.055-0.055h0.066v3.063h-0.066c-0.030 0-0.055-0.025-0.055-0.055v-2.953z"></path>
<path fill="#fff" d="M0.048 13.336c0-0.030 0.025-0.055 0.055-0.055h0.066v3.063h-0.066c-0.030 0-0.055-0.025-0.055-0.055v-2.953z"></path>
<path fill="#fff" d="M18.496 15.233c0 0.030-0.025 0.055-0.055 0.055h-0.066v-4.858h0.066c0.030 0 0.055 0.025 0.055 0.055v4.748z"></path>
<path fill="#fff" d="M3.459 0.343h11.602c1.657 0 3 1.343 3 3v34.108c0 1.657-1.343 3-3 3h-11.602c-1.657 0-3-1.343-3-3v-34.108c0-1.657 1.343-3 3-3zM3.352 0.977c-1.277 0-2.312 1.035-2.312 2.312v34.19c0 1.277 1.035 2.312 2.312 2.312h11.817c1.277 0 2.312-1.035 2.312-2.312v-34.19c0-1.277-1.035-2.312-2.312-2.312h-11.817z"></path>
<path fill="#f8f8f8" d="M0.631 0.847h19.642v42.531h-19.642v-42.531z"></path>
<path fill="#f1f2f6" d="M1.993 8.704h16.918c0.289 0 0.524 0.235 0.524 0.524v1.1c0 0.289-0.235 0.524-0.524 0.524h-16.918c-0.289 0-0.524-0.235-0.524-0.524v-1.1c0-0.289 0.234-0.524 0.524-0.524z"></path>
<path fill="#f1f2f6" d="M1.993 31.645h16.918c0.289 0 0.524 0.235 0.524 0.524v10.004c0 0.289-0.235 0.524-0.524 0.524h-16.918c-0.289 0-0.524-0.234-0.524-0.524v-10.004c0-0.289 0.234-0.524 0.524-0.524z"></path>
<path fill="#ffb30e" d="M16.502 3.151h1.467c0.463 0 0.838 0.375 0.838 0.838v0.576c0 0.463-0.375 0.838-0.838 0.838h-1.467c-0.463 0-0.838-0.375-0.838-0.838v-0.576c0-0.463 0.375-0.838 0.838-0.838z"></path>
<path fill="#f1f2f6" d="M2.307 11.846h2.043c0.463 0 0.838 0.375 0.838 0.838v2.095c0 0.463-0.375 0.838-0.838 0.838h-2.043c-0.463 0-0.838-0.375-0.838-0.838v-2.095c0-0.463 0.375-0.838 0.838-0.838z"></path>
<path fill="#000" d="M4.206 14.641c0.010-0.010 0.012-0.025 0.007-0.038l-0.577-1.497c0.031-0.053 0.037-0.12 0.010-0.18-0.045-0.1-0.162-0.146-0.263-0.101-0.236 0.105-0.447 0.253-0.625 0.441s-0.316 0.405-0.409 0.647c-0.010 0.025-0.014 0.051-0.013 0.076 0.002 0.078 0.050 0.151 0.127 0.181 0.052 0.020 0.107 0.017 0.154-0.005l1.55 0.486c0.013 0.004 0.028 0 0.037-0.010zM3.646 13.334l0.061 0.159c-0.020 0.019-0.047 0.029-0.075 0.026-0.025-0.003-0.047-0.015-0.062-0.034s-0.023-0.043-0.020-0.068c0.003-0.025 0.015-0.047 0.034-0.062 0.018-0.014 0.040-0.021 0.062-0.021zM2.49 14.101c-0.065-0.025-0.098-0.098-0.072-0.163 0.181-0.471 0.535-0.842 0.995-1.047 0.031-0.014 0.065-0.015 0.097-0.002s0.056 0.036 0.070 0.067c0.014 0.031 0.015 0.065 0.002 0.097s-0.036 0.056-0.067 0.070c-0.197 0.088-0.373 0.211-0.521 0.368s-0.263 0.338-0.341 0.539c-0.025 0.065-0.098 0.098-0.163 0.072zM3.601 14.396c0-0.003 0-0.007 0-0.010 0.003-0.025 0.015-0.047 0.034-0.062s0.043-0.023 0.068-0.020c0.051 0.005 0.088 0.051 0.082 0.102-0.002 0.016-0.007 0.031-0.016 0.043l-0.169-0.053zM3.841 14.472c0.009-0.018 0.015-0.038 0.017-0.058 0.010-0.091-0.056-0.172-0.147-0.182-0.044-0.005-0.087 0.008-0.121 0.036-0.033 0.027-0.054 0.064-0.060 0.106l-0.213-0.067 0.062-0.085c0.012-0.016 0.008-0.039-0.008-0.051s-0.039-0.008-0.051 0.008l-0.076 0.105-0.555-0.174c0.013-0.016 0.024-0.035 0.032-0.055 0.15-0.39 0.442-0.697 0.824-0.867 0.013-0.006 0.026-0.013 0.037-0.021l0.037 0.097c-0.029 0.004-0.057 0.016-0.081 0.035-0.034 0.028-0.056 0.067-0.061 0.111-0.001 0.007-0.001 0.015-0.001 0.022 0.001 0.036 0.014 0.071 0.037 0.099 0.028 0.034 0.067 0.056 0.111 0.061 0.039 0.004 0.078-0.006 0.11-0.027l0.173 0.448-0.041 0.018c-0.014 0.006-0.022 0.020-0.022 0.034 0 0.005 0.001 0.009 0.003 0.014 0.008 0.018 0.030 0.027 0.048 0.018l0.038-0.017 0.184 0.478-0.277-0.087z"></path>
<path fill="#0a191e" d="M4.206 14.641v0zM4.213 14.603l-0.147 0.056 0 0 0.147-0.057zM3.636 13.106l-0.136-0.079-0.038 0.065 0.027 0.070 0.147-0.056zM3.646 12.925v0zM3.383 12.824v0zM2.349 13.912v0zM2.336 13.988v0zM2.464 14.169v0zM2.618 14.164l0.047-0.15-0.058-0.018-0.055 0.025 0.066 0.143zM4.168 14.651l-0.047 0.15v0l0.047-0.15zM3.646 13.334l0.147-0.056-0.037-0.096-0.103-0.005-0.007 0.157zM3.707 13.493l0.11 0.112 0.073-0.072-0.037-0.096-0.147 0.056zM3.632 13.519l-0.017 0.156h0l0.017-0.156zM3.55 13.417v0zM3.584 13.355v0zM2.49 14.101v0zM2.417 13.938v0zM3.413 12.891v0zM3.509 12.888v0zM3.515 13.121v0zM2.653 14.029v0zM3.601 14.396l-0.157 0 0 0.115 0.11 0.034 0.047-0.15zM3.601 14.386l-0.156-0.017-0 0 0.156 0.016zM3.635 14.324v0zM3.703 14.304l0.017-0.156h-0l-0.017 0.156zM3.786 14.406v0zM3.77 14.449l-0.047 0.15 0.11 0.034 0.066-0.094-0.129-0.090zM3.841 14.472l-0.14-0.072-0.085 0.166 0.178 0.056 0.047-0.15zM3.858 14.414v0zM3.711 14.232v0zM3.59 14.267v0zM3.53 14.374l-0.047 0.15 0.178 0.056 0.025-0.185-0.156-0.021zM3.317 14.307l-0.127-0.092-0.129 0.177 0.209 0.065 0.047-0.15zM3.378 14.222v0zM3.37 14.171v0zM3.319 14.179v0zM3.243 14.284l-0.047 0.15 0.108 0.034 0.066-0.091-0.127-0.092zM2.689 14.11l-0.121-0.1-0.149 0.18 0.223 0.070 0.047-0.15zM2.721 14.055v0zM3.545 13.188v0zM3.582 13.167l0.147-0.056-0.074-0.192-0.166 0.121 0.093 0.127zM3.619 13.263l0.022 0.156 0.196-0.028-0.071-0.184-0.147 0.056zM3.538 13.298v0zM3.478 13.41v0zM3.514 13.531v0zM3.625 13.592l-0.017 0.156h0l0.017-0.156zM3.735 13.564l0.147-0.056-0.071-0.184-0.164 0.11 0.088 0.13zM3.908 14.012l0.064 0.144 0.137-0.061-0.054-0.139-0.147 0.056zM3.867 14.030l-0.064-0.144-0 0 0.064 0.144zM3.848 14.078v0zM3.896 14.097v0zM3.934 14.080l0.147-0.056-0.059-0.154-0.151 0.067 0.064 0.144zM4.118 14.559l-0.047 0.15 0.311 0.098-0.117-0.304-0.147 0.056zM4.32 14.748c0.051-0.054 0.066-0.133 0.039-0.202l-0.293 0.113c-0.017-0.044-0.007-0.093 0.024-0.126l0.229 0.215zM4.36 14.546l-0.577-1.497-0.293 0.113 0.577 1.497 0.293-0.113zM3.772 13.184c0.055-0.095 0.065-0.214 0.017-0.323l-0.287 0.128c0.005 0.012 0.005 0.026-0.002 0.038l0.272 0.157zM3.789 12.861c-0.080-0.18-0.29-0.261-0.47-0.181l0.128 0.287c0.021-0.009 0.046 0 0.055 0.021l0.287-0.128zM3.319 12.681c-0.255 0.113-0.483 0.274-0.675 0.476l0.228 0.216c0.164-0.173 0.357-0.309 0.575-0.406l-0.128-0.287zM2.644 13.157c-0.192 0.203-0.341 0.438-0.441 0.698l0.293 0.113c0.086-0.222 0.212-0.422 0.376-0.595l-0.228-0.216zM2.203 13.855c-0.017 0.045-0.025 0.091-0.024 0.137l0.314-0.008c-0-0.005 0.001-0.010 0.003-0.016l-0.293-0.113zM2.179 13.992c0.004 0.139 0.089 0.27 0.228 0.324l0.113-0.293c-0.016-0.006-0.026-0.021-0.027-0.038l-0.314 0.008zM2.407 14.316c0.093 0.036 0.193 0.030 0.276-0.009l-0.131-0.286c-0.010 0.005-0.022 0.005-0.033 0.001l-0.113 0.293zM2.571 14.314l1.55 0.486 0.094-0.3-1.55-0.486-0.094 0.3zM4.121 14.8c0.071 0.022 0.148 0.002 0.199-0.052l-0.229-0.215c0.032-0.034 0.080-0.046 0.124-0.033l-0.094 0.3zM3.5 13.391l0.061 0.159 0.293-0.113-0.061-0.159-0.293 0.113zM3.597 13.381c0.014-0.013 0.033-0.020 0.052-0.018l-0.033 0.313c0.075 0.008 0.149-0.019 0.202-0.071l-0.221-0.224zM3.649 13.363c0.017 0.002 0.033 0.010 0.043 0.024l-0.244 0.198c0.042 0.052 0.102 0.084 0.168 0.091l0.033-0.313zM3.692 13.387c0.011 0.013 0.016 0.030 0.014 0.047l-0.313-0.033c-0.007 0.066 0.012 0.132 0.054 0.183l0.244-0.198zM3.706 13.434c-0.002 0.017-0.010 0.033-0.024 0.043l-0.198-0.244c-0.052 0.042-0.084 0.102-0.091 0.168l0.313 0.033zM3.683 13.477c-0.012 0.010-0.028 0.015-0.043 0.014l0.014-0.314c-0.061-0.003-0.12 0.017-0.168 0.055l0.198 0.244zM2.546 13.954c0.016 0.006 0.024 0.024 0.018 0.040l-0.293-0.113c-0.056 0.146 0.017 0.31 0.163 0.366l0.113-0.293zM2.564 13.994c0.166-0.432 0.49-0.772 0.912-0.96l-0.128-0.287c-0.499 0.222-0.882 0.625-1.078 1.134l0.293 0.113zM3.477 13.034c-0.007 0.003-0.016 0.003-0.024 0.001l0.113-0.293c-0.070-0.027-0.148-0.025-0.217 0.005l0.128 0.287zM3.453 13.035c-0.007-0.003-0.014-0.009-0.017-0.016l0.287-0.128c-0.031-0.069-0.087-0.122-0.157-0.149l-0.113 0.293zM3.436 13.019c-0.003-0.007-0.003-0.016-0.001-0.024l0.293 0.113c0.027-0.070 0.025-0.148-0.006-0.217l-0.287 0.128zM3.435 12.995c0.003-0.007 0.009-0.014 0.016-0.017l0.128 0.287c0.069-0.031 0.122-0.087 0.149-0.157l-0.293-0.113zM3.451 12.978c-0.216 0.096-0.409 0.232-0.571 0.403l0.228 0.216c0.134-0.142 0.293-0.253 0.471-0.332l-0.128-0.287zM2.88 13.381c-0.163 0.171-0.289 0.37-0.374 0.591l0.293 0.113c0.070-0.182 0.174-0.346 0.308-0.488l-0.228-0.216zM2.506 13.972c0.006-0.016 0.024-0.024 0.040-0.018l-0.113 0.293c0.146 0.056 0.31-0.017 0.366-0.163l-0.293-0.113zM3.758 14.396c0 0 0 0.001-0 0.002s-0 0.003-0 0.005l-0.313-0.033c-0.001 0.011-0.001 0.020-0.001 0.026l0.314-0zM3.758 14.403c-0.002 0.017-0.010 0.033-0.024 0.043l-0.198-0.244c-0.052 0.042-0.084 0.102-0.091 0.168l0.313 0.033zM3.734 14.446c-0.013 0.011-0.030 0.016-0.047 0.014l0.033-0.313c-0.066-0.007-0.132 0.012-0.183 0.054l0.198 0.244zM3.687 14.46c-0.035-0.004-0.061-0.035-0.057-0.071l0.313 0.033c0.014-0.137-0.085-0.26-0.222-0.275l-0.033 0.313zM3.63 14.389c0.001-0.012 0.005-0.022 0.011-0.030l0.258 0.18c0.024-0.034 0.039-0.074 0.044-0.117l-0.313-0.033zM3.817 14.299l-0.169-0.053-0.094 0.3 0.169 0.053 0.094-0.3zM3.981 14.543c0.018-0.035 0.029-0.073 0.034-0.113l-0.313-0.033c-0 0.001-0 0.002-0.001 0.003l0.28 0.143zM4.015 14.43c0.019-0.177-0.11-0.336-0.287-0.355l-0.033 0.313c0.002 0 0.004 0.001 0.006 0.003s0.002 0.004 0.002 0.006l0.313 0.033zM3.728 14.075c-0.085-0.009-0.17 0.016-0.237 0.070l0.198 0.244c0.001-0.001 0.002-0.001 0.003-0.002s0.002-0 0.003-0l0.033-0.313zM3.491 14.145c-0.064 0.052-0.106 0.126-0.117 0.208l0.311 0.042c0-0.001 0.001-0.002 0.001-0.003s0.001-0.001 0.002-0.002l-0.198-0.244zM3.577 14.224l-0.213-0.067-0.094 0.3 0.213 0.067 0.094-0.3zM3.444 14.399l0.062-0.085-0.254-0.185-0.062 0.085 0.254 0.185zM3.505 14.315c0.063-0.086 0.044-0.207-0.043-0.27l-0.185 0.254c-0.054-0.039-0.066-0.115-0.027-0.169l0.254 0.185zM3.463 14.044c-0.086-0.063-0.207-0.044-0.27 0.043l0.254 0.185c-0.039 0.054-0.115 0.066-0.169 0.027l0.185-0.254zM3.192 14.087l-0.076 0.105 0.254 0.185 0.076-0.105-0.254-0.185zM3.29 14.134l-0.555-0.174-0.094 0.3 0.555 0.174 0.094-0.3zM2.81 14.21c0.024-0.029 0.044-0.062 0.058-0.099l-0.293-0.113c-0.002 0.004-0.004 0.008-0.007 0.012l0.242 0.2zM2.868 14.111c0.135-0.351 0.398-0.627 0.741-0.78l-0.128-0.287c-0.419 0.186-0.742 0.526-0.907 0.954l0.293 0.113zM3.609 13.332c0.024-0.011 0.046-0.024 0.066-0.038l-0.186-0.254c-0.003 0.002-0.005 0.003-0.008 0.005l0.128 0.287zM3.435 13.223l0.037 0.097 0.293-0.113-0.037-0.097-0.293 0.113zM3.597 13.108c-0.058 0.008-0.112 0.032-0.157 0.069l0.198 0.244c0.001-0.001 0.002-0.001 0.002-0.001s0.001-0 0.002-0l-0.044-0.311zM3.439 13.176c-0.067 0.054-0.109 0.132-0.118 0.217l0.313 0.033c0-0.002 0.001-0.003 0.001-0.003s0.001-0.001 0.002-0.002l-0.198-0.244zM3.321 13.393c-0.002 0.014-0.002 0.028-0.002 0.043l0.314-0.008c0-0 0-0.001 0-0.001l-0.313-0.033zM3.32 13.436c0.002 0.071 0.027 0.139 0.072 0.194l0.244-0.198c-0.001-0.001-0.001-0.002-0.001-0.002s-0-0.001-0-0.002l-0.314 0.008zM3.391 13.63c0.054 0.067 0.132 0.109 0.217 0.118l0.033-0.313c-0.002-0-0.003-0.001-0.003-0.001s-0.001-0.001-0.002-0.002l-0.244 0.198zM3.608 13.748c0.077 0.008 0.153-0.012 0.214-0.053l-0.176-0.26c-0.002 0.001-0.004 0.002-0.006 0.001l-0.033 0.313zM3.588 13.621l0.173 0.448 0.293-0.113-0.173-0.448-0.293 0.113zM3.844 13.869l-0.041 0.018 0.128 0.287 0.041-0.018-0.128-0.287zM3.803 13.887c-0.074 0.033-0.117 0.106-0.115 0.182l0.314-0.008c0.001 0.047-0.025 0.093-0.072 0.113l-0.128-0.287zM3.688 14.069c0.001 0.025 0.006 0.050 0.017 0.074l0.287-0.127c0.006 0.015 0.010 0.030 0.010 0.046l-0.314 0.008zM3.704 14.142c0.043 0.098 0.158 0.142 0.255 0.098l-0.128-0.287c0.061-0.027 0.132 0 0.159 0.061l-0.287 0.128zM3.96 14.241l0.038-0.017-0.128-0.287-0.038 0.017 0.128 0.287zM3.787 14.137l0.184 0.478 0.293-0.113-0.184-0.478-0.293 0.113zM4.165 14.409l-0.277-0.087-0.094 0.3 0.277 0.087 0.094-0.3z"></path>
<path fill="#000" d="M3.213 13.156c0 0 0 0 0 0s0 0 0 0c0.004 0.006 0.006 0.013 0.006 0.020 0 0.012-0.005 0.023-0.015 0.030l-0 0-0 0-0 0c-0.016 0.011-0.039 0.007-0.050-0.009l0.030-0.021 0-0 0-0 0-0 0-0 0-0h0l0.030-0.021zM3.213 13.156c-0.011-0.016-0.034-0.020-0.050-0.009-0 0-0 0-0 0s-0 0-0 0-0 0-0 0-0.001 0.001-0.001 0.001c-0.010 0.007-0.015 0.019-0.015 0.030 0 0.007 0.002 0.014 0.006 0.019 0 0 0 0 0 0.001l0.060-0.042z"></path>
<path fill="#000" d="M3.292 13.149c0.061-0.037 0.125-0.071 0.191-0.1 0.018-0.008 0.027-0.030 0.018-0.048s-0.030-0.027-0.048-0.018c-0.068 0.030-0.135 0.065-0.199 0.104-0.012 0.007-0.018 0.019-0.018 0.032 0 0.006 0.002 0.012 0.005 0.018 0.010 0.017 0.033 0.023 0.050 0.012z"></path>
<path fill="#0a191e" d="M3.292 13.149l-0.081-0.135-0 0 0.081 0.134zM3.483 13.049l-0.064-0.144h-0l0.064 0.144zM3.502 13.001v0zM3.454 12.983v0zM3.255 13.087v0zM3.242 13.137v0zM3.374 13.284c0.056-0.034 0.114-0.064 0.173-0.091l-0.128-0.287c-0.071 0.032-0.142 0.068-0.208 0.109l0.163 0.269zM3.547 13.193c0.098-0.043 0.142-0.158 0.098-0.255l-0.287 0.128c-0.027-0.061 0-0.132 0.061-0.159l0.128 0.287zM3.645 12.938c-0.043-0.098-0.158-0.142-0.255-0.098l0.128 0.287c-0.061 0.027-0.132-0-0.159-0.061l0.287-0.128zM3.39 12.839c-0.074 0.033-0.147 0.071-0.216 0.113l0.163 0.269c0.058-0.035 0.119-0.067 0.181-0.095l-0.128-0.287zM3.173 12.952c-0.062 0.037-0.095 0.104-0.093 0.171l0.314-0.008c0.001 0.041-0.020 0.083-0.058 0.106l-0.163-0.269zM3.080 13.123c0.001 0.033 0.010 0.066 0.028 0.095l0.269-0.163c0.011 0.018 0.017 0.039 0.017 0.059l-0.314 0.008zM3.108 13.218c0.055 0.091 0.174 0.121 0.266 0.065l-0.163-0.269c0.057-0.035 0.131-0.016 0.166 0.041l-0.269 0.163z"></path>
<path fill="#000" d="M3.733 13.939c0.001-0.007 0.001-0.015 0.001-0.022-0.002-0.083-0.066-0.152-0.148-0.16-0.091-0.010-0.172 0.056-0.182 0.147-0.001 0.007-0.001 0.015-0.001 0.022 0.002 0.083 0.066 0.152 0.148 0.16 0.091 0.010 0.172-0.056 0.182-0.147zM3.558 14.014c-0.046-0.005-0.082-0.043-0.083-0.090-0-0.004 0-0.008 0.001-0.012 0.005-0.051 0.051-0.088 0.102-0.082 0.046 0.005 0.082 0.043 0.083 0.090 0 0.004-0 0.008-0.001 0.012-0.005 0.051-0.051 0.088-0.102 0.082z"></path>
<path fill="#0a191e" d="M3.733 13.939v0zM3.585 13.757v0zM3.403 13.904v0zM3.551 14.086v0zM3.558 14.014v0zM3.476 13.912v0zM3.578 13.829l0.017-0.156-0.017 0.156zM3.66 13.931v0zM3.889 13.956c0.002-0.014 0.002-0.028 0.002-0.042l-0.314 0.008c0 0 0 0.001-0 0.001l0.313 0.033zM3.891 13.913c-0.004-0.162-0.128-0.295-0.289-0.312l-0.033 0.313c0.002 0 0.004 0.001 0.005 0.003s0.002 0.004 0.002 0.005l0.314-0.008zM3.602 13.601c-0.177-0.019-0.336 0.11-0.355 0.287l0.313 0.033c0-0.002 0.001-0.004 0.003-0.006s0.004-0.002 0.006-0.002l0.033-0.313zM3.247 13.888c-0.002 0.014-0.002 0.028-0.002 0.042l0.314-0.008c0-0 0-0.001 0-0.001l-0.313-0.033zM3.245 13.93c0.004 0.162 0.128 0.296 0.289 0.312l0.033-0.313c-0.002-0-0.004-0.001-0.005-0.003s-0.002-0.004-0.002-0.005l-0.314 0.008zM3.534 14.242c0.177 0.019 0.336-0.11 0.355-0.287l-0.313-0.033c-0 0.002-0.001 0.004-0.003 0.006s-0.004 0.002-0.006 0.002l-0.033 0.313zM3.575 13.858c0.032 0.003 0.057 0.030 0.058 0.063l-0.314 0.008c0.003 0.125 0.099 0.229 0.224 0.242l0.033-0.313zM3.632 13.92c0 0.003-0 0.006-0 0.008l-0.313-0.033c-0.001 0.011-0.002 0.022-0.001 0.033l0.314-0.008zM3.632 13.928c-0.004 0.035-0.035 0.061-0.071 0.057l0.033-0.313c-0.137-0.015-0.26 0.085-0.275 0.222l0.313 0.033zM3.561 13.986c-0.032-0.003-0.057-0.030-0.058-0.063l0.314-0.008c-0.003-0.125-0.099-0.229-0.223-0.242l-0.033 0.313zM3.504 13.923c-0-0.003 0-0.005 0-0.008l0.313 0.033c0.001-0.011 0.002-0.022 0.001-0.033l-0.314 0.008zM3.504 13.915c0.004-0.035 0.035-0.061 0.071-0.057l-0.033 0.313c0.137 0.015 0.26-0.085 0.275-0.222l-0.313-0.033z"></path>
<path fill="#000" d="M3.28 13.941c0.001-0.007 0.001-0.015 0.001-0.022-0.002-0.083-0.066-0.152-0.148-0.16-0.044-0.005-0.087 0.008-0.122 0.036s-0.056 0.067-0.061 0.111c-0.001 0.007-0.001 0.015-0.001 0.022 0.002 0.083 0.066 0.152 0.148 0.16 0.091 0.010 0.172-0.056 0.182-0.147zM3.106 14.016c-0.046-0.005-0.082-0.043-0.083-0.090-0-0.004 0-0.008 0.001-0.012 0.003-0.025 0.015-0.047 0.034-0.062s0.043-0.023 0.068-0.020c0.046 0.005 0.082 0.043 0.083 0.090 0 0.004-0 0.008-0.001 0.012-0.005 0.051-0.051 0.088-0.102 0.082z"></path>
<path fill="#0a191e" d="M3.28 13.941v0zM3.133 13.759l-0.017 0.156h0l0.017-0.156zM3.011 13.795v0zM2.951 13.906v0zM3.098 14.088l0.017-0.156-0.017 0.156zM3.106 14.016l-0.017 0.156h0l0.017-0.156zM3.023 13.914v0zM3.125 13.832v0zM3.208 13.934v0zM3.436 13.958c0.002-0.014 0.002-0.028 0.002-0.042l-0.314 0.008c0 0 0 0.001-0 0.001l0.313 0.033zM3.438 13.915c-0.004-0.162-0.128-0.296-0.289-0.312l-0.033 0.313c0.002 0 0.004 0.001 0.005 0.003s0.002 0.004 0.002 0.005l0.314-0.008zM3.149 13.603c-0.085-0.009-0.17 0.016-0.237 0.070l0.198 0.244c0.001-0.001 0.002-0.001 0.003-0.002s0.002-0 0.003-0l0.033-0.313zM2.912 13.673c-0.067 0.054-0.109 0.132-0.118 0.217l0.313 0.033c0-0.002 0.001-0.003 0.001-0.003s0.001-0.001 0.002-0.002l-0.198-0.244zM2.794 13.89c-0.002 0.014-0.002 0.028-0.002 0.042l0.314-0.008c0-0 0-0.001 0-0.001l-0.313-0.033zM2.793 13.932c0.004 0.162 0.128 0.296 0.289 0.312l0.033-0.313c-0.002-0-0.004-0.001-0.005-0.003s-0.002-0.004-0.002-0.005l-0.314 0.008zM3.081 14.245c0.177 0.019 0.336-0.11 0.355-0.287l-0.313-0.033c-0 0.002-0.001 0.004-0.003 0.006s-0.004 0.002-0.006 0.002l-0.033 0.313zM3.122 13.86c0.032 0.003 0.057 0.030 0.058 0.063l-0.314 0.008c0.003 0.125 0.099 0.229 0.224 0.242l0.033-0.313zM3.18 13.922c0 0.003-0 0.006-0 0.008l-0.313-0.033c-0.001 0.011-0.002 0.022-0.001 0.033l0.314-0.008zM3.179 13.931c-0.002 0.017-0.010 0.033-0.024 0.043l-0.198-0.244c-0.052 0.042-0.084 0.102-0.091 0.168l0.313 0.033zM3.156 13.974c-0.013 0.011-0.030 0.016-0.047 0.014l0.033-0.313c-0.066-0.007-0.132 0.012-0.183 0.054l0.198 0.244zM3.108 13.988c-0.032-0.003-0.057-0.030-0.058-0.063l0.314-0.008c-0.003-0.125-0.099-0.229-0.223-0.242l-0.033 0.313zM3.051 13.925c-0-0.003 0-0.005 0-0.008l0.313 0.033c0.001-0.011 0.002-0.022 0.001-0.033l-0.314 0.008zM3.051 13.917c0.004-0.035 0.035-0.061 0.071-0.057l-0.033 0.313c0.137 0.014 0.26-0.085 0.275-0.222l-0.313-0.033z"></path>
<path fill="#000" d="M3.425 13.697l0.012-0.112c0.002-0.020-0.012-0.038-0.032-0.040s-0.038 0.012-0.040 0.032l-0.012 0.112c-0 0.002-0 0.003-0 0.005 0 0.018 0.014 0.033 0.033 0.035 0.020 0.002 0.038-0.012 0.040-0.032z"></path>
<path fill="#0a191e" d="M3.425 13.697v0zM3.436 13.585l-0.156-0.017-0 0 0.156 0.017zM3.404 13.545l-0.017 0.156h0l0.017-0.156zM3.364 13.578v0zM3.352 13.69l0.156 0.017 0-0-0.156-0.017zM3.385 13.73l0.017-0.156h-0l-0.017 0.156zM3.581 13.714l0.012-0.112-0.313-0.033-0.012 0.112 0.313 0.033zM3.593 13.602c0.011-0.107-0.066-0.202-0.172-0.213l-0.033 0.313c-0.066-0.007-0.114-0.066-0.107-0.133l0.312 0.033zM3.421 13.389c-0.106-0.011-0.202 0.066-0.213 0.172l0.313 0.033c-0.007 0.066-0.066 0.114-0.133 0.107l0.033-0.313zM3.208 13.561l-0.012 0.112 0.313 0.033 0.012-0.112-0.313-0.033zM3.196 13.673c-0.001 0.009-0.001 0.017-0.001 0.026l0.314-0.008c0 0.005-0 0.011-0.001 0.016l-0.312-0.034zM3.195 13.699c0.002 0.096 0.075 0.177 0.173 0.187l0.033-0.313c0.061 0.006 0.107 0.057 0.108 0.117l-0.314 0.008zM3.368 13.886c0.106 0.011 0.202-0.066 0.213-0.172l-0.313-0.033c0.007-0.066 0.067-0.114 0.133-0.107l-0.033 0.313z"></path>
<path fill="#000" d="M3.183 13.587c-0.002 0.006-0.002 0.012-0.001 0.019 0 0 0 0 0 0s0 0 0 0 0 0 0 0c0 0.001 0.001 0.003 0.001 0.004 0.001 0.005 0.003 0.009 0.006 0.013 0.001-0.004 0.002-0.009 0.002-0.014-0-0.002-0-0.004-0.001-0.005 0 0 0 0 0 0s0 0 0 0 0-0-0-0M3.183 13.587l0.007 0.018M3.183 13.587c0.004 0.005 0.006 0.011 0.007 0.018M3.183 13.587l0.007 0.018M3.143 13.576c0 0 0 0 0 0-0.018 0.003-0.031 0.019-0.031 0.037 0 0.002 0 0.003 0 0.005 0.003 0.020 0.022 0.033 0.042 0.030 0 0 0 0 0 0v0l-0.011-0.072z"></path>
<path fill="#ffb30e" d="M7.363 11.846h2.043c0.463 0 0.838 0.375 0.838 0.838v2.095c0 0.463-0.375 0.838-0.838 0.838h-2.043c-0.463 0-0.838-0.375-0.838-0.838v-2.095c0-0.463 0.375-0.838 0.838-0.838z"></path>
<path fill="#f1f2f6" d="M12.42 11.846h2.043c0.463 0 0.838 0.375 0.838 0.838v2.095c0 0.463-0.375 0.838-0.838 0.838h-2.043c-0.463 0-0.838-0.375-0.838-0.838v-2.095c0-0.463 0.375-0.838 0.838-0.838z"></path>
<path fill="#f1f2f6" d="M17.476 11.846h2.043c0.463 0 0.838 0.375 0.838 0.838v2.095c0 0.463-0.375 0.838-0.838 0.838h-2.043c-0.463 0-0.838-0.375-0.838-0.838v-2.095c0-0.463 0.375-0.838 0.838-0.838z"></path>
<path fill="#010002" d="M13.883 13.168l0-0.005c0.001-0.030-0.008-0.058-0.028-0.078-0.026-0.027-0.067-0.039-0.11-0.032l-0.458 0.083c-0.023-0.028-0.055-0.044-0.090-0.044-0.029 0-0.058 0.012-0.081 0.032l-0.373 0.333c-0.028 0.025-0.044 0.060-0.043 0.095 0 0.009 0.002 0.018 0.004 0.027-0.025 0.018-0.043 0.047-0.049 0.083l-0.070 0.426-0.005-0 0.003 0.010-0.008 0.048c-0.006 0.039 0.003 0.076 0.025 0.102 0.013 0.015 0.030 0.026 0.049 0.032 0.080 0.193 0.245 0.521 0.45 0.521 0.030 0 0.060-0.007 0.088-0.021 0.12-0.058 0.109-0.335 0.088-0.515l0.001-0c0.063-0.002 0.125-0.058 0.14-0.126l0.005-0.022c0.026-0.005 0.050-0.015 0.069-0.030l0.133-0.104c0.018-0.014 0.032-0.032 0.041-0.052l0.053-0.007c0.060-0.007 0.111-0.050 0.127-0.102 0.099 0.028 0.239 0.061 0.347 0.061 0 0 0 0 0 0 0.086 0 0.142-0.021 0.17-0.064 0.032-0.049 0.040-0.104 0.025-0.163-0.049-0.192-0.353-0.395-0.505-0.486zM14.289 13.769c-0.004 0.006-0.021 0.024-0.096 0.024 0 0 0 0 0 0-0.103 0-0.244-0.035-0.338-0.062l0.023-0.461c0.164 0.102 0.389 0.269 0.424 0.407 0.009 0.035 0.005 0.065-0.013 0.092zM13.763 13.786c-0 0.003-0.001 0.006-0.002 0.009-0.006 0.018-0.027 0.036-0.053 0.040l-0.028 0.003c-0.003-0.018-0.008-0.035-0.018-0.051l-0.326-0.569 0.425-0.077c0.003-0.001 0.007-0.001 0.010-0.001 0.008 0 0.016 0.002 0.019 0.006 0.001 0.001 0.004 0.004 0.004 0.012l-0.001 0.009-0.029 0.581-0.002 0.036zM13.569 13.912l-0.133 0.104c-0.010 0.008-0.025 0.012-0.041 0.013s-0.031-0.003-0.043-0.010c-0.002-0.001-0.004-0.002-0.006-0.004l-0.543-0.439c-0.004-0.003-0.006-0.006-0.009-0.010-0.003-0.005-0.005-0.011-0.006-0.016-0-0.009 0.004-0.019 0.013-0.027l0.373-0.333c0.004-0.004 0.009-0.006 0.014-0.008 0.003-0.001 0.005-0.002 0.008-0.002 0.010 0 0.019 0.006 0.025 0.017l0.005 0.008 0.026 0.045 0.332 0.579c0.003 0.005 0.005 0.011 0.006 0.018 0.003 0.015 0 0.032-0.008 0.046-0.004 0.007-0.008 0.013-0.014 0.017zM13.33 14.119c-0.007 0.032-0.036 0.056-0.056 0.057l-0.592 0.020-0.001 0.041-0 0.003v-0.044c-0.005 0-0.009-0.002-0.012-0.005-0.005-0.006-0.007-0.018-0.005-0.030l0.004-0.025 0.007-0.044 0.068-0.414c0.002-0.012 0.007-0.021 0.013-0.025l0.535 0.433c0.012 0.010 0.027 0.018 0.042 0.023l-0.002 0.011zM13.148 14.7c-0.017 0.008-0.033 0.012-0.050 0.012-0.123 0-0.261-0.223-0.351-0.429l0.438-0.015c0.023 0.205 0.016 0.406-0.037 0.432z"></path>
<path fill="#f1f2f6" d="M9.17 13.502c-0.025-0.123-0.134-0.216-0.264-0.216-0.039 0-0.078 0.009-0.113 0.025l-0.013-0.040c-0.023-0.073-0.076-0.132-0.146-0.162s-0.149-0.028-0.218 0.006c-0.050 0.025-0.109 0.021-0.155-0.011l-0.011-0.008c-0.051-0.035-0.113-0.051-0.175-0.044s-0.119 0.035-0.161 0.080l-0.128 0.136-0.176-0.065v0.299h-0.12v0.196c0 0.307 0.153 0.591 0.409 0.761l0.013 0.009h0.981l0.013-0.009c0.256-0.17 0.409-0.454 0.409-0.761v-0.196h-0.148zM9.059 13.502h-0.175c-0.007-0.035-0.021-0.068-0.040-0.096 0.020-0.008 0.040-0.012 0.062-0.012 0.071 0 0.131 0.046 0.153 0.109zM8.774 13.502h-0.306c0.022-0.063 0.082-0.109 0.153-0.109s0.131 0.046 0.153 0.109zM7.994 13.206c0.052-0.055 0.135-0.064 0.198-0.021l0.011 0.008c0.078 0.053 0.178 0.060 0.263 0.018 0.040-0.020 0.087-0.021 0.128-0.004 0.038 0.016 0.067 0.047 0.082 0.084-0.018-0.004-0.036-0.006-0.055-0.006-0.123 0-0.227 0.083-0.259 0.196l-0.465-0.173 0.097-0.103zM7.719 13.357l0.389 0.145h-0.389v-0.145zM7.599 13.609h1.611c0 0-0 0.101-0 0.107h-1.611c-0-0.006-0-0.107-0-0.107zM8.863 14.361h-0.916c-0.183-0.127-0.304-0.322-0.338-0.538h1.592c-0.034 0.217-0.155 0.411-0.338 0.538z"></path>
<path fill="#0a191e" d="M3.473 3.567l-0.235 0.621-0.277-0.64h-0.072l-0.277 0.643-0.235-0.624h-0.24l0.422 1.075h0.070l0.296-0.662 0.294 0.662h0.070l0.422-1.075h-0.24zM4.589 4.132c0-0.192-0.115-0.318-0.294-0.318-0.088 0-0.165 0.032-0.218 0.085v-0.475h-0.216v1.2h0.216v-0.461c0-0.091 0.062-0.154 0.15-0.154s0.147 0.062 0.147 0.154v0.461h0.214v-0.491zM5.461 4.153c0-0.219-0.133-0.339-0.339-0.339-0.139 0-0.254 0.054-0.346 0.163l0.112 0.133c0.070-0.075 0.128-0.109 0.21-0.109 0.096 0 0.147 0.051 0.147 0.139v0.035h-0.198c-0.184 0-0.299 0.088-0.299 0.23 0 0.139 0.106 0.237 0.274 0.237 0.101 0 0.184-0.037 0.242-0.096v0.077h0.198v-0.47zM5.245 4.327c0 0.091-0.072 0.157-0.166 0.157-0.069 0-0.114-0.034-0.114-0.086s0.040-0.080 0.11-0.080h0.17v0.010zM6.177 4.443c-0.056 0.005-0.090 0.006-0.102 0.006-0.102 0-0.147-0.034-0.147-0.123v-0.312h0.224v-0.182h-0.224v-0.2h-0.216v0.2h-0.125v0.182h0.125v0.331c0 0.198 0.117 0.298 0.317 0.298 0.048 0 0.098-0.006 0.149-0.019v-0.181zM7.359 3.423v0.485c-0.058-0.062-0.136-0.094-0.237-0.094-0.221 0-0.384 0.176-0.384 0.414s0.163 0.414 0.384 0.414c0.109 0 0.202-0.042 0.254-0.117v0.098h0.198v-1.2h-0.216zM7.362 4.228c0 0.142-0.091 0.218-0.2 0.218-0.117 0-0.205-0.086-0.205-0.219 0-0.13 0.090-0.218 0.205-0.218 0.109 0 0.2 0.078 0.2 0.219zM7.744 4.227c-0.005 0.226 0.19 0.419 0.422 0.414 0.232 0.005 0.432-0.189 0.427-0.414 0.005-0.226-0.194-0.416-0.426-0.413-0.232-0.005-0.429 0.187-0.424 0.413zM8.373 4.228c0 0.123-0.088 0.214-0.205 0.214-0.12 0-0.205-0.091-0.205-0.214 0-0.126 0.085-0.218 0.205-0.218 0.117 0 0.205 0.094 0.205 0.218zM9.752 3.831l-0.206 0.52-0.194-0.52h-0.229l0.304 0.744-0.024 0.054c-0.037 0.083-0.088 0.107-0.165 0.107-0.013 0-0.043-0.002-0.093-0.006v0.181c0.048 0.013 0.094 0.019 0.139 0.019 0.147 0 0.243-0.074 0.315-0.238l0.379-0.861h-0.227zM10.029 4.227c-0.005 0.226 0.19 0.419 0.422 0.414 0.232 0.005 0.432-0.189 0.427-0.414 0.005-0.226-0.194-0.416-0.426-0.413-0.232-0.005-0.429 0.187-0.424 0.413zM10.657 4.228c0 0.123-0.088 0.214-0.205 0.214-0.12 0-0.205-0.091-0.205-0.214 0-0.126 0.085-0.218 0.205-0.218 0.117 0 0.205 0.094 0.205 0.218zM11.039 4.275c0 0.221 0.155 0.368 0.366 0.368 0.206 0 0.363-0.147 0.363-0.368v-0.443h-0.216v0.461c0 0.091-0.064 0.152-0.147 0.152-0.088 0-0.15-0.061-0.15-0.152v-0.461h-0.216v0.443zM2.933 6.116c0-0.192-0.115-0.318-0.294-0.318-0.088 0-0.165 0.032-0.218 0.085v-0.475h-0.216v1.2h0.216v-0.461c0-0.091 0.062-0.154 0.15-0.154s0.147 0.062 0.147 0.154v0.461h0.214v-0.491zM3.805 6.137c0-0.219-0.133-0.339-0.339-0.339-0.139 0-0.254 0.054-0.346 0.163l0.112 0.133c0.070-0.075 0.128-0.109 0.21-0.109 0.096 0 0.147 0.051 0.147 0.139v0.035h-0.198c-0.184 0-0.299 0.088-0.299 0.23 0 0.139 0.106 0.237 0.274 0.237 0.101 0 0.184-0.037 0.242-0.096v0.077h0.198v-0.47zM3.589 6.311c0 0.091-0.072 0.157-0.166 0.157-0.069 0-0.114-0.034-0.114-0.086s0.040-0.080 0.11-0.080h0.17v0.010zM4.52 5.815l-0.2 0.448-0.2-0.448h-0.227l0.392 0.811h0.072l0.392-0.811h-0.229zM5.572 6.284c0.010-0.040 0.014-0.080 0.014-0.118 0-0.206-0.154-0.368-0.373-0.368-0.229-0.005-0.419 0.186-0.414 0.414-0.005 0.229 0.189 0.419 0.434 0.414 0.117 0 0.222-0.040 0.317-0.118l-0.090-0.147c-0.069 0.053-0.142 0.080-0.221 0.080-0.115 0-0.197-0.056-0.222-0.157h0.555zM5.016 6.132c0.024-0.098 0.098-0.16 0.189-0.16 0.094 0 0.17 0.062 0.171 0.16h-0.36zM6.867 6.137c0-0.219-0.133-0.339-0.339-0.339-0.139 0-0.254 0.054-0.346 0.163l0.112 0.133c0.070-0.075 0.128-0.109 0.21-0.109 0.096 0 0.147 0.051 0.147 0.139v0.035h-0.198c-0.184 0-0.299 0.088-0.299 0.23 0 0.139 0.106 0.237 0.274 0.237 0.101 0 0.184-0.037 0.242-0.096v0.077h0.198v-0.47zM6.651 6.311c0 0.091-0.072 0.157-0.166 0.157-0.069 0-0.114-0.034-0.114-0.086s0.040-0.080 0.11-0.080h0.17v0.010zM8.032 6.427c-0.056 0.005-0.090 0.006-0.102 0.006-0.102 0-0.147-0.034-0.147-0.123v-0.312h0.224v-0.182h-0.224v-0.2h-0.216v0.2h-0.125v0.182h0.125v0.331c0 0.198 0.117 0.298 0.317 0.298 0.048 0 0.098-0.006 0.149-0.019v-0.181zM8.853 6.137c0-0.219-0.133-0.339-0.339-0.339-0.139 0-0.254 0.054-0.346 0.163l0.112 0.133c0.070-0.075 0.128-0.109 0.21-0.109 0.096 0 0.147 0.051 0.147 0.139v0.035h-0.198c-0.184 0-0.299 0.088-0.299 0.23 0 0.139 0.106 0.237 0.274 0.237 0.101 0 0.184-0.037 0.242-0.096v0.077h0.198v-0.47zM8.637 6.311c0 0.091-0.072 0.157-0.166 0.157-0.069 0-0.114-0.034-0.114-0.086s0.040-0.080 0.11-0.080h0.17v0.010zM8.989 6.473c0.072 0.096 0.189 0.154 0.328 0.154 0.090 0 0.163-0.022 0.221-0.067 0.059-0.045 0.088-0.107 0.088-0.186 0-0.117-0.069-0.179-0.222-0.242l-0.077-0.032c-0.062-0.026-0.083-0.040-0.083-0.070 0-0.037 0.032-0.056 0.085-0.056 0.066 0 0.125 0.026 0.178 0.075l0.109-0.133c-0.072-0.078-0.166-0.118-0.285-0.118-0.173 0-0.291 0.088-0.291 0.237 0 0.117 0.070 0.182 0.216 0.242l0.085 0.035c0.059 0.026 0.082 0.038 0.082 0.072 0 0.043-0.043 0.066-0.101 0.066-0.078 0-0.154-0.035-0.222-0.107l-0.109 0.131zM10.298 6.427c-0.056 0.005-0.090 0.006-0.102 0.006-0.102 0-0.147-0.034-0.147-0.123v-0.312h0.224v-0.182h-0.224v-0.2h-0.216v0.2h-0.125v0.182h0.125v0.331c0 0.198 0.117 0.298 0.317 0.298 0.048 0 0.098-0.006 0.149-0.019v-0.181zM11.167 6.284c0.010-0.040 0.014-0.080 0.014-0.118 0-0.206-0.154-0.368-0.373-0.368-0.229-0.005-0.419 0.186-0.414 0.414-0.005 0.229 0.189 0.419 0.434 0.414 0.117 0 0.222-0.040 0.317-0.118l-0.090-0.147c-0.069 0.053-0.142 0.080-0.221 0.080-0.115 0-0.197-0.056-0.222-0.157h0.555zM10.612 6.132c0.024-0.098 0.098-0.16 0.189-0.16 0.094 0 0.17 0.062 0.171 0.16h-0.36zM12.051 5.705c0-0.090 0.046-0.123 0.144-0.123 0.019 0 0.040 0.002 0.064 0.005v-0.181c-0.037-0.011-0.077-0.018-0.118-0.018-0.19 0-0.306 0.099-0.306 0.298v0.13h-0.112v0.182h0.112v0.61h0.216v-0.61h0.174v-0.182h-0.174v-0.11zM12.3 6.211c-0.005 0.226 0.19 0.419 0.422 0.414 0.232 0.005 0.432-0.189 0.427-0.414 0.005-0.226-0.194-0.416-0.426-0.413-0.232-0.005-0.429 0.187-0.424 0.413zM12.929 6.212c0 0.123-0.088 0.214-0.205 0.214-0.12 0-0.205-0.091-0.205-0.214 0-0.126 0.085-0.218 0.205-0.218 0.117 0 0.205 0.094 0.205 0.218zM13.805 5.815c-0.021-0.006-0.043-0.010-0.070-0.010-0.088 0-0.165 0.038-0.218 0.104v-0.094h-0.198v0.792h0.216v-0.395c0-0.136 0.083-0.206 0.213-0.206h0.058v-0.19zM14.059 6.143c0 0.026 0.006 0.051 0.018 0.077h0.182c-0.002-0.013-0.003-0.024-0.003-0.034 0-0.043 0.024-0.064 0.112-0.141 0.094-0.082 0.133-0.144 0.133-0.234 0-0.166-0.138-0.28-0.315-0.28-0.154 0-0.27 0.083-0.315 0.243l0.176 0.077c0.030-0.082 0.075-0.122 0.133-0.122s0.101 0.040 0.101 0.098c0 0.050-0.022 0.075-0.094 0.134-0.085 0.069-0.126 0.122-0.126 0.181zM14.024 6.478c0 0.085 0.066 0.149 0.15 0.149s0.149-0.064 0.149-0.149c0-0.083-0.064-0.149-0.149-0.149s-0.15 0.066-0.15 0.149z"></path>
<path fill="#0a191e" d="M2.182 19.196h0.418v-0.097h-0.309v-0.579h-0.109v0.676zM2.692 18.986c0 0.135 0.094 0.222 0.22 0.222 0.123 0 0.218-0.087 0.218-0.222v-0.292h-0.108v0.3c0 0.070-0.048 0.115-0.111 0.115-0.066 0-0.114-0.045-0.114-0.115v-0.3h-0.107v0.292zM3.721 18.882c0-0.12-0.071-0.2-0.188-0.2-0.062 0-0.113 0.020-0.151 0.060v-0.049h-0.1v0.503h0.108v-0.3c0-0.069 0.048-0.117 0.115-0.117 0.066 0 0.11 0.047 0.11 0.117v0.3h0.108v-0.314zM3.838 18.945c0 0.146 0.118 0.263 0.266 0.263 0.091 0 0.167-0.044 0.212-0.117l-0.076-0.058c-0.037 0.050-0.082 0.076-0.135 0.076-0.090 0-0.158-0.072-0.158-0.164 0-0.091 0.068-0.163 0.158-0.163 0.054 0 0.099 0.026 0.135 0.077l0.076-0.059c-0.044-0.073-0.119-0.117-0.212-0.117-0.144-0.002-0.269 0.118-0.266 0.262zM4.875 18.882c0-0.119-0.072-0.2-0.186-0.2-0.060 0-0.112 0.021-0.145 0.061v-0.315h-0.108v0.768h0.108v-0.299c0-0.069 0.048-0.117 0.115-0.117s0.11 0.047 0.11 0.117v0.299h0.108v-0.314zM5.867 19.196l-0.203-0.279c0.081-0.032 0.13-0.101 0.13-0.19 0-0.122-0.093-0.207-0.229-0.207h-0.247v0.676h0.109v-0.261h0.124l0.192 0.261h0.124zM5.427 18.617h0.136c0.075 0 0.12 0.045 0.12 0.112 0 0.066-0.045 0.111-0.12 0.111h-0.136v-0.222zM6.395 18.98c0.005-0.024 0.008-0.046 0.008-0.068 0-0.131-0.099-0.23-0.232-0.23-0.142-0.003-0.263 0.119-0.26 0.263 0 0.148 0.117 0.262 0.27 0.262 0.077 0 0.143-0.027 0.201-0.081l-0.051-0.074c-0.045 0.040-0.094 0.059-0.146 0.059-0.086 0-0.151-0.050-0.164-0.132h0.375zM6.022 18.896c0.016-0.075 0.074-0.123 0.144-0.123s0.128 0.046 0.129 0.123h-0.273zM6.479 19.11c0.045 0.058 0.117 0.097 0.203 0.097 0.053 0 0.097-0.013 0.133-0.040 0.036-0.028 0.053-0.066 0.053-0.114 0-0.071-0.042-0.112-0.137-0.152l-0.048-0.019c-0.049-0.020-0.067-0.034-0.067-0.059 0-0.032 0.027-0.048 0.069-0.048 0.044 0 0.086 0.018 0.118 0.051l0.058-0.067c-0.044-0.052-0.101-0.078-0.174-0.078-0.102 0-0.177 0.055-0.177 0.145 0 0.071 0.042 0.11 0.131 0.146l0.051 0.021c0.049 0.020 0.071 0.033 0.071 0.062 0 0.037-0.035 0.056-0.081 0.056-0.053 0-0.097-0.026-0.141-0.072l-0.061 0.068zM7.291 19.105c-0.030 0.003-0.051 0.005-0.067 0.005-0.066 0-0.099-0.023-0.099-0.087v-0.237h0.149v-0.093h-0.149v-0.132h-0.109v0.132h-0.082v0.093h0.082v0.246c0 0.118 0.070 0.175 0.185 0.175 0.026 0 0.055-0.004 0.089-0.011v-0.091zM7.8 18.892c0-0.135-0.082-0.21-0.206-0.21-0.087 0-0.162 0.035-0.212 0.108l0.062 0.064c0.042-0.050 0.083-0.075 0.139-0.075 0.069 0 0.108 0.038 0.108 0.108v0.033h-0.142c-0.114 0-0.185 0.056-0.185 0.143s0.070 0.145 0.175 0.145c0.069 0 0.124-0.024 0.161-0.068v0.056h0.1v-0.304zM7.691 19.006c0 0.069-0.057 0.119-0.13 0.119-0.052 0-0.088-0.025-0.088-0.067 0-0.041 0.032-0.061 0.089-0.061h0.129v0.009zM8.237 18.694c-0.012-0.003-0.026-0.005-0.041-0.005-0.057 0-0.111 0.026-0.146 0.071v-0.066h-0.1v0.503h0.108v-0.268c0-0.089 0.062-0.139 0.147-0.139h0.033v-0.095zM8.723 18.892c0-0.135-0.082-0.21-0.206-0.21-0.087 0-0.162 0.035-0.212 0.108l0.062 0.064c0.042-0.050 0.083-0.075 0.139-0.075 0.069 0 0.108 0.038 0.108 0.108v0.033h-0.142c-0.114 0-0.185 0.056-0.185 0.143s0.070 0.145 0.175 0.145c0.069 0 0.124-0.024 0.161-0.068v0.056h0.1v-0.304zM8.614 19.006c0 0.069-0.057 0.119-0.13 0.119-0.052 0-0.088-0.025-0.088-0.067 0-0.041 0.032-0.061 0.089-0.061h0.129v0.009zM8.867 18.986c0 0.135 0.094 0.222 0.22 0.222 0.123 0 0.218-0.087 0.218-0.222v-0.292h-0.108v0.3c0 0.070-0.048 0.115-0.111 0.115-0.066 0-0.114-0.045-0.114-0.115v-0.3h-0.107v0.292zM9.896 18.882c0-0.12-0.071-0.2-0.188-0.2-0.062 0-0.113 0.020-0.151 0.060v-0.049h-0.1v0.503h0.108v-0.3c0-0.069 0.048-0.117 0.115-0.117 0.066 0 0.11 0.047 0.11 0.117v0.3h0.108v-0.314zM10.344 19.105c-0.030 0.003-0.051 0.005-0.067 0.005-0.066 0-0.099-0.023-0.099-0.087v-0.237h0.149v-0.093h-0.149v-0.132h-0.109v0.132h-0.082v0.093h0.082v0.246c0 0.118 0.070 0.175 0.185 0.175 0.026 0 0.055-0.004 0.089-0.011v-0.091zM10.406 19.11c0.045 0.058 0.117 0.097 0.203 0.097 0.053 0 0.097-0.013 0.133-0.040 0.036-0.028 0.053-0.066 0.053-0.114 0-0.071-0.042-0.112-0.137-0.152l-0.048-0.019c-0.049-0.020-0.067-0.034-0.067-0.059 0-0.032 0.027-0.048 0.069-0.048 0.044 0 0.086 0.018 0.118 0.051l0.058-0.067c-0.044-0.052-0.101-0.078-0.174-0.078-0.102 0-0.177 0.055-0.177 0.145 0 0.071 0.042 0.11 0.131 0.146l0.051 0.021c0.049 0.020 0.071 0.033 0.071 0.062 0 0.037-0.035 0.056-0.081 0.056-0.053 0-0.097-0.026-0.141-0.072l-0.061 0.068zM11.662 18.521v0.456l-0.411-0.467h-0.038v0.687h0.109v-0.458l0.412 0.469h0.037v-0.687h-0.109zM12.382 18.98c0.005-0.024 0.008-0.046 0.008-0.068 0-0.131-0.099-0.23-0.232-0.23-0.142-0.003-0.263 0.119-0.26 0.263 0 0.148 0.117 0.262 0.27 0.262 0.077 0 0.143-0.027 0.201-0.081l-0.051-0.074c-0.045 0.040-0.094 0.059-0.146 0.059-0.086 0-0.151-0.050-0.164-0.132h0.375zM12.009 18.896c0.016-0.075 0.074-0.123 0.144-0.123s0.128 0.046 0.129 0.123h-0.273zM12.913 18.892c0-0.135-0.082-0.21-0.206-0.21-0.087 0-0.162 0.035-0.212 0.108l0.062 0.064c0.042-0.050 0.083-0.075 0.139-0.075 0.069 0 0.108 0.038 0.108 0.108v0.033h-0.142c-0.114 0-0.185 0.056-0.185 0.143s0.070 0.145 0.175 0.145c0.069 0 0.124-0.024 0.161-0.068v0.056h0.1v-0.304zM12.804 19.006c0 0.069-0.057 0.119-0.13 0.119-0.052 0-0.088-0.025-0.088-0.067 0-0.041 0.032-0.061 0.089-0.061h0.129v0.009zM13.35 18.694c-0.012-0.003-0.026-0.005-0.041-0.005-0.057 0-0.111 0.026-0.146 0.071v-0.066h-0.1v0.503h0.108v-0.268c0-0.089 0.062-0.139 0.147-0.139h0.033v-0.095zM14.22 18.521h-0.12l-0.168 0.294-0.167-0.294h-0.121l0.233 0.403v0.272h0.109v-0.272l0.233-0.403zM14.211 18.945c-0.003 0.142 0.121 0.266 0.265 0.263 0.146 0.003 0.27-0.121 0.267-0.263 0.003-0.142-0.121-0.265-0.267-0.262-0.144-0.002-0.268 0.118-0.265 0.262zM14.633 18.946c0 0.091-0.068 0.163-0.157 0.163-0.088 0-0.156-0.070-0.156-0.163s0.068-0.165 0.157-0.165c0.087 0 0.156 0.072 0.156 0.165zM14.862 18.986c0 0.135 0.094 0.222 0.22 0.222 0.123 0 0.218-0.087 0.218-0.222v-0.292h-0.108v0.3c0 0.070-0.048 0.115-0.111 0.115-0.066 0-0.114-0.045-0.114-0.115v-0.3h-0.107v0.292z"></path>
<path fill="#000" d="M2.133 9.989c0.040 0.067 0.105 0.108 0.182 0.108 0.089 0 0.157-0.055 0.157-0.134 0-0.067-0.038-0.102-0.117-0.139l-0.057-0.028c-0.061-0.030-0.087-0.045-0.090-0.098 0-0.028 0.011-0.050 0.031-0.065s0.046-0.021 0.075-0.021c0.049 0 0.091 0.023 0.122 0.066l0.030-0.022c-0.033-0.049-0.088-0.081-0.152-0.081-0.081 0-0.147 0.048-0.147 0.125 0.003 0.074 0.048 0.102 0.112 0.131l0.058 0.028c0.068 0.034 0.091 0.050 0.094 0.104 0 0.059-0.048 0.096-0.115 0.096s-0.117-0.036-0.153-0.092l-0.030 0.022zM2.917 9.912c0.002-0.008 0.003-0.021 0.003-0.037 0-0.099-0.075-0.165-0.166-0.165-0.102-0.002-0.19 0.088-0.187 0.194-0.002 0.105 0.087 0.195 0.192 0.193 0.059 0 0.112-0.026 0.149-0.069l-0.025-0.025c-0.033 0.039-0.075 0.058-0.124 0.058-0.084 0-0.148-0.061-0.153-0.148h0.31zM2.609 9.877c0.005-0.038 0.022-0.070 0.048-0.094s0.058-0.038 0.096-0.038c0.071 0 0.131 0.051 0.127 0.132h-0.272zM3.299 9.856c0-0.094-0.055-0.146-0.139-0.146-0.059 0-0.106 0.025-0.142 0.077l0.027 0.021c0.031-0.041 0.066-0.062 0.113-0.062 0.062 0 0.102 0.038 0.102 0.108v0.042h-0.129c-0.078 0-0.129 0.038-0.129 0.099 0 0.031 0.012 0.057 0.037 0.075s0.055 0.026 0.091 0.026c0.058 0 0.106-0.024 0.133-0.066v0.058h0.037v-0.233zM3.259 9.95c0 0.064-0.058 0.112-0.127 0.112-0.050 0-0.091-0.024-0.091-0.069 0-0.041 0.032-0.064 0.093-0.064h0.125v0.021zM3.619 9.718c-0.004 0-0.014-0.002-0.024-0.002-0.051 0-0.096 0.022-0.123 0.065v-0.063h-0.037v0.371h0.038v-0.218c0-0.075 0.062-0.119 0.126-0.119h0.019v-0.034zM3.668 9.903c-0.002 0.105 0.087 0.196 0.191 0.194 0.062 0 0.116-0.029 0.151-0.076l-0.028-0.022c-0.032 0.041-0.073 0.062-0.123 0.062-0.085 0-0.151-0.069-0.151-0.157 0-0.087 0.066-0.157 0.152-0.157 0.050 0 0.091 0.021 0.122 0.062l0.028-0.022c-0.035-0.047-0.088-0.076-0.15-0.076-0.105-0.002-0.194 0.088-0.192 0.193zM4.411 9.854c0-0.086-0.051-0.144-0.135-0.144-0.051 0-0.092 0.021-0.117 0.058v-0.256h-0.038v0.576h0.038v-0.231c0-0.065 0.046-0.111 0.111-0.111s0.104 0.045 0.104 0.111v0.231h0.038v-0.234zM4.808 9.618c0-0.056 0.031-0.078 0.081-0.078 0.012 0 0.024 0.001 0.035 0.003v-0.034c-0.013-0.003-0.028-0.005-0.042-0.005-0.068 0-0.112 0.035-0.112 0.111v0.101h-0.054v0.035h0.054v0.336h0.038v-0.336h0.098v-0.035h-0.098v-0.1zM4.954 9.903c-0.002 0.105 0.087 0.196 0.191 0.194 0.105 0.002 0.195-0.088 0.193-0.194 0-0.107-0.086-0.193-0.192-0.193-0.105-0.002-0.194 0.086-0.192 0.193zM5.298 9.903c0 0.088-0.068 0.157-0.153 0.157s-0.151-0.069-0.151-0.157c0-0.089 0.066-0.157 0.152-0.157 0.084 0 0.152 0.068 0.152 0.157zM5.636 9.718c-0.004 0-0.014-0.002-0.024-0.002-0.051 0-0.096 0.022-0.123 0.065v-0.063h-0.037v0.371h0.038v-0.218c0-0.075 0.062-0.119 0.126-0.119h0.019v-0.034zM6.199 9.856c0-0.094-0.055-0.146-0.139-0.146-0.059 0-0.106 0.025-0.142 0.077l0.027 0.021c0.032-0.041 0.066-0.062 0.113-0.062 0.062 0 0.102 0.038 0.102 0.108v0.042h-0.129c-0.078 0-0.129 0.038-0.129 0.099 0 0.031 0.012 0.057 0.037 0.075s0.055 0.026 0.091 0.026c0.058 0 0.106-0.024 0.133-0.066v0.058h0.037v-0.233zM6.16 9.95c0 0.064-0.058 0.112-0.127 0.112-0.050 0-0.091-0.024-0.091-0.069 0-0.041 0.032-0.064 0.093-0.064h0.125v0.021zM6.735 9.718c-0.004 0-0.014-0.002-0.024-0.002-0.051 0-0.096 0.022-0.123 0.065v-0.063h-0.037v0.371h0.038v-0.218c0-0.075 0.062-0.119 0.126-0.119h0.019v-0.034zM7.135 9.912c0.002-0.008 0.003-0.021 0.003-0.037 0-0.099-0.074-0.165-0.166-0.165-0.102-0.002-0.19 0.088-0.187 0.194-0.002 0.105 0.087 0.195 0.192 0.193 0.059 0 0.112-0.026 0.149-0.069l-0.025-0.025c-0.033 0.039-0.074 0.058-0.124 0.058-0.084 0-0.148-0.061-0.153-0.148h0.31zM6.826 9.877c0.005-0.038 0.021-0.070 0.048-0.094s0.058-0.038 0.096-0.038c0.071 0 0.131 0.051 0.128 0.132h-0.272zM7.216 10.019c0.032 0.046 0.081 0.077 0.142 0.077 0.035 0 0.064-0.009 0.088-0.027s0.036-0.043 0.036-0.076c0-0.051-0.034-0.079-0.096-0.107l-0.035-0.015c-0.050-0.021-0.070-0.035-0.070-0.067 0-0.038 0.032-0.058 0.075-0.058 0.036 0 0.068 0.016 0.097 0.048l0.025-0.025c-0.028-0.036-0.068-0.059-0.12-0.059-0.033 0-0.061 0.008-0.084 0.026s-0.035 0.041-0.035 0.071c0 0.048 0.033 0.074 0.091 0.099l0.034 0.015c0.052 0.024 0.072 0.034 0.076 0.075 0 0.042-0.036 0.065-0.083 0.065s-0.082-0.023-0.116-0.066l-0.027 0.025zM7.788 10.055c-0.019 0.004-0.037 0.006-0.051 0.006-0.050 0-0.081-0.021-0.081-0.078v-0.23h0.12v-0.035h-0.12v-0.105h-0.039v0.105h-0.064v0.035h0.064v0.232c0 0.077 0.044 0.111 0.114 0.111 0.019 0 0.038-0.002 0.058-0.008v-0.034zM8.144 9.856c0-0.094-0.055-0.146-0.139-0.146-0.059 0-0.106 0.025-0.142 0.077l0.027 0.021c0.032-0.041 0.066-0.062 0.113-0.062 0.062 0 0.102 0.038 0.102 0.108v0.042h-0.129c-0.078 0-0.129 0.038-0.129 0.099 0 0.031 0.012 0.057 0.037 0.075s0.055 0.026 0.091 0.026c0.058 0 0.106-0.024 0.133-0.066v0.058h0.037v-0.233zM8.105 9.95c0 0.064-0.058 0.112-0.127 0.112-0.050 0-0.091-0.024-0.091-0.069 0-0.041 0.032-0.064 0.093-0.064h0.125v0.021zM8.465 9.718c-0.004 0-0.014-0.002-0.024-0.002-0.051 0-0.096 0.022-0.123 0.065v-0.063h-0.037v0.371h0.038v-0.218c0-0.075 0.062-0.119 0.126-0.119h0.019v-0.034zM8.806 9.856c0-0.094-0.055-0.146-0.139-0.146-0.059 0-0.106 0.025-0.142 0.077l0.027 0.021c0.031-0.041 0.066-0.062 0.113-0.062 0.062 0 0.102 0.038 0.102 0.108v0.042h-0.129c-0.078 0-0.129 0.038-0.129 0.099 0 0.031 0.012 0.057 0.037 0.075s0.055 0.026 0.091 0.026c0.058 0 0.106-0.024 0.133-0.066v0.058h0.037v-0.233zM8.767 9.95c0 0.064-0.058 0.112-0.127 0.112-0.050 0-0.091-0.024-0.091-0.069 0-0.041 0.032-0.064 0.093-0.064h0.125v0.021zM8.937 9.948c0 0.090 0.064 0.148 0.146 0.148s0.145-0.058 0.145-0.148v-0.23h-0.038v0.232c0 0.068-0.046 0.111-0.107 0.111s-0.108-0.043-0.108-0.111v-0.232h-0.038v0.23zM9.657 9.854c0-0.086-0.051-0.144-0.136-0.144-0.051 0-0.093 0.021-0.118 0.058v-0.050h-0.037v0.371h0.038v-0.232c0-0.031 0.010-0.058 0.031-0.079s0.048-0.031 0.080-0.031c0.064 0 0.104 0.045 0.104 0.111v0.232h0.038v-0.234zM9.98 10.055c-0.019 0.004-0.037 0.006-0.051 0.006-0.050 0-0.081-0.021-0.081-0.078v-0.23h0.12v-0.035h-0.12v-0.105h-0.039v0.105h-0.065v0.035h0.065v0.232c0 0.077 0.044 0.111 0.114 0.111 0.019 0 0.038-0.002 0.058-0.008v-0.034z"></path>
<path fill="#0a191e" d="M2.423 16.898h0.159c0.165 0 0.276-0.107 0.276-0.254 0-0.15-0.11-0.253-0.276-0.253h-0.159v0.507zM2.504 16.825v-0.36h0.077c0.118 0 0.193 0.071 0.193 0.179 0 0.106-0.075 0.181-0.193 0.181h-0.077zM2.949 16.898h0.081v-0.377h-0.081v0.377zM2.935 16.38c0 0.030 0.025 0.053 0.055 0.053s0.055-0.023 0.055-0.053-0.025-0.054-0.055-0.054c-0.031 0-0.055 0.024-0.055 0.054zM3.476 16.662c0-0.090-0.053-0.15-0.141-0.15-0.047 0-0.084 0.015-0.113 0.045v-0.037h-0.075v0.377h0.081v-0.225c0-0.051 0.036-0.088 0.086-0.088s0.082 0.035 0.082 0.088v0.225h0.081v-0.236zM3.918 16.662c0-0.090-0.053-0.15-0.141-0.15-0.047 0-0.084 0.015-0.113 0.045v-0.037h-0.075v0.377h0.081v-0.225c0-0.051 0.036-0.088 0.086-0.088s0.082 0.035 0.082 0.088v0.225h0.081v-0.236zM4.37 16.736c0.004-0.018 0.006-0.035 0.006-0.051 0-0.098-0.074-0.173-0.174-0.173-0.107-0.002-0.197 0.089-0.195 0.197 0 0.111 0.088 0.197 0.203 0.197 0.058 0 0.108-0.020 0.151-0.061l-0.038-0.055c-0.034 0.030-0.071 0.045-0.11 0.045-0.064 0-0.113-0.038-0.123-0.099h0.281zM4.090 16.673c0.012-0.056 0.055-0.092 0.108-0.092s0.096 0.035 0.097 0.092h-0.205zM4.684 16.521c-0.009-0.002-0.019-0.004-0.031-0.004-0.043 0-0.083 0.019-0.11 0.053v-0.049h-0.075v0.377h0.081v-0.201c0-0.067 0.047-0.104 0.111-0.104h0.025v-0.071z"></path>
<path fill="#0a191e" d="M7.556 16.898h0.313v-0.073h-0.232v-0.434h-0.081v0.507zM7.939 16.74c0 0.101 0.071 0.167 0.165 0.167 0.092 0 0.164-0.065 0.164-0.167v-0.219h-0.081v0.225c0 0.052-0.036 0.086-0.083 0.086-0.049 0-0.085-0.034-0.085-0.086v-0.225h-0.080v0.219zM8.71 16.662c0-0.090-0.053-0.15-0.141-0.15-0.047 0-0.084 0.015-0.113 0.045v-0.037h-0.075v0.377h0.081v-0.225c0-0.051 0.036-0.088 0.086-0.088s0.082 0.035 0.082 0.088v0.225h0.081v-0.236zM8.798 16.709c0 0.11 0.088 0.197 0.2 0.197 0.068 0 0.125-0.033 0.159-0.088l-0.057-0.044c-0.028 0.038-0.061 0.057-0.101 0.057-0.068 0-0.118-0.054-0.118-0.123s0.051-0.122 0.118-0.122c0.041 0 0.075 0.019 0.101 0.058l0.057-0.045c-0.033-0.055-0.089-0.088-0.159-0.088-0.108-0.002-0.202 0.088-0.2 0.197zM9.575 16.662c0-0.089-0.054-0.15-0.14-0.15-0.045 0-0.084 0.016-0.109 0.046v-0.237h-0.081v0.576h0.081v-0.224c0-0.051 0.036-0.088 0.086-0.088s0.082 0.035 0.082 0.088v0.224h0.081v-0.236z"></path>
<path fill="#0a191e" d="M12.547 16.75c0-0.062-0.035-0.11-0.094-0.129 0.028-0.024 0.042-0.056 0.042-0.095 0-0.078-0.061-0.135-0.152-0.135h-0.177v0.507h0.217c0.099 0 0.164-0.062 0.164-0.147zM12.335 16.462c0.050 0 0.078 0.025 0.078 0.068s-0.028 0.069-0.078 0.069h-0.090v-0.137h0.090zM12.465 16.748c0 0.048-0.033 0.078-0.089 0.078h-0.131v-0.157h0.131c0.056 0 0.089 0.031 0.089 0.079zM12.851 16.521c-0.009-0.002-0.019-0.004-0.031-0.004-0.043 0-0.083 0.019-0.11 0.053v-0.049h-0.075v0.377h0.081v-0.201c0-0.067 0.047-0.104 0.111-0.104h0.025v-0.071zM13.255 16.736c0.004-0.018 0.006-0.035 0.006-0.051 0-0.098-0.075-0.173-0.174-0.173-0.107-0.002-0.197 0.089-0.195 0.197 0 0.111 0.088 0.197 0.203 0.197 0.058 0 0.108-0.020 0.151-0.061l-0.038-0.055c-0.034 0.030-0.071 0.045-0.11 0.045-0.065 0-0.113-0.038-0.123-0.099h0.281zM12.975 16.673c0.012-0.056 0.055-0.092 0.108-0.092s0.096 0.035 0.097 0.092h-0.205zM13.653 16.67c0-0.101-0.061-0.157-0.154-0.157-0.065 0-0.121 0.026-0.159 0.081l0.047 0.048c0.031-0.038 0.062-0.056 0.104-0.056 0.051 0 0.081 0.028 0.081 0.081v0.025h-0.107c-0.085 0-0.139 0.042-0.139 0.108s0.052 0.109 0.131 0.109c0.051 0 0.093-0.018 0.121-0.051v0.042h0.075v-0.228zM13.571 16.755c0 0.051-0.043 0.089-0.098 0.089-0.039 0-0.066-0.018-0.066-0.050s0.024-0.046 0.067-0.046h0.097v0.007zM13.765 16.898h0.081v-0.576h-0.081v0.576zM13.943 16.687l0.152-0.166h-0.1l-0.147 0.165 0.164 0.212h0.097l-0.165-0.211zM14.269 16.452c0-0.048 0.025-0.065 0.074-0.065 0.009 0 0.020 0.001 0.032 0.002v-0.068c-0.015-0.005-0.031-0.007-0.052-0.007-0.083 0-0.134 0.043-0.134 0.131v0.076h-0.054v0.070h0.054v0.307h0.081v-0.307h0.089v-0.070h-0.089v-0.069zM14.722 16.67c0-0.101-0.061-0.157-0.154-0.157-0.065 0-0.121 0.026-0.159 0.081l0.047 0.048c0.031-0.038 0.062-0.056 0.104-0.056 0.051 0 0.081 0.028 0.081 0.081v0.025h-0.107c-0.085 0-0.139 0.042-0.139 0.108s0.052 0.109 0.131 0.109c0.051 0 0.093-0.018 0.121-0.051v0.042h0.075v-0.228zM14.64 16.755c0 0.051-0.043 0.089-0.098 0.089-0.039 0-0.066-0.018-0.066-0.050s0.024-0.046 0.067-0.046h0.097v0.007zM14.798 16.833c0.034 0.044 0.088 0.073 0.152 0.073 0.040 0 0.073-0.010 0.1-0.030s0.040-0.049 0.040-0.085c0-0.053-0.031-0.084-0.103-0.114l-0.036-0.015c-0.037-0.015-0.050-0.025-0.050-0.045 0-0.024 0.020-0.036 0.051-0.036 0.033 0 0.065 0.014 0.088 0.038l0.044-0.050c-0.033-0.039-0.076-0.058-0.131-0.058-0.077 0-0.133 0.041-0.133 0.109 0 0.053 0.031 0.082 0.098 0.11l0.038 0.016c0.037 0.015 0.053 0.025 0.053 0.047 0 0.028-0.026 0.042-0.061 0.042-0.040 0-0.073-0.019-0.106-0.054l-0.046 0.051zM15.408 16.829c-0.022 0.002-0.038 0.004-0.050 0.004-0.049 0-0.075-0.017-0.075-0.065v-0.177h0.112v-0.070h-0.112v-0.099h-0.081v0.099h-0.061v0.070h0.061v0.184c0 0.088 0.052 0.131 0.139 0.131 0.019 0 0.041-0.003 0.067-0.008v-0.068z"></path>
<path fill="#0a191e" d="M17.456 16.898h0.159c0.165 0 0.276-0.107 0.276-0.254 0-0.15-0.11-0.253-0.276-0.253h-0.159v0.507zM17.537 16.825v-0.36h0.077c0.118 0 0.193 0.071 0.193 0.179 0 0.106-0.075 0.181-0.193 0.181h-0.077zM18.322 16.736c0.004-0.018 0.006-0.035 0.006-0.051 0-0.098-0.075-0.173-0.174-0.173-0.107-0.002-0.197 0.089-0.195 0.197 0 0.111 0.088 0.197 0.203 0.197 0.058 0 0.108-0.020 0.151-0.061l-0.038-0.055c-0.034 0.030-0.071 0.045-0.11 0.045-0.064 0-0.113-0.038-0.123-0.099h0.281zM18.042 16.673c0.012-0.056 0.055-0.092 0.108-0.092s0.096 0.035 0.097 0.092h-0.205zM18.385 16.833c0.034 0.044 0.088 0.073 0.152 0.073 0.040 0 0.073-0.010 0.1-0.030s0.040-0.049 0.040-0.085c0-0.053-0.032-0.084-0.103-0.114l-0.036-0.015c-0.037-0.015-0.050-0.025-0.050-0.045 0-0.024 0.020-0.036 0.051-0.036 0.033 0 0.064 0.014 0.088 0.038l0.044-0.050c-0.033-0.039-0.076-0.058-0.131-0.058-0.077 0-0.133 0.041-0.133 0.109 0 0.053 0.032 0.082 0.098 0.11l0.038 0.016c0.037 0.015 0.053 0.025 0.053 0.047 0 0.028-0.026 0.042-0.061 0.042-0.040 0-0.073-0.019-0.106-0.054l-0.046 0.051zM18.734 16.833c0.034 0.044 0.088 0.073 0.152 0.073 0.040 0 0.073-0.010 0.1-0.030s0.040-0.049 0.040-0.085c0-0.053-0.032-0.084-0.103-0.114l-0.036-0.015c-0.037-0.015-0.050-0.025-0.050-0.045 0-0.024 0.020-0.036 0.051-0.036 0.033 0 0.064 0.014 0.088 0.038l0.044-0.050c-0.033-0.039-0.076-0.058-0.131-0.058-0.077 0-0.133 0.041-0.133 0.109 0 0.053 0.032 0.082 0.098 0.11l0.038 0.016c0.037 0.015 0.053 0.025 0.053 0.047 0 0.028-0.026 0.042-0.061 0.042-0.040 0-0.073-0.019-0.106-0.054l-0.046 0.051zM19.459 16.736c0.004-0.018 0.006-0.035 0.006-0.051 0-0.098-0.075-0.173-0.174-0.173-0.107-0.002-0.197 0.089-0.195 0.197 0 0.111 0.088 0.197 0.203 0.197 0.058 0 0.108-0.020 0.151-0.061l-0.038-0.055c-0.034 0.030-0.071 0.045-0.11 0.045-0.064 0-0.113-0.038-0.123-0.099h0.281zM19.179 16.673c0.012-0.056 0.055-0.092 0.108-0.092s0.096 0.035 0.097 0.092h-0.205zM19.773 16.521c-0.009-0.002-0.019-0.004-0.031-0.004-0.043 0-0.083 0.019-0.11 0.053v-0.049h-0.075v0.377h0.081v-0.201c0-0.067 0.047-0.104 0.111-0.104h0.025v-0.071zM20.069 16.829c-0.022 0.002-0.038 0.004-0.050 0.004-0.049 0-0.075-0.017-0.075-0.065v-0.177h0.112v-0.070h-0.112v-0.099h-0.081v0.099h-0.061v0.070h0.061v0.184c0 0.088 0.052 0.131 0.139 0.131 0.019 0 0.041-0.003 0.067-0.008v-0.068z"></path>
<path fill="#798184" d="M2.292 6.858l-0.176 0.058 0.020 0.071 0.103-0.033v0.411h0.081v-0.507h-0.028zM2.581 7.294l0.089-0.094c0.035-0.038 0.062-0.070 0.080-0.098s0.028-0.060 0.028-0.094c0-0.089-0.071-0.157-0.168-0.157-0.104 0-0.171 0.079-0.171 0.162 0 0.015 0.002 0.030 0.005 0.044h0.082c-0.002-0.015-0.004-0.028-0.004-0.039 0-0.052 0.035-0.092 0.086-0.092s0.084 0.038 0.084 0.089c0 0.043-0.025 0.080-0.081 0.139l-0.18 0.194v0.018h0.363v-0.071h-0.214zM3.254 7.207h-0.069v-0.156h-0.081v0.156h-0.151l0.144-0.349h-0.084l-0.162 0.396v0.022h0.253v0.088h0.081v-0.088h0.069v-0.070zM3.314 7.107c0 0.15 0.064 0.266 0.194 0.266s0.193-0.117 0.193-0.266c0-0.078-0.016-0.14-0.049-0.187s-0.080-0.071-0.144-0.071-0.111 0.024-0.144 0.071c-0.033 0.047-0.049 0.109-0.049 0.186zM3.616 7.108c0 0.12-0.034 0.191-0.108 0.191s-0.109-0.071-0.109-0.191c0-0.122 0.036-0.184 0.109-0.184s0.108 0.061 0.108 0.184zM4.438 7.365l-0.152-0.209c0.061-0.024 0.098-0.076 0.098-0.143 0-0.091-0.070-0.155-0.172-0.155h-0.185v0.507h0.081v-0.196h0.093l0.144 0.196h0.093zM4.108 6.93h0.102c0.056 0 0.090 0.034 0.090 0.084s-0.034 0.083-0.090 0.083h-0.102v-0.167zM4.834 7.203c0.004-0.018 0.006-0.035 0.006-0.051 0-0.098-0.074-0.173-0.174-0.173-0.107-0.002-0.197 0.089-0.195 0.197 0 0.111 0.088 0.197 0.203 0.197 0.058 0 0.108-0.020 0.151-0.061l-0.038-0.055c-0.034 0.030-0.071 0.045-0.11 0.045-0.064 0-0.113-0.038-0.123-0.099h0.281zM4.554 7.14c0.012-0.056 0.055-0.092 0.108-0.092s0.096 0.035 0.097 0.092h-0.205zM4.897 7.3c0.034 0.044 0.088 0.073 0.152 0.073 0.040 0 0.073-0.010 0.1-0.030s0.040-0.049 0.040-0.085c0-0.053-0.032-0.084-0.103-0.114l-0.036-0.015c-0.037-0.015-0.050-0.025-0.050-0.045 0-0.024 0.020-0.036 0.051-0.036 0.033 0 0.064 0.014 0.088 0.038l0.044-0.050c-0.033-0.039-0.076-0.058-0.131-0.058-0.077 0-0.133 0.041-0.133 0.109 0 0.053 0.032 0.082 0.098 0.11l0.038 0.016c0.037 0.015 0.053 0.025 0.053 0.047 0 0.028-0.026 0.042-0.061 0.042-0.040 0-0.073-0.019-0.106-0.054l-0.046 0.051zM5.506 7.296c-0.022 0.002-0.038 0.004-0.050 0.004-0.049 0-0.074-0.017-0.074-0.065v-0.177h0.112v-0.070h-0.112v-0.099h-0.081v0.099h-0.061v0.070h0.061v0.184c0 0.088 0.052 0.131 0.139 0.131 0.019 0 0.041-0.003 0.067-0.008v-0.068zM5.887 7.137c0-0.101-0.061-0.157-0.154-0.157-0.065 0-0.121 0.026-0.159 0.081l0.047 0.048c0.032-0.038 0.062-0.056 0.104-0.056 0.051 0 0.081 0.028 0.081 0.081v0.025h-0.107c-0.085 0-0.139 0.042-0.139 0.108s0.052 0.109 0.131 0.109c0.051 0 0.093-0.018 0.121-0.051v0.042h0.075v-0.228zM5.806 7.222c0 0.051-0.043 0.089-0.098 0.089-0.039 0-0.066-0.018-0.066-0.050s0.024-0.046 0.067-0.046h0.097v0.007zM6.215 6.988c-0.009-0.002-0.019-0.004-0.031-0.004-0.043 0-0.083 0.019-0.11 0.053v-0.049h-0.075v0.377h0.081v-0.201c0-0.067 0.047-0.104 0.111-0.104h0.025v-0.071zM6.58 7.137c0-0.101-0.061-0.157-0.154-0.157-0.065 0-0.121 0.026-0.159 0.081l0.047 0.048c0.032-0.038 0.062-0.056 0.104-0.056 0.051 0 0.081 0.028 0.081 0.081v0.025h-0.107c-0.085 0-0.139 0.042-0.139 0.108s0.052 0.109 0.131 0.109c0.051 0 0.093-0.018 0.121-0.051v0.042h0.075v-0.228zM6.498 7.222c0 0.051-0.043 0.089-0.098 0.089-0.039 0-0.066-0.018-0.066-0.050s0.024-0.046 0.067-0.046h0.097v0.007zM6.688 7.207c0 0.101 0.071 0.167 0.165 0.167 0.092 0 0.164-0.065 0.164-0.167v-0.219h-0.081v0.225c0 0.052-0.036 0.086-0.083 0.086-0.049 0-0.085-0.034-0.085-0.086v-0.225h-0.080v0.219zM7.459 7.129c0-0.090-0.053-0.15-0.141-0.15-0.047 0-0.084 0.015-0.113 0.045v-0.037h-0.075v0.377h0.081v-0.225c0-0.051 0.036-0.088 0.086-0.088s0.082 0.035 0.082 0.088v0.225h0.081v-0.236zM7.796 7.296c-0.022 0.002-0.038 0.004-0.050 0.004-0.049 0-0.074-0.017-0.074-0.065v-0.177h0.112v-0.070h-0.112v-0.099h-0.081v0.099h-0.061v0.070h0.061v0.184c0 0.088 0.052 0.131 0.139 0.131 0.019 0 0.041-0.003 0.067-0.008v-0.068zM7.842 7.3c0.034 0.044 0.088 0.073 0.152 0.073 0.040 0 0.073-0.010 0.1-0.030s0.040-0.049 0.040-0.085c0-0.053-0.031-0.084-0.103-0.114l-0.036-0.015c-0.037-0.015-0.050-0.025-0.050-0.045 0-0.024 0.020-0.036 0.051-0.036 0.033 0 0.065 0.014 0.088 0.038l0.044-0.050c-0.033-0.039-0.076-0.058-0.131-0.058-0.077 0-0.133 0.041-0.133 0.109 0 0.053 0.032 0.082 0.098 0.11l0.038 0.016c0.037 0.015 0.053 0.025 0.053 0.047 0 0.028-0.026 0.042-0.061 0.042-0.040 0-0.073-0.019-0.106-0.054l-0.046 0.051zM8.742 7.137c0-0.101-0.061-0.157-0.154-0.157-0.065 0-0.121 0.026-0.159 0.081l0.047 0.048c0.031-0.038 0.062-0.056 0.104-0.056 0.051 0 0.081 0.028 0.081 0.081v0.025h-0.107c-0.085 0-0.139 0.042-0.139 0.108s0.052 0.109 0.131 0.109c0.051 0 0.093-0.018 0.121-0.051v0.042h0.075v-0.228zM8.66 7.222c0 0.051-0.043 0.089-0.098 0.089-0.039 0-0.066-0.018-0.066-0.050s0.024-0.046 0.067-0.046h0.097v0.007zM9.102 6.988l-0.11 0.25-0.111-0.25h-0.086l0.183 0.386h0.028l0.182-0.386h-0.086zM9.545 7.137c0-0.101-0.061-0.157-0.154-0.157-0.065 0-0.121 0.026-0.159 0.081l0.047 0.048c0.031-0.038 0.062-0.056 0.104-0.056 0.051 0 0.081 0.028 0.081 0.081v0.025h-0.107c-0.085 0-0.139 0.042-0.139 0.108s0.052 0.109 0.131 0.109c0.051 0 0.093-0.018 0.121-0.051v0.042h0.075v-0.228zM9.464 7.222c0 0.051-0.043 0.089-0.098 0.089-0.039 0-0.066-0.018-0.066-0.050s0.024-0.046 0.067-0.046h0.097v0.007zM9.657 7.365h0.081v-0.377h-0.081v0.377zM9.643 6.847c0 0.030 0.025 0.053 0.055 0.053s0.055-0.023 0.055-0.053-0.025-0.054-0.055-0.054c-0.031 0-0.055 0.024-0.055 0.054zM9.855 7.365h0.081v-0.576h-0.081v0.576zM10.351 7.137c0-0.101-0.061-0.157-0.154-0.157-0.065 0-0.121 0.026-0.159 0.081l0.047 0.048c0.031-0.038 0.062-0.056 0.104-0.056 0.051 0 0.081 0.028 0.081 0.081v0.025h-0.107c-0.085 0-0.139 0.042-0.139 0.108s0.052 0.109 0.131 0.109c0.051 0 0.093-0.018 0.121-0.051v0.042h0.075v-0.228zM10.27 7.222c0 0.051-0.043 0.089-0.098 0.089-0.039 0-0.066-0.018-0.066-0.050s0.024-0.046 0.067-0.046h0.097v0.007zM10.855 7.177c0-0.112-0.078-0.197-0.185-0.197-0.052 0-0.098 0.020-0.126 0.055v-0.245h-0.081v0.576h0.075v-0.052c0.028 0.039 0.077 0.061 0.132 0.061 0.105 0 0.184-0.085 0.184-0.197zM10.772 7.176c0 0.072-0.050 0.124-0.115 0.124-0.059 0-0.114-0.041-0.114-0.123s0.055-0.124 0.114-0.124c0.065 0 0.115 0.051 0.115 0.123zM10.948 7.365h0.081v-0.576h-0.081v0.576zM11.485 7.203c0.004-0.018 0.006-0.035 0.006-0.051 0-0.098-0.075-0.173-0.174-0.173-0.107-0.002-0.197 0.089-0.195 0.197 0 0.111 0.088 0.197 0.203 0.197 0.058 0 0.108-0.020 0.151-0.061l-0.038-0.055c-0.034 0.030-0.071 0.045-0.11 0.045-0.065 0-0.113-0.038-0.123-0.099h0.281zM11.205 7.14c0.012-0.056 0.055-0.092 0.108-0.092s0.096 0.035 0.097 0.092h-0.205z"></path>
<path fill="#f1f2f6" d="M1.993 20.017h16.918c0.289 0 0.524 0.235 0.524 0.524v10.004c0 0.289-0.235 0.524-0.524 0.524h-16.918c-0.289 0-0.524-0.235-0.524-0.524v-10.004c0-0.289 0.234-0.524 0.524-0.524z"></path>
<path fill="#000" d="M2.412 20.384h16.185c0.289 0 0.524 0.235 0.524 0.524v5.866c0 0.289-0.235 0.524-0.524 0.524h-16.185c-0.289 0-0.524-0.235-0.524-0.524v-5.866c0-0.289 0.235-0.524 0.524-0.524z"></path>
<path fill="#f1f2f6" opacity="0.35" d="M3.25 24.522h2.305c0.289 0 0.524 0.235 0.524 0.524v0.786c0 0.289-0.234 0.524-0.524 0.524h-2.305c-0.289 0-0.524-0.235-0.524-0.524v-0.786c0-0.289 0.235-0.524 0.524-0.524z"></path>
<path fill="#0a191e" d="M2.548 27.958v0.353l-0.343-0.364h-0.039v0.602h0.121v-0.355l0.342 0.366h0.040v-0.602h-0.121zM2.767 28.327c-0.003 0.126 0.107 0.235 0.237 0.232 0.13 0.003 0.242-0.106 0.239-0.232 0.003-0.126-0.108-0.233-0.238-0.231-0.13-0.003-0.24 0.105-0.237 0.231zM3.119 28.328c0 0.069-0.049 0.12-0.115 0.12-0.067 0-0.115-0.051-0.115-0.12 0-0.071 0.047-0.122 0.115-0.122 0.065 0 0.115 0.053 0.115 0.122zM3.709 28.286c0-0.123-0.074-0.19-0.19-0.19-0.078 0-0.142 0.030-0.194 0.091l0.063 0.074c0.039-0.042 0.072-0.061 0.117-0.061 0.054 0 0.082 0.029 0.082 0.078v0.020h-0.111c-0.103 0-0.168 0.049-0.168 0.129 0 0.078 0.059 0.133 0.153 0.133 0.056 0 0.103-0.021 0.135-0.054v0.043h0.111v-0.263zM3.588 28.383c0 0.051-0.040 0.088-0.093 0.088-0.039 0-0.064-0.019-0.064-0.048s0.022-0.045 0.062-0.045h0.095v0.005zM4.233 28.274c0-0.108-0.064-0.178-0.165-0.178-0.049 0-0.092 0.018-0.122 0.047v-0.266h-0.121v0.672h0.121v-0.258c0-0.051 0.035-0.086 0.084-0.086s0.082 0.035 0.082 0.086v0.258h0.12v-0.275zM4.355 28.207h0.092l0.050-0.249h-0.138l-0.004 0.249zM4.552 28.474c0.040 0.054 0.106 0.086 0.184 0.086 0.050 0 0.091-0.013 0.124-0.038s0.049-0.060 0.049-0.104c0-0.065-0.039-0.1-0.125-0.135l-0.043-0.018c-0.035-0.014-0.047-0.022-0.047-0.039 0-0.021 0.018-0.031 0.048-0.031 0.037 0 0.070 0.014 0.099 0.042l0.061-0.074c-0.040-0.044-0.093-0.066-0.16-0.066-0.097 0-0.163 0.049-0.163 0.133 0 0.065 0.039 0.102 0.121 0.135l0.048 0.020c0.033 0.014 0.046 0.021 0.046 0.040 0 0.024-0.024 0.037-0.056 0.037-0.044 0-0.086-0.020-0.125-0.060l-0.061 0.073zM5.717 28.375c0-0.072-0.039-0.122-0.105-0.146 0.030-0.028 0.044-0.064 0.044-0.107 0-0.097-0.078-0.165-0.187-0.165h-0.21v0.591h0.263c0.114 0 0.194-0.072 0.194-0.174zM5.459 28.062c0.049 0 0.077 0.025 0.077 0.067s-0.028 0.068-0.077 0.068h-0.083v-0.135h0.083zM5.598 28.371c0 0.047-0.031 0.074-0.084 0.074h-0.138v-0.149h0.138c0.053 0 0.084 0.029 0.084 0.074zM6.18 28.286c0-0.123-0.074-0.19-0.19-0.19-0.078 0-0.142 0.030-0.194 0.091l0.063 0.074c0.039-0.042 0.072-0.061 0.117-0.061 0.054 0 0.082 0.029 0.082 0.078v0.020h-0.111c-0.103 0-0.168 0.049-0.168 0.129 0 0.078 0.059 0.133 0.153 0.133 0.056 0 0.103-0.021 0.135-0.054v0.043h0.111v-0.263zM6.059 28.383c0 0.051-0.040 0.088-0.093 0.088-0.039 0-0.064-0.019-0.064-0.048s0.022-0.045 0.062-0.045h0.095v0.005zM6.63 28.105v0.056c-0.031-0.042-0.082-0.065-0.145-0.065-0.121 0-0.212 0.088-0.212 0.22 0 0.13 0.090 0.22 0.212 0.22 0.056 0 0.103-0.018 0.135-0.053v0.024c0 0.069-0.047 0.105-0.118 0.105-0.054 0-0.095-0.021-0.144-0.057l-0.064 0.084c0.062 0.055 0.134 0.082 0.218 0.082 0.139 0 0.229-0.077 0.229-0.221v-0.394h-0.111zM6.622 28.313c0 0.076-0.051 0.12-0.112 0.12-0.064 0-0.115-0.047-0.115-0.119s0.049-0.116 0.115-0.116c0.062 0 0.112 0.039 0.112 0.115zM7.269 28.368c0.005-0.022 0.008-0.045 0.008-0.066 0-0.116-0.086-0.206-0.209-0.206-0.128-0.003-0.235 0.104-0.232 0.232-0.003 0.128 0.106 0.235 0.243 0.232 0.065 0 0.125-0.022 0.177-0.066l-0.050-0.082c-0.039 0.030-0.080 0.045-0.124 0.045-0.064 0-0.11-0.031-0.125-0.088h0.311zM6.958 28.283c0.013-0.055 0.055-0.090 0.106-0.090 0.053 0 0.095 0.035 0.096 0.090h-0.202zM7.372 28.549h0.121v-0.672h-0.121v0.672zM7.572 28.474c0.040 0.054 0.106 0.086 0.184 0.086 0.050 0 0.091-0.013 0.124-0.038s0.049-0.060 0.049-0.104c0-0.065-0.039-0.1-0.125-0.135l-0.043-0.018c-0.035-0.014-0.047-0.022-0.047-0.039 0-0.021 0.018-0.031 0.048-0.031 0.037 0 0.070 0.014 0.099 0.042l0.061-0.074c-0.040-0.044-0.093-0.066-0.16-0.066-0.097 0-0.163 0.049-0.163 0.133 0 0.065 0.039 0.102 0.121 0.135l0.048 0.020c0.033 0.014 0.046 0.021 0.046 0.040 0 0.024-0.024 0.037-0.056 0.037-0.044 0-0.086-0.020-0.125-0.060l-0.061 0.073z"></path>
<path fill="#8f9698" d="M2.161 29.573h0.313v-0.073h-0.232v-0.434h-0.081v0.507zM2.543 29.415c0 0.101 0.071 0.167 0.165 0.167 0.092 0 0.164-0.065 0.164-0.167v-0.219h-0.081v0.225c0 0.052-0.036 0.086-0.083 0.086-0.049 0-0.085-0.034-0.085-0.086v-0.225h-0.080v0.219zM3.315 29.338c0-0.090-0.053-0.15-0.141-0.15-0.047 0-0.084 0.015-0.113 0.045v-0.037h-0.075v0.377h0.081v-0.225c0-0.051 0.036-0.088 0.086-0.088s0.082 0.035 0.082 0.088v0.225h0.081v-0.236zM3.403 29.384c0 0.11 0.088 0.197 0.2 0.197 0.068 0 0.125-0.033 0.159-0.088l-0.057-0.044c-0.028 0.038-0.061 0.057-0.101 0.057-0.068 0-0.118-0.054-0.118-0.123s0.051-0.122 0.118-0.122c0.041 0 0.075 0.019 0.101 0.058l0.057-0.045c-0.033-0.055-0.089-0.088-0.159-0.088-0.108-0.002-0.202 0.088-0.2 0.197zM4.18 29.338c0-0.089-0.054-0.15-0.14-0.15-0.045 0-0.084 0.016-0.109 0.046v-0.237h-0.081v0.576h0.081v-0.224c0-0.051 0.036-0.088 0.086-0.088s0.082 0.035 0.082 0.088v0.224h0.081v-0.236z"></path>
<path fill="#31b9cc" d="M3.495 30.234c0-0.105-0.087-0.182-0.187-0.182-0.098-0.002-0.188 0.079-0.186 0.181-0.002 0.098 0.084 0.174 0.167 0.172h0.004l-0.118 0.163h0.123l0.126-0.175c0.025-0.034 0.042-0.061 0.053-0.084s0.017-0.047 0.017-0.075zM3.392 30.234c0 0.048-0.037 0.085-0.084 0.085s-0.084-0.037-0.084-0.085c0-0.049 0.038-0.086 0.084-0.086s0.084 0.038 0.084 0.086zM3.546 30.062v0.094h0.217l-0.206 0.413h0.113l0.232-0.479v-0.028h-0.356zM3.963 30.178c0 0.071 0.059 0.127 0.131 0.127s0.131-0.055 0.131-0.127-0.059-0.126-0.131-0.126c-0.072 0-0.131 0.055-0.131 0.126zM4.063 30.569h0.083l0.292-0.507h-0.084l-0.291 0.507zM4.145 30.178c0 0.033-0.021 0.055-0.050 0.055-0.032 0-0.051-0.022-0.051-0.055 0-0.032 0.021-0.055 0.051-0.055 0.028 0 0.050 0.023 0.050 0.055zM4.276 30.45c0 0.071 0.059 0.127 0.131 0.127s0.131-0.055 0.131-0.127-0.060-0.126-0.131-0.126c-0.071 0-0.131 0.055-0.131 0.126zM4.457 30.45c0 0.032-0.021 0.055-0.050 0.055-0.032 0-0.051-0.021-0.051-0.055s0.020-0.055 0.051-0.055c0.028 0 0.050 0.023 0.050 0.055z"></path>
<path fill="#8f9698" d="M4.858 29.573h0.088l-0.223-0.515h-0.028l-0.223 0.515h0.087l0.036-0.084h0.228l0.036 0.084zM4.793 29.419h-0.17l0.085-0.21 0.084 0.21zM5.587 29.338c0-0.090-0.053-0.15-0.14-0.15-0.053 0-0.1 0.023-0.128 0.059-0.022-0.037-0.062-0.059-0.114-0.059-0.045 0-0.082 0.016-0.109 0.044v-0.035h-0.075v0.377h0.081v-0.224c0-0.052 0.034-0.088 0.083-0.088s0.079 0.035 0.079 0.088v0.224h0.081v-0.228c0-0.048 0.034-0.084 0.083-0.084s0.078 0.035 0.078 0.088v0.224h0.081v-0.236zM6.039 29.411c0.004-0.018 0.006-0.035 0.006-0.051 0-0.098-0.074-0.173-0.174-0.173-0.107-0.002-0.197 0.089-0.195 0.197 0 0.111 0.088 0.197 0.203 0.197 0.058 0 0.108-0.020 0.151-0.061l-0.038-0.055c-0.034 0.030-0.071 0.045-0.11 0.045-0.064 0-0.113-0.038-0.123-0.099h0.281zM5.759 29.348c0.012-0.056 0.055-0.092 0.108-0.092s0.096 0.035 0.097 0.092h-0.205zM6.353 29.196c-0.009-0.002-0.019-0.004-0.031-0.004-0.043 0-0.083 0.019-0.11 0.053v-0.049h-0.075v0.377h0.081v-0.201c0-0.067 0.047-0.104 0.111-0.104h0.025v-0.071zM6.425 29.573h0.081v-0.377h-0.081v0.377zM6.411 29.056c0 0.030 0.025 0.053 0.055 0.053s0.055-0.023 0.055-0.053-0.025-0.054-0.055-0.054c-0.031 0-0.055 0.024-0.055 0.054zM6.599 29.384c0 0.11 0.088 0.197 0.2 0.197 0.068 0 0.125-0.033 0.159-0.088l-0.057-0.044c-0.028 0.038-0.061 0.057-0.101 0.057-0.068 0-0.118-0.054-0.118-0.123s0.051-0.122 0.118-0.122c0.041 0 0.074 0.019 0.101 0.058l0.057-0.045c-0.033-0.055-0.089-0.088-0.159-0.088-0.108-0.002-0.202 0.088-0.2 0.197zM7.346 29.345c0-0.101-0.061-0.157-0.154-0.157-0.065 0-0.121 0.026-0.159 0.081l0.047 0.048c0.032-0.038 0.062-0.056 0.104-0.056 0.051 0 0.081 0.028 0.081 0.081v0.025h-0.107c-0.085 0-0.139 0.042-0.139 0.108s0.052 0.109 0.131 0.109c0.051 0 0.093-0.018 0.121-0.051v0.042h0.075v-0.228zM7.264 29.43c0 0.051-0.043 0.089-0.098 0.089-0.039 0-0.066-0.018-0.066-0.050s0.024-0.046 0.067-0.046h0.097v0.007zM7.788 29.338c0-0.090-0.053-0.15-0.141-0.15-0.047 0-0.084 0.015-0.113 0.045v-0.037h-0.075v0.377h0.081v-0.225c0-0.051 0.036-0.088 0.086-0.088s0.082 0.035 0.082 0.088v0.225h0.081v-0.236z"></path>
<path fill="#0a191e" d="M3.392 25.243l-0.176 0.058 0.020 0.071 0.103-0.033v0.411h0.081v-0.507h-0.028zM3.543 25.492c0 0.15 0.064 0.267 0.194 0.267s0.193-0.117 0.193-0.267c0-0.078-0.016-0.14-0.049-0.187s-0.080-0.071-0.144-0.071-0.111 0.024-0.144 0.071c-0.033 0.047-0.049 0.109-0.049 0.186zM3.845 25.492c0 0.12-0.034 0.191-0.108 0.191s-0.109-0.071-0.109-0.191c0-0.122 0.036-0.184 0.109-0.184s0.108 0.061 0.108 0.184zM4.816 25.514c0-0.090-0.053-0.15-0.14-0.15-0.053 0-0.1 0.023-0.128 0.059-0.022-0.037-0.062-0.059-0.114-0.059-0.045 0-0.082 0.016-0.109 0.044v-0.035h-0.075v0.377h0.081v-0.224c0-0.052 0.034-0.088 0.083-0.088s0.079 0.035 0.079 0.088v0.224h0.081v-0.228c0-0.048 0.034-0.084 0.083-0.084s0.078 0.035 0.078 0.088v0.224h0.081v-0.236zM4.928 25.75h0.081v-0.377h-0.081v0.377zM4.914 25.232c0 0.030 0.025 0.053 0.055 0.053s0.055-0.023 0.055-0.053-0.025-0.054-0.055-0.054c-0.031 0-0.055 0.024-0.055 0.054zM5.125 25.75h0.081v-0.576h-0.081v0.576zM5.662 25.588c0.004-0.018 0.006-0.035 0.006-0.051 0-0.098-0.074-0.173-0.174-0.173-0.107-0.002-0.197 0.089-0.195 0.197 0 0.111 0.088 0.197 0.203 0.197 0.058 0 0.108-0.020 0.151-0.061l-0.038-0.055c-0.034 0.030-0.071 0.045-0.11 0.045-0.064 0-0.113-0.038-0.123-0.099h0.281zM5.383 25.525c0.012-0.056 0.055-0.092 0.108-0.092s0.096 0.035 0.097 0.092h-0.205zM5.725 25.685c0.034 0.044 0.088 0.073 0.152 0.073 0.040 0 0.073-0.010 0.1-0.030s0.040-0.049 0.040-0.085c0-0.053-0.032-0.084-0.103-0.114l-0.036-0.015c-0.037-0.015-0.050-0.025-0.050-0.045 0-0.024 0.020-0.036 0.051-0.036 0.033 0 0.064 0.014 0.088 0.038l0.044-0.050c-0.033-0.039-0.076-0.058-0.131-0.058-0.077 0-0.133 0.041-0.133 0.109 0 0.053 0.032 0.082 0.098 0.11l0.038 0.016c0.037 0.015 0.053 0.025 0.053 0.047 0 0.028-0.026 0.042-0.061 0.042-0.040 0-0.073-0.019-0.106-0.054l-0.046 0.051z"></path>
<path fill="#8f9698" d="M8.049 29.555c0.076-0.012 0.128-0.059 0.128-0.13 0-0.061-0.040-0.103-0.114-0.131l-0.057-0.021c-0.042-0.018-0.061-0.033-0.061-0.063 0-0.035 0.032-0.051 0.071-0.051s0.068 0.018 0.095 0.057l0.055-0.041c-0.027-0.048-0.066-0.076-0.117-0.085v-0.090h-0.074v0.091c-0.065 0.013-0.111 0.058-0.111 0.121 0 0.056 0.037 0.099 0.111 0.128l0.053 0.021c0.047 0.021 0.068 0.037 0.068 0.068 0 0.037-0.034 0.059-0.081 0.059-0.051 0-0.093-0.026-0.126-0.078l-0.056 0.041c0.031 0.055 0.079 0.092 0.141 0.104v0.093h0.075v-0.091zM8.462 29.555c0.076-0.012 0.128-0.059 0.128-0.13 0-0.061-0.040-0.103-0.114-0.131l-0.057-0.021c-0.042-0.018-0.061-0.033-0.061-0.063 0-0.035 0.031-0.051 0.071-0.051s0.068 0.018 0.095 0.057l0.055-0.041c-0.027-0.048-0.066-0.076-0.117-0.085v-0.090h-0.075v0.091c-0.065 0.013-0.111 0.058-0.111 0.121 0 0.056 0.037 0.099 0.111 0.128l0.053 0.021c0.047 0.021 0.068 0.037 0.068 0.068 0 0.037-0.034 0.059-0.081 0.059-0.051 0-0.093-0.026-0.126-0.078l-0.056 0.041c0.031 0.055 0.079 0.092 0.141 0.104v0.093h0.075v-0.091z"></path>
<path fill="#8f9698" d="M4.245 29.262c0 0.043-0.035 0.079-0.079 0.079s-0.079-0.035-0.079-0.079c0-0.043 0.035-0.079 0.079-0.079s0.079 0.035 0.079 0.079z"></path>
<path fill="#8f9698" d="M7.597 29.262c0 0.043-0.035 0.079-0.079 0.079s-0.079-0.035-0.079-0.079c0-0.043 0.035-0.079 0.079-0.079s0.079 0.035 0.079 0.079z"></path>
<path fill="#fff" d="M4.836 0.977h8.825v0.461c0 0.547-0.444 0.991-0.991 0.991h-6.843c-0.547 0-0.991-0.444-0.991-0.991v-0.461zM4.836 0.977h-0.242c0.133 0 0.241 0.117 0.242 0.262v-0.262zM13.902 0.977h-0.242v0.264c0-0.146 0.108-0.264 0.242-0.264v0z"></path>
<path fill="#e4e8ef" d="M8.429 1.32h1.685c0.102 0 0.185 0.083 0.185 0.185v0c0 0.102-0.083 0.185-0.185 0.185h-1.685c-0.102 0-0.185-0.083-0.185-0.185v0c0-0.102 0.083-0.185 0.185-0.185z"></path>
<path fill="#e4e8ef" d="M11.267 1.505c0 0.102-0.076 0.185-0.169 0.185s-0.169-0.083-0.169-0.185c0-0.102 0.076-0.185 0.169-0.185s0.169 0.083 0.169 0.185z"></path>
</svg>
