<!-- Generated by IcoMoon.io -->
<svg version="1.1" xmlns="http://www.w3.org/2000/svg" width="32" height="32" viewBox="0 0 32 32">
<path fill="#000" d="M3.615 20.748l-3.26 7.911c-0.5 1.213-0.159 3.342 0.536 3.342h30.453c0.696 0 1.037-2.138 0.533-3.348l-3.293-7.916c-0.259-0.623-0.604-0.971-0.963-0.971h-23.039c-0.361 0-0.708 0.352-0.967 0.983z"></path>
<path fill="#000" d="M18.882 22.018l-0.003-0.002h-5.516c0.572 0.641 1.096 1.203 1.53 1.659l3.989 3.747h5.642l-5.642-5.404z"></path>
<path fill="#000" d="M16.122 0c-5.451 0-9.87 4.423-9.87 9.879 0 4.253 5.998 11.019 8.642 13.795 0.669 0.702 1.788 0.702 2.456 0 2.645-2.777 8.643-9.542 8.643-13.795-0-5.456-4.419-9.879-9.871-9.879zM16.122 13.637c-2.074 0-3.755-1.683-3.755-3.758s1.681-3.758 3.755-3.758c2.074 0 3.755 1.683 3.755 3.758s-1.681 3.758-3.755 3.758z"></path>
<path fill="#fff" d="M22 9.975c0 3.249-2.634 5.882-5.882 5.882s-5.882-2.634-5.882-5.882c0-3.249 2.634-5.882 5.882-5.882s5.882 2.634 5.882 5.882z"></path>
<path fill="#000" d="M16.122 4c-3.295 0-5.967 2.674-5.967 5.973s2.672 5.973 5.967 5.973c3.295 0 5.967-2.674 5.967-5.973s-2.672-5.973-5.967-5.973zM16.122 13.731c-2.074 0-3.755-1.683-3.755-3.758s1.681-3.758 3.755-3.758c2.074 0 3.755 1.683 3.755 3.758s-1.681 3.758-3.755 3.758z"></path>
</svg>
