<!-- Generated by IcoMoon.io -->
<svg version="1.1" xmlns="http://www.w3.org/2000/svg" width="38" height="32" viewBox="0 0 38 32">
<path fill="#f5f5f5" d="M34.425 8.2c0 0.375 0 0.675 0 1.050 0 10.425-7.875 22.35-22.35 22.35-4.5 0-8.625-1.275-12.075-3.525 0.6 0.075 1.2 0.15 1.875 0.15 3.675 0 7.050-1.275 9.75-3.375-3.45-0.075-6.375-2.325-7.35-5.475 0.525 0.075 0.975 0.15 1.5 0.15 0.675 0 1.425-0.15 2.025-0.3-3.6-0.75-6.3-3.9-6.3-7.725v-0.075c1.050 0.6 2.325 0.9 3.6 0.975-2.175-1.425-3.525-3.825-3.525-6.525 0-1.5 0.375-2.85 1.050-3.975 3.9 4.725 9.75 7.875 16.275 8.25-0.15-0.6-0.225-1.2-0.225-1.8 0-4.35 3.525-7.875 7.875-7.875 2.25 0 4.275 0.9 5.775 2.475 1.725-0.375 3.45-1.050 4.95-1.95-0.6 1.875-1.8 3.375-3.45 4.35 1.575-0.15 3.15-0.6 4.5-1.2-1.050 1.575-2.4 2.925-3.9 4.050z"></path>
</svg>
