<!-- Generated by IcoMoon.io -->
<svg version="1.1" xmlns="http://www.w3.org/2000/svg" width="27" height="32" viewBox="0 0 27 32">
<path d="M13.474 15.579c-4.204 0-7.579-3.375-7.579-7.579 0-4.145 3.375-7.579 7.579-7.579 4.145 0 7.579 3.434 7.579 7.579 0 4.204-3.434 7.579-7.579 7.579zM18.743 17.474c4.382 0 7.993 3.612 7.993 7.993v2.428c0 1.599-1.303 2.842-2.842 2.842h-20.842c-1.599 0-2.842-1.243-2.842-2.842v-2.428c0-4.382 3.553-7.993 7.934-7.993h1.007c1.303 0.651 2.783 0.947 4.322 0.947s2.961-0.296 4.263-0.947h1.007z"></path>
</svg>
