<!-- Generated by IcoMoon.io -->
<svg version="1.1" xmlns="http://www.w3.org/2000/svg" width="32" height="32" viewBox="0 0 32 32">
<path fill="#fff" d="M29.458 26.25c0.525 0.583 0.525 1.458-0.058 1.983l-1.633 1.633c-0.525 0.583-1.4 0.583-1.983 0l-5.775-5.775c-0.292-0.292-0.408-0.642-0.408-0.992v-0.992c-2.1 1.634-4.667 2.567-7.467 2.567-6.708 0-12.133-5.425-12.133-12.133 0-6.65 5.425-12.133 12.133-12.133 6.65 0 12.133 5.483 12.133 12.133 0 2.858-0.992 5.425-2.567 7.467h0.933c0.35 0 0.7 0.175 0.992 0.408l5.833 5.833zM12.133 20.009c4.083 0 7.467-3.325 7.467-7.467 0-4.083-3.383-7.467-7.467-7.467-4.142 0-7.467 3.383-7.467 7.467 0 4.142 3.325 7.467 7.467 7.467z"></path>
</svg>
